<svg width="70" height="70" viewBox="0 0 70 70" fill="none" xmlns="http://www.w3.org/2000/svg">
<g clip-path="url(#clip0_2197_4501)">
<g clip-path="url(#clip1_2197_4501)">
<path d="M1.33531 0.301982C2.16235 0.703834 2.98939 1.10569 3.81707 1.50754C7.65606 3.37291 11.4957 5.23828 15.3347 7.10365C20.6657 9.69365 25.9967 12.2837 31.3277 14.8737C36.3165 17.2977 41.3053 19.7212 46.2941 22.1452C50.1078 23.9983 53.8969 25.9557 57.835 27.5281C55.0402 26.9623 52.0821 27.8087 49.4999 28.9171C47.2618 29.8776 45.1307 31.0689 42.9179 32.0839C40.5042 33.1916 37.7373 33.2078 35.3106 32.1293L13.4019 22.3922C5.1205 18.7107 -0.226074 10.4338 -0.226074 1.29365C-0.226074 0.482815 0.611981 -0.0493144 1.33531 0.301982Z" fill="url(#paint0_linear_2197_4501)"/>
<path d="M68.2372 37.757L9.17208 66.6119L2.19735 70.0192C1.07606 70.5669 -0.226074 69.7418 -0.226074 68.4838V66.1038C-0.226074 59.4369 3.41652 53.356 9.17208 50.2417C9.55707 50.0329 9.9518 49.8379 10.3556 49.6564L42.1965 35.1891L52.2668 30.6812C53.0141 30.3467 53.7822 30.0804 54.5625 29.882C56.0948 29.4918 57.6743 29.3629 59.237 29.4938C60.9578 29.637 62.6573 30.0966 64.2491 30.8698L68.2313 32.8039C70.2853 33.802 70.2886 36.755 68.2372 37.757Z" fill="url(#paint1_linear_2197_4501)"/>
</g>
</g>
<defs>
<linearGradient id="paint0_linear_2197_4501" x1="28.8045" y1="32.9265" x2="28.8045" y2="0.191797" gradientUnits="userSpaceOnUse">
<stop stop-color="#2E3EDF"/>
<stop offset="1" stop-color="#7E03EA"/>
</linearGradient>
<linearGradient id="paint1_linear_2197_4501" x1="-2.28265" y1="65.8121" x2="65.5383" y2="29.7206" gradientUnits="userSpaceOnUse">
<stop stop-color="#7E03EA"/>
<stop offset="1" stop-color="#2E3EDF"/>
</linearGradient>
<clipPath id="clip0_2197_4501">
<rect width="70" height="70" fill="white"/>
</clipPath>
<clipPath id="clip1_2197_4501">
<rect width="70" height="70" fill="white" transform="translate(-0.226074 0.19165)"/>
</clipPath>
</defs>
</svg>
