<svg width="70" height="65" viewBox="0 0 70 65" fill="none" xmlns="http://www.w3.org/2000/svg">
<path d="M43.0286 49.8944C43.1411 49.7449 43.2536 49.583 43.3536 49.4336C43.4287 49.334 43.4912 49.2343 43.5662 49.1347C43.8412 48.7362 44.1162 48.3377 44.3787 47.9392C44.4787 47.7898 44.5788 47.6403 44.6788 47.4785C44.8788 47.1796 45.0663 46.8682 45.2663 46.5569C45.6163 45.9965 45.9539 45.4112 46.2789 44.8259C46.3414 44.7138 46.3914 44.6142 46.4539 44.5021C46.5664 44.3029 46.6664 44.1036 46.7789 43.9044C46.8539 43.7674 46.929 43.618 47.004 43.481C47.0665 43.3565 47.129 43.2319 47.1915 43.1074C47.2915 42.9081 47.3915 42.6964 47.4915 42.4972C47.5415 42.3851 47.604 42.273 47.654 42.1609C47.6665 42.1236 47.6915 42.0862 47.704 42.0489C47.7665 41.9243 47.8165 41.7998 47.879 41.6877C47.8915 41.6504 47.9165 41.613 47.929 41.5881C47.9915 41.4636 48.0415 41.339 48.1041 41.2145C48.1166 41.1771 48.1416 41.1398 48.1541 41.1024C48.2041 40.9779 48.2666 40.8658 48.3166 40.7413C48.3791 40.6043 48.4291 40.4798 48.4916 40.3428C48.5416 40.2307 48.5916 40.1186 48.6291 40.0066C48.6791 39.8696 48.7416 39.745 48.7916 39.6081C48.8416 39.4835 48.8916 39.359 48.9416 39.2345C49.2667 38.425 49.5667 37.5906 49.8542 36.7563C49.9542 36.4449 50.0542 36.1461 50.1542 35.8347C50.2667 35.4611 50.3792 35.1 50.4918 34.7264C50.5293 34.6268 50.5543 34.5147 50.5793 34.4026C50.6168 34.2906 50.6418 34.1785 50.6668 34.0788C50.7168 33.9294 50.7543 33.7675 50.7918 33.6056C50.8168 33.506 50.8543 33.3939 50.8793 33.2943C50.9418 33.0577 51.0043 32.8086 51.0668 32.572C51.1043 32.4475 51.1293 32.323 51.1543 32.1984C51.1793 32.0863 51.2168 31.9618 51.2418 31.8497C51.2793 31.7252 51.3043 31.5882 51.3293 31.4637C51.3543 31.3516 51.3793 31.2271 51.4043 31.115C51.4043 31.1025 51.4043 31.0901 51.4168 31.0901C51.8419 31.2146 52.2669 31.4139 52.6794 31.6754C52.8295 31.775 52.967 31.8746 53.117 31.9867C54.1046 32.7837 54.8671 33.9419 55.1547 35.1125C56.1797 39.3216 54.8421 44.2531 51.8419 47.4162C51.3543 47.9392 50.8293 48.3875 50.2917 48.7736C49.9542 49.0102 49.5792 49.2468 49.1541 49.471C48.8541 49.6328 48.5291 49.7823 48.2041 49.9193C46.2414 50.7536 44.4787 50.9404 43.4787 50.4049C43.1536 50.2057 43.0536 50.0563 43.0286 49.8944Z" fill="white"/>
<path d="M47.204 61.6127C47.1665 61.6252 47.129 61.6501 47.079 61.6626L47.004 61.6875C44.3663 62.7584 41.6285 63.2441 39.0158 63.1071C38.6783 63.0947 38.3533 63.0698 38.0157 63.0324C38.0032 63.0324 37.9907 63.0324 37.9782 63.0324C37.9032 63.0199 37.8282 63.0199 37.7532 63.0075C37.6782 62.995 37.6032 62.9826 37.5157 62.9701C37.5032 62.9701 37.4907 62.9701 37.4782 62.9701H37.4657C37.3157 62.9452 37.1657 62.9203 37.0156 62.8954C36.9406 62.883 36.8656 62.8705 36.8031 62.8581H36.7906C36.7031 62.8456 36.6156 62.8207 36.5281 62.8082C36.5156 62.8082 36.5156 62.8082 36.5156 62.8082C36.4406 62.7958 36.3781 62.7833 36.3031 62.7584C36.1656 62.7211 36.0281 62.6962 35.8905 62.6588C35.8655 62.6588 35.8405 62.6464 35.8155 62.6339C35.7405 62.609 35.6655 62.5965 35.5905 62.5716C35.5155 62.5467 35.453 62.5343 35.3905 62.5094C35.228 62.4596 35.0655 62.4097 34.903 62.3475C34.7655 62.2977 34.6404 62.2603 34.5154 62.2105C34.4154 62.1731 34.3154 62.1358 34.2154 62.0984C34.1654 62.0735 34.1154 62.0611 34.0529 62.0361C33.8654 61.9614 33.6904 61.8743 33.5153 61.7995L33.3153 61.6999C33.2403 61.6626 33.1653 61.6252 33.0903 61.5878C33.0153 61.5505 32.9528 61.5131 32.8778 61.4758C32.8153 61.4509 32.7653 61.4135 32.7153 61.3886L32.6528 61.3512C32.6403 61.3512 32.6278 61.3388 32.6278 61.3388C32.5903 61.3139 32.5528 61.3014 32.5153 61.2765L32.4653 61.2516C32.3903 61.2142 32.3277 61.1644 32.2527 61.1271C32.1777 61.0773 32.1027 61.0399 32.0402 60.9901C31.9902 60.9652 31.9527 60.9278 31.9027 60.9029C31.9027 60.9029 31.9152 60.9029 31.9152 60.8905C32.1777 60.7161 32.4528 60.5418 32.7153 60.355C32.8028 60.2927 32.8903 60.2304 32.9778 60.1682C33.4153 59.8568 33.8654 59.5206 34.3029 59.1844C34.4404 59.0848 34.5654 58.9851 34.6904 58.873C34.828 58.7734 34.953 58.6613 35.078 58.5617C35.3905 58.3127 35.678 58.0511 35.9531 57.8145C36.0531 57.7274 36.1406 57.6402 36.2406 57.553C36.3656 57.4409 36.5031 57.3164 36.6281 57.2043C36.7531 57.0922 36.8906 56.9677 37.0156 56.8556C37.1407 56.7311 37.2657 56.619 37.4032 56.4945L37.4282 56.482C37.5282 56.3824 37.6282 56.2828 37.7282 56.1956C37.8407 56.0835 37.9532 55.9715 38.0657 55.8594C38.1282 55.7971 38.1907 55.7348 38.2407 55.6726C38.3408 55.573 38.4283 55.4733 38.5283 55.3737C38.6408 55.2616 38.7408 55.1495 38.8533 55.0375C38.9533 54.9378 39.0408 54.8382 39.1283 54.7386C39.2283 54.639 39.3158 54.5393 39.4033 54.4397C39.5034 54.3276 39.6034 54.2156 39.7034 54.1035L39.7284 54.0661L39.7409 54.0537C39.7659 54.0163 39.8034 53.9914 39.8284 53.954C39.9284 53.8544 40.0159 53.7423 40.1034 53.6427C40.3159 53.3937 40.5284 53.1446 40.741 52.8955C40.8285 52.7959 40.9035 52.6963 40.9785 52.5966C41.266 52.2604 41.541 51.8993 41.8161 51.5381C42.0161 51.7498 42.2661 51.9242 42.5661 52.0861C43.2787 52.4597 44.0662 52.6091 44.8663 52.6091C45.9539 52.6091 47.054 52.3351 47.9416 52.0363C48.3041 51.9117 48.6291 51.7872 48.9042 51.6627C49.8042 51.2766 50.6668 50.8034 51.3419 50.3177C51.9794 49.857 52.592 49.3215 53.167 48.7237C56.5923 45.1248 58.1049 39.4835 56.9423 34.689C56.5048 32.8833 55.2797 31.1648 53.6796 30.1187C53.5295 30.0191 53.3795 29.9319 53.2295 29.8447C52.7545 29.5832 52.2544 29.384 51.7544 29.2594C52.3294 26.0963 52.6295 22.9457 52.6295 19.8697C52.6295 19.6705 52.6295 19.4837 52.6295 19.2969V19.2346C52.6295 19.0727 52.6295 18.8984 52.617 18.7365V18.5995C52.617 18.4501 52.6045 18.3006 52.6045 18.1512C52.592 17.9395 52.592 17.7278 52.5795 17.5285V17.4414C52.5795 17.3667 52.567 17.2919 52.567 17.2297V17.2172C52.5545 17.0927 52.5545 16.9557 52.542 16.8436C52.5295 16.6693 52.517 16.4949 52.5045 16.3206C52.5045 16.3081 52.5045 16.3081 52.5045 16.2957C52.492 16.1089 52.467 15.9221 52.4545 15.7353C52.442 15.6108 52.4294 15.4738 52.4169 15.3492C52.4044 15.2247 52.3919 15.0877 52.3794 14.9632V14.9507C52.3669 14.8387 52.3544 14.7266 52.3419 14.6145C52.3294 14.4775 52.3044 14.3405 52.2919 14.216C52.2794 14.1413 52.2669 14.0541 52.2544 13.9794C52.2294 13.8424 52.2169 13.693 52.1919 13.556C52.1669 13.4065 52.1419 13.2696 52.1169 13.1201C52.1044 13.0454 52.0919 12.9831 52.0794 12.9084C52.0544 12.7963 52.0419 12.6843 52.0294 12.5971C51.9919 12.3978 51.9544 12.1986 51.9169 11.9993C51.8919 11.8499 51.8544 11.7005 51.8294 11.5635C51.8169 11.5261 51.8169 11.4888 51.8044 11.4514C51.7794 11.3144 51.7419 11.1774 51.7169 11.0404C51.7169 11.028 51.7169 11.028 51.7044 11.0155V11.0031C51.6169 10.617 51.5169 10.231 51.4044 9.85739C51.4419 9.84494 51.4919 9.84494 51.5294 9.83249H51.5419L51.5794 9.82004C51.7794 9.77022 51.9794 9.73286 52.1669 9.6955C52.1794 9.6955 52.1919 9.6955 52.2044 9.6955C56.2798 8.91095 59.355 9.22228 61.3677 10.617C66.3931 14.0915 67.7057 22.0739 68.0433 26.5322C69.1684 41.3888 60.4051 56.1334 47.204 61.6127Z" fill="white"/>
<path d="M51.8294 47.3788C51.3418 47.9019 50.8168 48.3502 50.2668 48.7362C49.9292 48.9728 49.5542 49.2094 49.1292 49.4336C48.8291 49.5955 48.5041 49.7449 48.1791 49.8819C46.2164 50.7163 44.4538 50.9031 43.4537 50.3676C43.1412 50.2057 43.0411 50.0438 43.0161 49.8819C43.1287 49.7325 43.2412 49.5706 43.3412 49.4211C43.4162 49.3215 43.4787 49.2219 43.5537 49.1223C43.8287 48.7238 44.1037 48.3253 44.3663 47.9268C44.4663 47.7773 44.5663 47.6279 44.6663 47.466C44.8663 47.1671 45.0538 46.8558 45.2538 46.5445C45.6039 45.9841 45.9414 45.3988 46.2664 44.8135C46.3289 44.7014 46.3789 44.6018 46.4414 44.4897C46.5539 44.2904 46.654 44.0912 46.7665 43.8919C46.8415 43.755 46.9165 43.6055 46.9915 43.4685C47.054 43.344 47.1165 43.2195 47.179 43.0949C47.279 42.8957 47.379 42.684 47.479 42.4847C47.529 42.3727 47.5915 42.2606 47.6415 42.1485C47.654 42.1111 47.679 42.0738 47.6915 42.0364C47.754 41.9119 47.804 41.7874 47.8666 41.6753C47.8791 41.6379 47.9041 41.6006 47.9166 41.5757C47.9791 41.4511 48.0291 41.3266 48.0916 41.2021C48.1041 41.1647 48.1291 41.1273 48.1416 41.09C48.1916 40.9654 48.2541 40.8534 48.3041 40.7288C48.3666 40.5919 48.4166 40.4673 48.4791 40.3303C48.5291 40.2183 48.5791 40.1062 48.6166 39.9941C48.6666 39.8571 48.7291 39.7326 48.7791 39.5956C48.8291 39.4711 48.8791 39.3465 48.9291 39.222C49.2542 38.4125 49.5542 37.5782 49.8417 36.7438C49.9417 36.4325 50.0417 36.1336 50.1417 35.8223C50.2543 35.4487 50.3668 35.0876 50.4793 34.714C50.5168 34.6143 50.5418 34.5023 50.5668 34.3902C50.6043 34.2781 50.6293 34.166 50.6543 34.0664C50.7043 33.917 50.7418 33.7551 50.7793 33.5932C50.8043 33.4936 50.8418 33.3815 50.8668 33.2818C50.9293 33.0452 50.9918 32.7962 51.0543 32.5596C51.0918 32.435 51.1168 32.3105 51.1418 32.186C51.1668 32.0739 51.2043 31.9494 51.2293 31.8373C51.2668 31.7127 51.2918 31.5758 51.3168 31.4512C51.3418 31.3392 51.3669 31.2146 51.3919 31.1025C51.3919 31.0901 51.3919 31.0776 51.4044 31.0776C51.8294 31.2022 52.2544 31.4014 52.667 31.6629C52.817 31.7626 52.9545 31.8622 53.1045 31.9743C54.0921 32.7713 54.8546 33.9294 55.1422 35.1C56.1548 39.2843 54.8296 44.2282 51.8294 47.3788Z" fill="#FFCF6D"/>
<path d="M69.9059 26.3828C69.5434 21.6008 68.0933 12.9832 62.4178 9.07294C59.9801 7.39176 56.4173 6.98081 51.8419 7.85253C51.6294 7.88989 51.4043 7.9397 51.1793 7.98951L51.1293 8.00197C50.7543 8.07669 50.3668 8.17631 49.9792 8.26348C49.7292 8.32575 49.5167 8.48764 49.3792 8.72425C49.2542 8.94841 49.2292 9.22238 49.3042 9.47144C49.5042 10.0816 49.6917 10.7292 49.8542 11.4141C49.8542 11.439 49.8667 11.4639 49.8792 11.5013C49.9042 11.6134 49.9292 11.7379 49.9542 11.8624C49.9542 11.8749 49.9542 11.8749 49.9667 11.8874C49.9667 11.8998 49.9792 11.9123 49.9792 11.9372C49.9792 11.9496 49.9792 11.9621 49.9917 11.9745C50.0292 12.1115 50.0542 12.2485 50.0792 12.3855C50.1167 12.5723 50.1542 12.7591 50.1917 12.9583C50.2167 13.058 50.2292 13.1451 50.2417 13.2447V13.2572C50.2542 13.3195 50.2668 13.3817 50.2793 13.4315C50.3043 13.5685 50.3293 13.7055 50.3418 13.8425C50.3668 13.967 50.3793 14.104 50.4043 14.2285V14.241C50.4168 14.3033 50.4293 14.378 50.4293 14.4527C50.4418 14.5772 50.4668 14.7018 50.4793 14.8263V14.8388C50.4918 14.9384 50.5043 15.038 50.5168 15.1501V15.1625V15.175C50.5293 15.2871 50.5418 15.3991 50.5543 15.5112V15.5237C50.5668 15.6482 50.5793 15.7727 50.5918 15.8973C50.6043 16.0716 50.6293 16.246 50.6418 16.4203C50.6418 16.4328 50.6418 16.4328 50.6418 16.4452C50.6543 16.6071 50.6668 16.769 50.6793 16.9433C50.6918 17.0679 50.6918 17.1799 50.7043 17.3045V17.3294C50.7043 17.3917 50.7168 17.4539 50.7168 17.5162V17.5286C50.7293 17.7279 50.7418 17.9396 50.7418 18.1388C50.7418 18.2758 50.7543 18.4253 50.7543 18.5622V18.6992C50.7543 18.8611 50.7668 19.0106 50.7668 19.1725V19.2098C50.7668 19.3966 50.7668 19.5834 50.7668 19.7702C50.7668 23.0454 50.4168 26.4202 49.7417 29.7826C48.5791 35.511 46.4789 40.953 43.6662 45.5233C43.0661 46.4822 42.4536 47.4287 41.816 48.3253C41.6535 48.5495 41.5035 48.7736 41.341 48.9853C40.7534 49.7948 40.1534 50.5669 39.5408 51.3141C39.4658 51.4012 39.3908 51.5009 39.3158 51.588C39.1158 51.8371 38.9033 52.0737 38.7033 52.3103C38.6158 52.4099 38.5283 52.5096 38.4407 52.6092C38.4282 52.6092 38.4282 52.6217 38.4282 52.6217C38.4032 52.6466 38.3782 52.6715 38.3532 52.7088L38.3282 52.7462C38.2282 52.8458 38.1407 52.9579 38.0407 53.07C37.9532 53.1696 37.8657 53.2568 37.7782 53.3564C37.7782 53.3564 37.7657 53.3564 37.7657 53.3688C37.6782 53.456 37.6032 53.5556 37.5157 53.6428L37.5032 53.6553C37.4032 53.7549 37.3032 53.867 37.2031 53.9666C37.1906 53.9666 37.1906 53.979 37.1906 53.979C37.1031 54.0787 37.0031 54.1658 36.9156 54.2655L36.9031 54.2779C36.8531 54.3277 36.8031 54.39 36.7406 54.4398C36.6281 54.5519 36.5281 54.6515 36.4156 54.7636C36.3156 54.8632 36.2281 54.9504 36.1281 55.05L36.1155 55.0625L36.103 55.0749C35.9905 55.187 35.8655 55.2991 35.7405 55.4112C35.6155 55.5232 35.503 55.6353 35.378 55.7474C35.253 55.8595 35.1405 55.9716 35.0155 56.0712C35.0155 56.0712 35.003 56.0712 35.003 56.0836C34.9154 56.1583 34.8279 56.2455 34.7404 56.3202C34.4779 56.5569 34.1904 56.7935 33.9029 57.0301C33.7779 57.1297 33.6528 57.2293 33.5278 57.3289C33.4028 57.4286 33.2778 57.5282 33.1528 57.6278C32.7403 57.9516 32.3152 58.2629 31.8902 58.5618C31.8902 58.5618 31.8777 58.5618 31.8777 58.5743C31.8027 58.6241 31.7277 58.6863 31.6402 58.7362C31.3902 58.9105 31.1276 59.0848 30.8776 59.2467C30.7526 59.3215 30.6276 59.4086 30.5026 59.4833C30.3776 59.5581 30.2526 59.6452 30.1275 59.72C30.0025 59.7947 29.8775 59.8694 29.74 59.9441C29.4775 60.106 29.3025 60.38 29.2775 60.6788C29.2525 60.9777 29.3775 61.2766 29.615 61.4759C29.665 61.5132 29.715 61.563 29.7775 61.6004L29.8275 61.6377C29.84 61.6502 29.8525 61.6502 29.8525 61.6627C30.015 61.7872 30.165 61.8993 30.3026 61.9989C30.4526 62.111 30.6026 62.2106 30.7651 62.3227C30.8401 62.3725 30.9276 62.4347 31.0151 62.4846C31.0901 62.5344 31.1776 62.5842 31.2526 62.634C31.3276 62.6838 31.4152 62.7336 31.5027 62.7834L31.5527 62.8083C31.6027 62.8332 31.6527 62.8582 31.7027 62.8955C31.7277 62.908 31.7402 62.9204 31.7652 62.9329L31.7902 62.9453C31.8652 62.9827 31.9402 63.0325 32.0027 63.0574C32.0902 63.1072 32.1777 63.1446 32.2527 63.1944C32.3402 63.2317 32.4152 63.2816 32.5152 63.3314L32.7278 63.431C32.9403 63.5306 33.1528 63.6302 33.3403 63.705C33.4028 63.7299 33.4653 63.7548 33.5278 63.7797C33.6403 63.8295 33.7528 63.8669 33.8654 63.9042C34.0154 63.9665 34.1654 64.0163 34.3279 64.0661C34.5029 64.1284 34.6904 64.1906 34.8779 64.2405C34.953 64.2654 35.0405 64.2903 35.1155 64.3152C35.203 64.3401 35.2905 64.365 35.378 64.3899C35.3905 64.3899 35.3905 64.3899 35.403 64.3899C35.4155 64.3899 35.428 64.3899 35.428 64.4023C35.5905 64.4397 35.753 64.4895 35.903 64.5144C35.9905 64.5393 36.078 64.5518 36.1656 64.5767C36.2656 64.6016 36.3656 64.614 36.4656 64.639H36.4906C36.5781 64.6514 36.6531 64.6763 36.7406 64.6888C36.9031 64.7137 37.0656 64.7386 37.2281 64.7635C37.2531 64.7635 37.2781 64.7759 37.2906 64.7759C37.3782 64.7884 37.4657 64.8008 37.5532 64.8133C37.6407 64.8258 37.7282 64.8382 37.8157 64.8507C37.8282 64.8507 37.8282 64.8507 37.8407 64.8507C38.5158 64.9254 39.2158 64.9627 39.9034 64.9627C42.5036 64.9627 45.1788 64.4272 47.7665 63.3812L47.829 63.3563C47.879 63.3314 47.9291 63.3189 47.9666 63.294C54.7796 60.4671 60.7301 55.1247 64.743 48.2381C68.6183 41.5632 70.4685 33.7925 69.9059 26.3828ZM43.3537 49.4212C43.4287 49.3216 43.4912 49.2219 43.5662 49.1223C43.8412 48.7238 44.1162 48.3253 44.3787 47.9268C44.4788 47.7774 44.5788 47.6279 44.6788 47.466C44.8788 47.1672 45.0663 46.8558 45.2663 46.5445C45.6164 45.9841 45.9539 45.3988 46.2789 44.8135C46.3414 44.7014 46.3914 44.6018 46.4539 44.4897C46.5664 44.2905 46.6664 44.0912 46.779 43.892C46.854 43.755 46.929 43.6056 47.004 43.4686C47.0665 43.344 47.129 43.2195 47.1915 43.095C47.2915 42.8957 47.3915 42.684 47.4915 42.4848C47.5415 42.3727 47.604 42.2606 47.654 42.1485C47.6665 42.1112 47.6915 42.0738 47.704 42.0365C47.7665 41.9119 47.8165 41.7874 47.879 41.6753C47.8915 41.638 47.9165 41.6006 47.9291 41.5757C47.9916 41.4512 48.0416 41.3266 48.1041 41.2021C48.1166 41.1647 48.1416 41.1274 48.1541 41.09C48.2041 40.9655 48.2666 40.8534 48.3166 40.7289C48.3791 40.5919 48.4291 40.4674 48.4916 40.3304C48.5416 40.2183 48.5916 40.1062 48.6291 39.9941C48.6791 39.8572 48.7416 39.7326 48.7916 39.5956C48.8416 39.4711 48.8916 39.3466 48.9416 39.222C49.2667 38.4126 49.5667 37.5782 49.8542 36.7439C49.9542 36.4325 50.0542 36.1337 50.1542 35.8223C50.2668 35.4487 50.3793 35.0876 50.4918 34.714C50.5293 34.6144 50.5543 34.5023 50.5793 34.3902C50.6168 34.2781 50.6418 34.1661 50.6668 34.0664C50.7168 33.917 50.7543 33.7551 50.7918 33.5932C50.8168 33.4936 50.8543 33.3815 50.8793 33.2819C50.9418 33.0453 51.0043 32.7962 51.0668 32.5596C51.1043 32.4351 51.1293 32.3105 51.1543 32.186C51.1793 32.0739 51.2168 31.9494 51.2418 31.8373C51.2793 31.7128 51.3043 31.5758 51.3293 31.4513C51.3543 31.3392 51.3793 31.2147 51.4043 31.1026C51.4043 31.0901 51.4043 31.0777 51.4168 31.0777C51.8419 31.2022 52.2669 31.4015 52.6795 31.663C52.8295 31.7626 52.967 31.8622 53.117 31.9743C54.1046 32.7713 54.8671 33.9295 55.1547 35.1C56.1798 39.3092 54.8421 44.2407 51.8419 47.4038C51.3543 47.9268 50.8293 48.3751 50.2917 48.7612C49.9542 48.9978 49.5792 49.2344 49.1542 49.4585C48.8541 49.6204 48.5291 49.7699 48.2041 49.9069C46.2414 50.7412 44.4788 50.928 43.4787 50.3925C43.1661 50.2306 43.0661 50.0688 43.0411 49.9069C43.1411 49.7325 43.2537 49.5831 43.3537 49.4212ZM47.204 61.6128C47.1665 61.6253 47.129 61.6502 47.079 61.6627L47.004 61.6876C44.3662 62.7585 41.6285 63.2442 39.0158 63.1072C38.6783 63.0948 38.3532 63.0699 38.0157 63.0325C38.0032 63.0325 37.9907 63.0325 37.9782 63.0325C37.9032 63.02 37.8282 63.02 37.7532 63.0076C37.6782 62.9951 37.6032 62.9827 37.5157 62.9702C37.5032 62.9702 37.4907 62.9702 37.4782 62.9702H37.4657C37.3157 62.9453 37.1656 62.9204 37.0156 62.8955C36.9406 62.8831 36.8656 62.8706 36.8031 62.8582H36.7906C36.7031 62.8457 36.6156 62.8208 36.5281 62.8083C36.5156 62.8083 36.5156 62.8083 36.5156 62.8083C36.4406 62.7959 36.3781 62.7834 36.3031 62.7585C36.1656 62.7212 36.028 62.6963 35.8905 62.6589C35.8655 62.6589 35.8405 62.6464 35.8155 62.634C35.7405 62.6091 35.6655 62.5966 35.5905 62.5717C35.5155 62.5468 35.453 62.5344 35.3905 62.5095C35.228 62.4597 35.0655 62.4098 34.9029 62.3476C34.7654 62.2978 34.6404 62.2604 34.5154 62.2106C34.4154 62.1732 34.3154 62.1359 34.2154 62.0985C34.1654 62.0736 34.1154 62.0611 34.0529 62.0362C33.8654 61.9615 33.6903 61.8744 33.5153 61.7996L33.3153 61.7C33.2403 61.6626 33.1653 61.6253 33.0903 61.5879C33.0153 61.5506 32.9528 61.5132 32.8778 61.4759C32.8153 61.4509 32.7653 61.4136 32.7153 61.3887L32.6528 61.3513C32.6403 61.3513 32.6278 61.3389 32.6278 61.3389C32.5903 61.314 32.5527 61.3015 32.5152 61.2766L32.4652 61.2517C32.3902 61.2143 32.3277 61.1645 32.2527 61.1272C32.1777 61.0773 32.1027 61.04 32.0402 60.9902C31.9902 60.9653 31.9527 60.9279 31.9027 60.903C31.9027 60.903 31.9152 60.903 31.9152 60.8906C32.1777 60.7162 32.4527 60.5419 32.7153 60.3551C32.8028 60.2928 32.8903 60.2305 32.9778 60.1683C33.4153 59.8569 33.8654 59.5207 34.3029 59.1845C34.4404 59.0848 34.5654 58.9852 34.6904 58.8731C34.8279 58.7735 34.953 58.6614 35.078 58.5618C35.3905 58.3127 35.678 58.0512 35.953 57.8146C36.053 57.7275 36.1406 57.6403 36.2406 57.5531C36.3656 57.441 36.5031 57.3165 36.6281 57.2044C36.7531 57.0923 36.8906 56.9678 37.0156 56.8557C37.1406 56.7312 37.2656 56.6191 37.4032 56.4946L37.4282 56.4821C37.5282 56.3825 37.6282 56.2829 37.7282 56.1957C37.8407 56.0836 37.9532 55.9716 38.0657 55.8595C38.1282 55.7972 38.1907 55.7349 38.2407 55.6727C38.3407 55.5731 38.4282 55.4734 38.5283 55.3738C38.6408 55.2617 38.7408 55.1496 38.8533 55.0376C38.9533 54.9379 39.0408 54.8383 39.1283 54.7387C39.2283 54.6391 39.3158 54.5394 39.4033 54.4398C39.5033 54.3277 39.6033 54.2157 39.7034 54.1036L39.7284 54.0662L39.7409 54.0538C39.7659 54.0164 39.8034 53.9915 39.8284 53.9541C39.9284 53.8545 40.0159 53.7424 40.1034 53.6428C40.3159 53.3937 40.5284 53.1447 40.7409 52.8956C40.8284 52.796 40.9035 52.6964 40.9785 52.5967C41.266 52.2605 41.541 51.8994 41.816 51.5382C42.0161 51.7499 42.2661 51.9243 42.5661 52.0862C43.2787 52.4598 44.0662 52.6092 44.8663 52.6092C45.9539 52.6092 47.054 52.3352 47.9416 52.0364C48.3041 51.9118 48.6291 51.7873 48.9041 51.6628C49.8042 51.2767 50.6668 50.8035 51.3418 50.3178C51.9794 49.857 52.5919 49.3216 53.167 48.7238C56.5923 45.1248 58.1049 39.4836 56.9423 34.6891C56.5048 32.8834 55.2797 31.1649 53.6795 30.1188C53.5295 30.0192 53.3795 29.932 53.2295 29.8448C52.7545 29.5833 52.2544 29.384 51.7544 29.2595C52.3294 26.0964 52.6294 22.9458 52.6294 19.8698C52.6294 19.6706 52.6294 19.4838 52.6294 19.297V19.2347C52.6294 19.0728 52.6294 18.8985 52.6169 18.7366V18.5996C52.6169 18.4502 52.6044 18.3007 52.6044 18.1513C52.5919 17.9396 52.5919 17.7279 52.5794 17.5286V17.4415C52.5794 17.3667 52.5669 17.292 52.5669 17.2298V17.2173C52.5544 17.0928 52.5544 16.9558 52.5419 16.8437C52.5294 16.6694 52.5169 16.495 52.5044 16.3207C52.5044 16.3082 52.5044 16.3082 52.5044 16.2958C52.4919 16.109 52.4669 15.9222 52.4544 15.7354C52.4419 15.6108 52.4294 15.4739 52.4169 15.3493C52.4044 15.2248 52.3919 15.0878 52.3794 14.9633V14.9508C52.3669 14.8388 52.3544 14.7267 52.3419 14.6146C52.3294 14.4776 52.3044 14.3406 52.2919 14.2161C52.2794 14.1414 52.2669 14.0542 52.2544 13.9795C52.2294 13.8425 52.2169 13.6931 52.1919 13.5561C52.1669 13.4066 52.1419 13.2697 52.1169 13.1202C52.1044 13.0455 52.0919 12.9832 52.0794 12.9085C52.0544 12.7964 52.0419 12.6844 52.0294 12.5972C51.9919 12.3979 51.9544 12.1987 51.9169 11.9994C51.8919 11.85 51.8544 11.7006 51.8294 11.5636C51.8169 11.5262 51.8169 11.4889 51.8044 11.4515C51.7794 11.3145 51.7419 11.1775 51.7169 11.0405C51.7169 11.0281 51.7169 11.0281 51.7044 11.0156V11.0032C51.6169 10.6171 51.5169 10.2311 51.4043 9.85749C51.4419 9.84503 51.4919 9.84503 51.5294 9.83258H51.5419L51.5794 9.82013C51.7794 9.77032 51.9794 9.73296 52.1669 9.6956C52.1794 9.6956 52.1919 9.6956 52.2044 9.6956C56.2798 8.91105 59.355 9.22238 61.3677 10.6171C66.3931 14.0916 67.7057 22.074 68.0433 26.5323C69.1683 41.3889 60.4051 56.1334 47.204 61.6128Z" fill="black"/>
<path d="M51.7169 19.3094C51.7169 22.5348 51.3793 25.947 50.6918 29.3218C49.5292 35.0502 47.429 40.4923 44.6163 45.0626C43.8662 46.2705 43.0911 47.4287 42.2911 48.5245C35.528 57.8271 27.2398 62.8457 19.4266 62.8457C16.8764 62.8457 14.3762 62.3102 11.9885 61.2143C11.3009 60.903 10.6384 60.5418 9.97583 60.1309C6.28802 57.852 3.7253 54.0039 2.56271 48.9853C0.575038 40.3553 2.97524 29.272 8.82574 20.0566C11.8635 15.2746 16.0013 11.1651 20.8768 8.03931C23.277 6.49512 25.8522 5.19999 28.5524 4.17883C32.5402 2.672 36.5531 1.88745 39.9784 1.88745C42.4286 1.88745 44.5663 2.28595 46.1789 3.09541C48.4416 4.22865 50.2417 7.591 51.1168 12.3232C51.5169 14.4901 51.7169 16.8562 51.7169 19.3094Z" fill="white"/>
<path d="M23.0645 50.6168C29.4232 50.6168 34.5779 45.2756 34.5779 38.6867C34.5779 32.0979 29.4232 26.7566 23.0645 26.7566C16.7058 26.7566 11.551 32.0979 11.551 38.6867C11.551 45.2756 16.7058 50.6168 23.0645 50.6168Z" fill="#FFCF6D"/>
<path d="M23.0644 24.876C15.6763 24.876 9.67581 31.0652 9.67581 38.6865C9.67581 46.3079 15.6888 52.4971 23.0644 52.4971C30.4401 52.4971 36.4531 46.3079 36.4531 38.6865C36.4531 31.0652 30.4526 24.876 23.0644 24.876ZM23.0644 50.6167C16.7139 50.6167 11.551 45.2618 11.551 38.6865C11.551 32.1113 16.7139 26.7564 23.0644 26.7564C29.415 26.7564 34.5779 32.1113 34.5779 38.6865C34.5779 45.2618 29.415 50.6167 23.0644 50.6167Z" fill="black"/>
<g opacity="0.1">
<path d="M4.88791 39.5956C4.71289 44.5893 5.30044 49.6578 7.07559 54.3277C7.85066 56.37 10.4759 59.695 11.701 61.5007C11.0134 61.1894 10.3509 60.8283 9.68831 60.4173C6.0005 58.1384 3.43778 54.2654 2.28769 49.2219C0.300017 40.5545 2.68772 29.4214 8.53822 20.1562C11.576 15.3493 15.7138 11.2149 20.5767 8.07666C20.4767 8.18874 20.3767 8.28836 20.2642 8.40044C11.926 17.1177 5.31294 27.5659 4.88791 39.5956Z" fill="black"/>
</g>
<path d="M52.9545 11.987C51.9544 6.5948 49.8417 2.8464 47.0165 1.41429C42.6411 -0.777468 35.3155 -0.403873 27.8774 2.41054C19.3141 5.66082 11.9885 11.5761 7.23811 19.0604C4.20035 23.8424 2.00017 29.1973 0.875072 34.5397C-0.237522 39.8198 -0.287526 44.9506 0.750062 49.4088C2.02517 54.9255 4.87541 59.1845 9.00076 61.725C12.2135 63.705 15.7263 64.7013 19.3766 64.7013C21.7768 64.7013 24.2396 64.2654 26.7148 63.4061C32.9278 61.2393 38.8408 56.4697 43.8162 49.6205C44.6413 48.4872 45.4414 47.2793 46.2164 46.0464C49.1542 41.3018 51.3419 35.648 52.542 29.6954C53.7796 23.5062 53.9296 17.2174 52.9545 11.987ZM19.4266 62.8457C16.1389 62.8457 12.9386 61.9616 9.97584 60.131C6.28803 57.852 3.72531 54.004 2.56272 48.9854C0.575047 40.3553 2.97525 29.272 8.82575 20.0567C13.3636 12.9086 20.3642 7.27973 28.5524 4.17889C32.5403 2.67206 36.5531 1.88751 39.9784 1.88751C42.4286 1.88751 44.5663 2.28601 46.1789 3.09547C48.4416 4.2287 50.2418 7.59106 51.1168 12.3233C51.5169 14.4901 51.7169 16.8438 51.7169 19.3095C51.7169 22.5349 51.3794 25.947 50.6918 29.3218C49.5292 35.0503 47.429 40.4923 44.6163 45.0626C43.8662 46.2706 43.0911 47.4287 42.2911 48.5246C35.5155 57.8396 27.2273 62.8457 19.4266 62.8457Z" fill="black"/>
</svg>
