<svg width="70" height="56" viewBox="0 0 70 56" fill="none" xmlns="http://www.w3.org/2000/svg">
<g clip-path="url(#clip0_2161_2974)">
<mask id="mask0_2161_2974" style="mask-type:luminance" maskUnits="userSpaceOnUse" x="0" y="0" width="70" height="56">
<path d="M70 0H0V56H70V0Z" fill="white"/>
</mask>
<g mask="url(#mask0_2161_2974)">
<path d="M35.3173 16.9478H29.1089V25.7066H34.3274C36.3628 25.7066 37.9315 25.295 38.9895 24.5251C40.0444 23.7574 40.599 22.6283 40.599 21.1723C40.599 19.807 40.1216 18.7549 39.2293 18.0423C38.3347 17.3277 37.0145 16.9478 35.3173 16.9478Z" fill="url(#paint0_linear_2161_2974)"/>
<path d="M29.1089 39.0405H35.549C37.6689 39.0405 39.2789 38.6134 40.3576 37.7952C41.4329 36.9796 41.9892 35.7682 41.9892 34.1761C41.9892 32.5847 41.418 31.3894 40.301 30.5889C39.1803 29.7854 37.5013 29.3735 35.2752 29.3735H29.1089V39.0405Z" fill="url(#paint1_linear_2161_2974)"/>
<path fill-rule="evenodd" clip-rule="evenodd" d="M14.539 0C10.5448 0 7.58995 3.51098 7.72201 7.31843C7.84889 10.9759 7.68414 15.7136 6.49632 19.5766C5.30496 23.4517 3.29069 25.901 0 26.2157V29.7843C3.29083 30.099 5.30496 32.5483 6.49632 36.4234C7.68414 40.2864 7.84889 45.0241 7.72215 48.6816C7.58995 52.4891 10.5448 56 14.539 56H55.4662C59.4602 56 62.4151 52.4891 62.2831 48.6816C62.1562 45.0241 62.3209 40.2864 63.5086 36.4234C64.7002 32.5483 66.7093 30.099 70 29.7843V26.2157C66.7093 25.901 64.7002 23.4517 63.5086 19.5766C62.3209 15.7136 62.1562 10.9759 62.2831 7.31843C62.4151 3.51098 59.4602 0 55.4662 0H14.539ZM24.254 13.0333H36.4547C39.1628 13.0333 41.4121 13.7693 42.9859 15.077C44.5609 16.3859 45.4539 18.2633 45.4539 20.5327C45.4539 23.7037 43.0801 26.5448 40.0407 27.0718V27.1174C44.1661 27.5965 46.9493 30.4826 46.9493 34.4649C46.9493 37.1049 45.9675 39.2307 44.1673 40.6949C42.3692 42.1578 39.7614 42.9549 36.518 42.9549H24.254V13.0333Z" fill="url(#paint2_linear_2161_2974)"/>
</g>
</g>
<defs>
<linearGradient id="paint0_linear_2161_2974" x1="10.4014" y1="1.482" x2="71.7544" y2="49.9938" gradientUnits="userSpaceOnUse">
<stop stop-color="#9013FE"/>
<stop offset="1" stop-color="#6610F2"/>
</linearGradient>
<linearGradient id="paint1_linear_2161_2974" x1="10.4014" y1="1.48207" x2="71.7544" y2="49.9938" gradientUnits="userSpaceOnUse">
<stop stop-color="#9013FE"/>
<stop offset="1" stop-color="#6610F2"/>
</linearGradient>
<linearGradient id="paint2_linear_2161_2974" x1="10.4014" y1="1.48208" x2="71.7545" y2="49.9939" gradientUnits="userSpaceOnUse">
<stop stop-color="#9013FE"/>
<stop offset="1" stop-color="#6610F2"/>
</linearGradient>
<clipPath id="clip0_2161_2974">
<rect width="70" height="56" fill="white"/>
</clipPath>
</defs>
</svg>
