<svg width="70" height="70" viewBox="0 0 70 70" fill="none" xmlns="http://www.w3.org/2000/svg">
<g clip-path="url(#clip0_2197_4931)">
<g clip-path="url(#clip1_2197_4931)">
<path d="M22.1213 3.24722C32.5435 3.24722 40.9954 11.6991 40.9954 22.1213C40.9954 32.5435 32.5435 40.9954 22.1213 40.9954C11.6991 40.9954 3.24722 32.5435 3.24722 22.1213C3.24722 11.6991 11.6991 3.24722 22.1213 3.24722ZM22.1213 0C19.1333 0 16.2361 0.583333 13.5074 1.73704C10.8759 2.85185 8.51019 4.4463 6.48148 6.48148C4.4463 8.51019 2.85185 10.8759 1.73704 13.5074C0.583333 16.2361 0 19.1333 0 22.1213C0 25.1093 0.583333 28.0065 1.73704 30.7352C2.85185 33.3667 4.4463 35.7324 6.48148 37.7611C8.51019 39.7898 10.8759 41.3843 13.5139 42.4991C16.2426 43.6528 19.1398 44.2361 22.1278 44.2361C25.1157 44.2361 28.013 43.6528 30.7417 42.4991C33.3731 41.3843 35.7389 39.7898 37.7741 37.7611C39.8028 35.7324 41.3972 33.3667 42.512 30.7287C43.6657 28 44.2491 25.1028 44.2491 22.1148C44.2491 19.1269 43.6657 16.2296 42.512 13.5009C41.3972 10.8694 39.8028 8.5037 37.7741 6.46852C35.7324 4.4463 33.3667 2.85185 30.7352 1.73704C28.0065 0.583333 25.1028 0 22.1213 0Z" fill="#FBD333"/>
<path d="M22.1214 40.9955C32.5452 40.9955 40.9955 32.5452 40.9955 22.1214C40.9955 11.6975 32.5452 3.24731 22.1214 3.24731C11.6975 3.24731 3.24731 11.6975 3.24731 22.1214C3.24731 32.5452 11.6975 40.9955 22.1214 40.9955Z" fill="#FBB030"/>
<path opacity="0.1" d="M40.9955 22.1214C40.9955 32.5436 32.5436 40.9955 22.1214 40.9955C21.5445 40.9955 20.9742 40.9695 20.4167 40.9177C30.0417 40.0556 37.5797 31.9668 37.5797 22.1214C37.5797 12.276 30.0417 4.18713 20.4167 3.32509C20.9806 3.27324 21.5445 3.24731 22.1214 3.24731C32.5436 3.24731 40.9955 11.6992 40.9955 22.1214Z" fill="black"/>
<path d="M22.5945 31.7397C20.7344 31.7397 19.0881 31.3249 17.6621 30.5018C16.2362 29.6786 15.1149 28.5444 14.2982 27.099C13.4816 25.6536 13.0732 23.9944 13.0732 22.1147C13.0732 20.2351 13.4816 18.5759 14.2982 17.1305C15.1149 15.6851 16.2362 14.5509 17.6621 13.7277C19.0881 12.9046 20.7344 12.4897 22.5945 12.4897C24.0269 12.4897 25.3232 12.736 26.4769 13.2351C27.6307 13.7342 28.6223 14.4212 29.4519 15.3092C30.1066 16.0027 30.6381 16.787 31.0529 17.6555C31.2344 18.0379 31.0399 18.4916 30.6381 18.6212L27.2677 19.6972C26.9501 19.8009 26.6001 19.6583 26.4445 19.3601C26.2436 18.9907 26.0038 18.6536 25.7381 18.349C25.3492 17.9147 24.889 17.5842 24.3705 17.3509C23.8455 17.124 23.2557 17.0073 22.601 17.0073C21.7325 17.0073 20.9612 17.2277 20.2871 17.6555C19.6131 18.0897 19.0881 18.686 18.7057 19.4509C18.3232 20.2157 18.1353 21.0972 18.1353 22.1083C18.1353 23.0999 18.3297 23.9814 18.7186 24.7527C19.1075 25.524 19.6455 26.1268 20.326 26.561C21.0066 26.9953 21.7908 27.2092 22.6788 27.2092C23.3723 27.2092 23.9686 27.0925 24.4742 26.8527C24.9797 26.6129 25.414 26.2759 25.7769 25.8416C26.0297 25.537 26.2566 25.1999 26.464 24.824C26.626 24.5323 26.9695 24.3897 27.2871 24.4934L30.6769 25.5694C31.0788 25.699 31.2732 26.1462 31.0982 26.5286C30.6964 27.4036 30.1649 28.1944 29.5103 28.8944C28.6742 29.7888 27.676 30.4823 26.5094 30.9814C25.3362 31.4934 24.0334 31.7397 22.5945 31.7397Z" fill="#F3832D"/>
<path d="M47.8786 29.0045C58.3008 29.0045 66.7527 37.4564 66.7527 47.8786C66.7527 58.3008 58.3008 66.7527 47.8786 66.7527C37.4564 66.7527 29.0045 58.3008 29.0045 47.8786C29.0045 37.4564 37.4564 29.0045 47.8786 29.0045ZM47.8786 25.7573C44.8907 25.7573 41.9934 26.3407 39.2647 27.4944C36.6332 28.6092 34.2675 30.2036 32.2323 32.2323C30.2036 34.261 28.6092 36.6268 27.4944 39.2647C26.3407 41.9934 25.7573 44.8907 25.7573 47.8786C25.7573 50.8666 26.3407 53.7638 27.4944 56.4925C28.6092 59.124 30.2036 61.4897 32.2323 63.5249C34.261 65.5536 36.6268 67.1481 39.2647 68.2629C41.9934 69.4166 44.8907 69.9999 47.8786 69.9999C50.8666 69.9999 53.7638 69.4166 56.4925 68.2629C59.124 67.1481 61.4897 65.5536 63.5249 63.5249C65.5536 61.4962 67.1481 59.1305 68.2629 56.4925C69.4166 53.7638 69.9999 50.8666 69.9999 47.8786C69.9999 44.8907 69.4166 41.9934 68.2629 39.2647C67.1481 36.6332 65.5536 34.2675 63.5249 32.2323C61.4962 30.2036 59.1305 28.6092 56.4925 27.4944C53.7638 26.3407 50.8666 25.7573 47.8786 25.7573Z" fill="#FBD333"/>
<path d="M47.8787 66.7528C58.3026 66.7528 66.7528 58.3026 66.7528 47.8787C66.7528 37.4549 58.3026 29.0046 47.8787 29.0046C37.4549 29.0046 29.0046 37.4549 29.0046 47.8787C29.0046 58.3026 37.4549 66.7528 47.8787 66.7528Z" fill="#FBB030"/>
<path opacity="0.1" d="M66.7528 47.8787C66.7528 58.3009 58.3009 66.7528 47.8787 66.7528C47.3018 66.7528 46.7315 66.7269 46.1741 66.675C55.7991 65.813 63.337 57.7241 63.337 47.8787C63.337 38.0333 55.7991 29.9445 46.1741 29.0824C46.738 29.0306 47.3018 29.0046 47.8787 29.0046C58.3009 29.0046 66.7528 37.4565 66.7528 47.8787Z" fill="black"/>
<path d="M37.573 46.4202C37.573 45.8174 38.0591 45.3313 38.6619 45.3313H49.1036C49.7063 45.3313 50.1924 45.8174 50.1924 46.4202C50.1924 47.023 49.7063 47.5091 49.1036 47.5091H38.6619C38.0591 47.5091 37.573 47.0165 37.573 46.4202ZM37.573 49.3434C37.573 48.7406 38.0591 48.2545 38.6619 48.2545H49.1036C49.7063 48.2545 50.1924 48.7406 50.1924 49.3434C50.1924 49.9461 49.7063 50.4323 49.1036 50.4323H38.6619C38.0591 50.4323 37.573 49.9397 37.573 49.3434ZM48.3063 57.4971C46.5693 57.4971 45.0332 57.0823 43.698 56.2591C42.3628 55.436 41.3128 54.3017 40.561 52.8563C39.8091 51.411 39.4332 49.7517 39.4332 47.8721C39.4332 45.9924 39.8091 44.3332 40.561 42.8878C41.3128 41.4424 42.3563 40.3082 43.698 39.485C45.0332 38.6619 46.5693 38.2471 48.3063 38.2471C49.5832 38.2471 50.7304 38.4804 51.761 38.9536C52.7915 39.4202 53.673 40.0813 54.4184 40.9304C54.898 41.4748 55.2998 42.0776 55.6304 42.7323C55.9286 43.3221 55.6369 44.0415 55.0082 44.2554L52.6554 45.0591C52.1758 45.2211 51.6378 45.0332 51.3786 44.5989C51.2424 44.3786 51.0998 44.1711 50.9313 43.9832C50.5943 43.5943 50.2119 43.2897 49.7776 43.0823C49.3434 42.8684 48.8508 42.7647 48.2998 42.7647C47.5545 42.7647 46.8934 42.985 46.323 43.4128C45.7461 43.8471 45.2924 44.4434 44.9684 45.2082C44.6378 45.973 44.4758 46.8545 44.4758 47.8656C44.4758 48.8573 44.6443 49.7387 44.9813 50.51C45.3184 51.2813 45.7786 51.8841 46.3619 52.3184C46.9452 52.7526 47.6128 52.9665 48.3582 52.9665C48.961 52.9665 49.473 52.8563 49.9008 52.636C50.3286 52.4156 50.6915 52.111 50.9897 51.7221C51.1323 51.5406 51.2684 51.3397 51.3915 51.1193C51.6508 50.6721 52.1887 50.4776 52.6813 50.6397L55.06 51.4498C55.6887 51.6637 55.9804 52.3832 55.6823 52.973C55.3517 53.6276 54.9434 54.2304 54.4702 54.7748C53.7248 55.6239 52.8369 56.2915 51.7998 56.7711C50.7628 57.2573 49.6026 57.4971 48.3063 57.4971Z" fill="#F3832D"/>
<path d="M57.0564 19.613C56.5508 19.613 56.1166 19.2306 56.0583 18.7186C55.4555 13.2288 52.9018 9.38525 48.4749 7.29173C45.137 5.71673 41.974 5.7621 41.9416 5.7621C41.3842 5.77507 40.924 5.33432 40.9175 4.77692C40.9046 4.21951 41.3453 3.75932 41.9027 3.75284C42.0518 3.75284 45.5777 3.70099 49.337 5.47692C51.5666 6.5334 53.4203 8.01118 54.8397 9.87784C56.6027 12.1917 57.6851 15.0954 58.061 18.5047C58.1194 19.0556 57.724 19.5547 57.1731 19.613C57.1277 19.6065 57.0953 19.613 57.0564 19.613Z" fill="#F3832D"/>
<path d="M57.6527 21.5899C57.4 21.5899 57.1472 21.4927 56.9592 21.3112L52.2925 16.8649C51.8907 16.4825 51.8712 15.8473 52.2601 15.4455C52.6425 15.0436 53.2777 15.0306 53.6796 15.4131L57.374 18.926L59.5712 14.6158C59.824 14.1232 60.4268 13.9223 60.9259 14.1751C61.4185 14.4279 61.6194 15.0306 61.3666 15.5297L58.5537 21.039C58.4111 21.3242 58.1388 21.5186 57.8277 21.5705C57.7694 21.5834 57.7111 21.5899 57.6527 21.5899Z" fill="#F3832D"/>
<path d="M11.5887 48.8704C12.0943 48.8704 12.5285 49.2528 12.5869 49.7648C13.1896 55.2546 15.7433 59.0981 20.1702 61.1917C23.5082 62.7667 26.6711 62.7213 26.7035 62.7213C27.2609 62.7083 27.7211 63.1491 27.7276 63.7065C27.7406 64.2639 27.2998 64.7241 26.7424 64.7305C26.5933 64.7305 23.0674 64.7824 19.3081 63.0065C17.0785 61.95 15.2248 60.4722 13.8054 58.6055C12.0424 56.2917 10.96 53.388 10.5841 49.9787C10.5257 49.4278 10.9211 48.9287 11.472 48.8704C11.5174 48.8704 11.5498 48.8704 11.5887 48.8704Z" fill="#F3832D"/>
<path d="M10.9925 46.8936C11.2453 46.8936 11.4981 46.9908 11.686 47.1723L16.3527 51.6186C16.7545 52.001 16.774 52.6361 16.3851 53.038C16.0027 53.4398 15.3675 53.4528 14.9656 53.0704L11.2712 49.5574L9.07398 53.8611C8.8212 54.3537 8.21842 54.5547 7.71935 54.3019C7.22676 54.0491 7.02583 53.4463 7.27861 52.9473L10.0916 47.438C10.2342 47.1528 10.5064 46.9584 10.8175 46.9065C10.8758 46.8936 10.9342 46.8936 10.9925 46.8936Z" fill="#F3832D"/>
</g>
</g>
<defs>
<clipPath id="clip0_2197_4931">
<rect width="70" height="70" fill="white"/>
</clipPath>
<clipPath id="clip1_2197_4931">
<rect width="70" height="70" fill="white"/>
</clipPath>
</defs>
</svg>
