<svg width="55" height="70" viewBox="0 0 55 70" fill="none" xmlns="http://www.w3.org/2000/svg">
<g clip-path="url(#clip0_2078_2351)">
<path d="M24.6606 0H36.1071V52.4286C30.244 53.5369 25.9278 53.9729 21.2577 53.9729C7.2774 53.9583 0 47.7167 0 35.7292C0 24.1792 7.71934 16.6833 19.6814 16.6833C21.5377 16.6833 22.9518 16.8293 24.6606 17.2666V0ZM25.0617 26.7149C23.7211 26.2773 22.6164 26.1315 21.2021 26.1315C15.4127 26.1315 12.0686 29.6606 12.0686 35.8453C12.0686 41.8669 15.2655 45.1918 21.1286 45.1918C22.3953 45.1918 23.4266 45.1205 25.0617 44.9017V26.7149Z" fill="#2BA977"/>
<path d="M54.8254 18.0909V44.3411C54.8254 53.3812 54.1477 57.7285 52.1589 61.4766C50.3027 65.08 47.8573 67.3522 42.8044 69.8618L32.183 64.8599C37.2359 62.5132 39.6812 60.4396 41.2429 57.2751C42.8779 54.0391 43.3935 50.291 43.3935 40.4327V18.0911L54.8254 18.0909ZM42.24 0H53.6865V11.623H42.24V0Z" fill="#2BA977"/>
</g>
<defs>
<clipPath id="clip0_2078_2351">
<rect width="55" height="70" fill="white"/>
</clipPath>
</defs>
</svg>
