<svg width="53" height="70" viewBox="0 0 53 70" fill="none" xmlns="http://www.w3.org/2000/svg">
<g clip-path="url(#clip0_2161_3794)">
<path d="M0.0275879 56.4789L8.72561 1.34634C8.83195 0.670184 9.36281 0.137167 10.0439 0.0225526C10.725 -0.0920623 11.4037 0.237682 11.7294 0.841145L20.7247 17.4605L24.3101 10.6981C24.5879 10.1753 25.1352 9.84785 25.7317 9.84785C26.3282 9.84785 26.8756 10.1753 27.1533 10.6981L51.4282 56.4789H0.0275879Z" fill="#FFA000"/>
<path d="M30.0771 35.0023L20.7204 17.4521L0.0275879 56.4786L30.0771 35.0023Z" fill="#F57C00"/>
<path d="M51.4286 56.4789L44.7665 15.6425C44.666 15.0561 44.2434 14.5744 43.6713 14.3928C43.099 14.2112 42.4728 14.3623 42.0479 14.7828L0.0275879 56.4783L23.2785 69.3943C24.7386 70.2018 26.5168 70.2018 27.9768 69.3943L51.4286 56.4789Z" fill="#FFCA28"/>
</g>
<defs>
<clipPath id="clip0_2161_3794">
<rect width="53" height="70" fill="white"/>
</clipPath>
</defs>
</svg>
