<svg width="274" height="219" viewBox="0 0 274 219" fill="none" xmlns="http://www.w3.org/2000/svg">
<path d="M135.885 2C138.748 2 141.178 3.56925 142.822 5.78809C144.07 7.47223 144.921 9.59001 145.259 11.9102C148.545 12.3669 151.47 14.2593 153.233 17.0762H153.326L153.869 18.2188C155.066 20.7388 157.611 22.3495 160.406 22.3496H225.385C227.125 20.4938 229.597 19.333 232.343 19.333C237.612 19.3332 241.881 23.6014 241.881 28.8701C241.881 31.3595 240.926 33.6251 239.365 35.3232L260.571 78.8604H271.157L270.437 81.4053C268.883 86.8909 263.942 91.3889 257.459 94.4775C250.916 97.5948 242.49 99.4404 233.351 99.4404C224.211 99.4404 215.784 97.5949 209.241 94.4775C202.759 91.3889 197.818 86.8908 196.265 81.4053L195.544 78.8604H203.444L224.893 34.8242C224.844 34.7632 224.795 34.7019 224.748 34.6396H154.69V39.2627C154.69 42.3956 153.483 45.2439 151.512 47.374L158.132 53.0439L159.618 54.3164L158.379 55.8291C148.732 67.6169 144.184 83.6169 143.384 102.828V157.991C146.942 158.145 149.781 161.081 149.781 164.677V171.113C149.781 172.665 149.25 174.092 148.363 175.228C149.254 176.427 149.781 177.912 149.781 179.521V181.096H149.789V183.096C149.789 189.203 154.741 194.155 160.849 194.155H179.058C185.366 194.155 190.479 199.269 190.479 205.577C190.479 211.885 185.366 217 179.058 217H91.6504C85.3422 217 80.2275 211.885 80.2275 205.577C80.2276 199.269 85.3423 194.155 91.6504 194.155H109.859C115.967 194.155 120.919 189.203 120.919 183.096V179.521C120.919 177.913 121.445 176.427 122.335 175.228C121.448 174.092 120.918 172.665 120.918 171.113V164.677C120.918 161.078 123.762 158.141 127.324 157.991V102.608C126.506 83.4638 121.958 67.5169 112.336 55.7598L111.098 54.2461L112.583 52.9746L119.165 47.334C117.215 45.2069 116.026 42.3729 116.025 39.2627V34.6396H47.0303C46.8498 34.8769 46.6585 35.1052 46.457 35.3242L67.6631 78.8604H78.2578L77.5371 81.4053C75.9834 86.8908 71.0431 91.3889 64.5605 94.4775C58.0177 97.5949 49.5908 99.4404 40.4512 99.4404C31.3118 99.4404 22.8856 97.5948 16.3428 94.4775C9.86014 91.3889 4.91998 86.8908 3.36621 81.4053L2.64453 78.8604H10.5205L31.9746 34.8115C30.6753 33.1818 29.8975 31.1172 29.8975 28.8701C29.8977 23.6013 34.1667 19.333 39.4355 19.333C42.1813 19.333 44.6536 20.4937 46.3936 22.3496H110.643C113.438 22.3495 115.983 20.7381 117.18 18.2178C118.922 14.5467 122.505 12.1203 126.521 11.8311C126.867 9.54183 127.714 7.45311 128.947 5.78809C130.591 3.56923 133.022 2.00003 135.885 2ZM235.095 78.8604H253.604L235.095 40.8613V78.8604ZM210.412 78.8604H228.838V41.0312L210.412 78.8604ZM42.1953 78.8604H60.6953L42.1953 40.8779V78.8604ZM17.4883 78.8604H35.9307V40.998L17.4883 78.8604Z" fill="#F3832D" stroke="#F3832D" stroke-width="4"/>
</svg>
