<svg width="70" height="70" viewBox="0 0 70 70" fill="none" xmlns="http://www.w3.org/2000/svg">
<path fill-rule="evenodd" clip-rule="evenodd" d="M34.997 3.9668C17.8625 3.9668 3.96655 17.8608 3.96655 35.0012C3.96655 48.7103 12.8577 60.3429 25.1895 64.4486C26.7422 64.7324 27.308 63.7738 27.308 62.9511C27.308 62.2138 27.2813 60.2631 27.2661 57.674C18.634 59.5486 16.8127 53.5132 16.8127 53.5132C15.401 49.9278 13.3664 48.973 13.3664 48.973C10.5487 47.049 13.5798 47.0872 13.5798 47.0872C16.6946 47.3061 18.333 50.2858 18.333 50.2858C21.1011 55.0276 25.5972 53.6579 27.3651 52.8636C27.6471 50.8593 28.4492 49.4915 29.335 48.7159C22.4442 47.931 15.1991 45.2697 15.1991 33.378C15.1991 29.9888 16.4088 27.2207 18.394 25.0508C18.074 24.2658 17.009 21.1109 18.6988 16.8378C18.6988 16.8378 21.3031 16.0033 27.2318 20.0173C29.7065 19.3296 32.3623 18.9867 35.0008 18.9734C37.6375 18.9867 40.2913 19.3296 42.7699 20.0173C48.6948 16.0033 51.2951 16.8378 51.2951 16.8378C52.9891 21.1109 51.9241 24.2658 51.6059 25.0508C53.5948 27.2207 54.7951 29.9888 54.7951 33.378C54.7951 45.3002 47.5384 47.9235 40.6266 48.6912C41.7392 49.6497 42.7318 51.5434 42.7318 54.4391C42.7318 58.5864 42.6937 61.9338 42.6937 62.9511C42.6937 63.7818 43.2538 64.7478 44.8274 64.4444C57.1499 60.3317 66.0333 48.7084 66.0333 35.0012C66.0333 17.8608 52.1374 3.9668 34.997 3.9668Z" fill="black"/>
</svg>
