<svg width="70" height="65" viewBox="0 0 70 65" fill="none" xmlns="http://www.w3.org/2000/svg">
<path d="M46.375 58.1514L49.6375 62.136C50.3375 62.9828 49.725 64.2529 48.625 64.2529H21.375C20.275 64.2529 19.675 62.9828 20.3625 62.136L23.625 58.1514H46.375Z" fill="#C12839"/>
<path d="M21.2375 61.0652C20.6875 61.8123 20.25 62.6217 20.175 63.3813C20.175 63.4062 20.175 63.4311 20.175 63.456C20 63.0451 20.025 62.5345 20.3625 62.1236L21.2375 61.0652Z" fill="#C12839"/>
<path d="M23.75 58.1514C23.55 58.2883 23.4 58.4378 23.2375 58.6245L23.625 58.1514H23.75Z" fill="#C12839"/>
<g opacity="0.2">
<path d="M35.95 58.1514C35.75 58.1763 35.6 58.1887 35.525 58.2012C34.1625 58.3132 32.8125 58.4751 31.475 58.7366C29.175 59.1973 25.9625 60.0565 24.5125 62.0738C23.9875 62.796 23.7375 63.7797 22.9 64.228C22.875 64.2404 22.85 64.2529 22.825 64.2654H21.375C20.8 64.2654 20.375 63.9291 20.175 63.4809C20.175 63.456 20.175 63.4311 20.175 63.4062C20.2375 62.6466 20.6875 61.8372 21.2375 61.0901L22.7875 59.1973C22.825 59.16 22.8625 59.1102 22.9 59.0728C22.925 59.0479 22.95 59.0106 22.975 58.9857L23.2375 58.6744C23.25 58.6619 23.25 58.6619 23.2625 58.6495C23.4125 58.4627 23.575 58.3132 23.775 58.1763H35.95V58.1514Z" fill="black"/>
</g>
<g opacity="0.5">
<path d="M22.775 59.1848L21.225 61.0775C21.6875 60.4425 22.225 59.8323 22.6625 59.3218C22.7 59.272 22.7375 59.2222 22.775 59.1848Z" fill="black"/>
</g>
<g opacity="0.5">
<path d="M22.8375 64.253C22.6875 64.3152 22.525 64.3277 22.3625 64.3402C22.025 64.3651 21.675 64.4024 21.3375 64.4273C21.125 64.4398 20.9 64.4647 20.7 64.3775C20.35 64.2405 20.175 63.8421 20.175 63.4685C20.3625 63.9168 20.8 64.253 21.375 64.253H22.8375Z" fill="black"/>
</g>
<g opacity="0.5">
<path d="M23.2125 58.6494L22.95 58.9607C23.05 58.8486 23.1375 58.749 23.2125 58.6494Z" fill="black"/>
</g>
<path d="M70 31.0677V31.1798C70 46.2095 57.7625 58.4001 42.675 58.4001H27.325C12.2375 58.4001 0 46.2095 0 31.1798V31.0677C0 30.4451 0.5 29.947 1.125 29.947H68.875C69.5 29.947 70 30.4451 70 31.0677Z" fill="#FA3A5A"/>
<path d="M69.5 36.5842C69.1625 38.3026 68.6625 39.9712 68.0125 41.5651H1.9875C1.3375 39.9712 0.8375 38.3026 0.5 36.5842H69.5Z" fill="#FFC34B"/>
<g opacity="0.2">
<path d="M36.575 58.5871H27.325C12.2375 58.5871 0 46.3965 0 31.3668V30.134H9.25V31.3668C9.25 46.3965 21.4875 58.5871 36.575 58.5871Z" fill="black"/>
</g>
<path d="M68.875 29.9473H1.125C0.5 29.9473 0 30.4453 0 31.068V31.18C0 44.5411 9.6625 55.6609 22.4125 57.9645L19.625 61.3639C19.075 62.0363 18.9625 62.9453 19.3375 63.7298C19.7125 64.5143 20.4875 64.9999 21.3625 64.9999H48.625C49.5 64.9999 50.275 64.5143 50.65 63.7298C51.025 62.9453 50.9125 62.0363 50.3625 61.3639L47.575 57.9645C60.3375 55.6609 70 44.5411 70 31.18V31.068C70 30.4453 69.5 29.9473 68.875 29.9473ZM68.1125 31.8151C68.0875 33.0229 67.9625 34.2183 67.775 35.4013H17.5C16.9875 35.4013 16.5625 35.8247 16.5625 36.3352C16.5625 36.8457 16.9875 37.2691 17.5 37.2691H67.3875C67.1 38.4147 66.7375 39.5354 66.3 40.6436C66.1625 40.5565 66 40.5067 65.825 40.5067H3.65C3.225 39.4482 2.8875 38.3649 2.6125 37.2691H12.975C13.4875 37.2691 13.9125 36.8457 13.9125 36.3352C13.9125 35.8247 13.4875 35.4013 12.975 35.4013H2.225C2.025 34.2183 1.9125 33.0229 1.8875 31.8151H68.1125ZM45.65 58.5498L48.9125 62.5344C49.0375 62.6839 49 62.8457 48.9625 62.9204C48.925 62.9952 48.8375 63.1321 48.6375 63.1321H21.375C21.175 63.1321 21.0875 63.0076 21.05 62.9204C21.0125 62.8457 20.975 62.6839 21.1 62.5344L24.3625 58.5498C24.4375 58.4626 24.4875 58.363 24.525 58.2509C25.45 58.3505 26.3875 58.3879 27.3375 58.3879H42.6875C43.6375 58.3879 44.575 58.3381 45.5 58.2509C45.525 58.363 45.575 58.4626 45.65 58.5498ZM60.675 49.1111C58.3375 51.4396 55.6125 53.2701 52.5875 54.5402C49.45 55.8601 46.1125 56.5325 42.6875 56.5325H27.325C23.8875 56.5325 20.55 55.8601 17.425 54.5402C14.4 53.2576 11.675 51.4396 9.3375 49.1111C7.35 47.1312 5.725 44.8649 4.4875 42.3745H65.5125C64.2875 44.8649 62.6625 47.1187 60.675 49.1111Z" fill="black"/>
<path d="M43.025 25.5891C43.025 26.0996 43.45 26.523 43.9625 26.523C44.475 26.523 44.9 26.0996 44.9 25.5891C44.9 23.8831 45.575 23.0862 46.425 22.09C47.35 21.0067 48.4 19.7739 48.4 17.3707C48.4 14.9674 47.35 13.7471 46.425 12.6513C45.575 11.6552 44.9 10.8582 44.9 9.1523C44.9 7.44636 45.575 6.64943 46.425 5.65326C47.35 4.56992 48.4 3.33716 48.4 0.933908C48.4 0.423372 47.975 0 47.4625 0C46.95 0 46.525 0.423372 46.525 0.933908C46.525 2.63985 45.85 3.43678 45 4.43295C44.075 5.51628 43.025 6.74904 43.025 9.1523C43.025 11.5556 44.075 12.7759 45 13.8716C45.85 14.8678 46.525 15.6648 46.525 17.3707C46.525 19.0766 45.85 19.8736 45 20.8697C44.075 21.9655 43.025 23.1858 43.025 25.5891Z" fill="black"/>
<path d="M32.3125 25.5891C32.3125 26.0996 32.7375 26.523 33.25 26.523C33.7625 26.523 34.1875 26.0996 34.1875 25.5891C34.1875 23.8831 34.8625 23.0862 35.7125 22.09C36.6375 21.0067 37.6875 19.7739 37.6875 17.3707C37.6875 14.9674 36.6375 13.7471 35.7125 12.6513C34.8625 11.6552 34.1875 10.8582 34.1875 9.1523C34.1875 7.44636 34.8625 6.64943 35.7125 5.65326C36.6375 4.56992 37.6875 3.33716 37.6875 0.933908C37.6875 0.423372 37.2625 0 36.75 0C36.2375 0 35.8125 0.423372 35.8125 0.933908C35.8125 2.63985 35.1375 3.43678 34.2875 4.43295C33.3625 5.51628 32.3125 6.74904 32.3125 9.1523C32.3125 11.5556 33.3625 12.7759 34.2875 13.8716C35.1375 14.8678 35.8125 15.6648 35.8125 17.3707C35.8125 19.0766 35.1375 19.8736 34.2875 20.8697C33.3625 21.9655 32.3125 23.1858 32.3125 25.5891Z" fill="black"/>
<path d="M21.6 25.5891C21.6 26.0996 22.025 26.523 22.5375 26.523C23.05 26.523 23.475 26.0996 23.475 25.5891C23.475 23.8831 24.15 23.0862 25 22.09C25.925 21.0067 26.975 19.7739 26.975 17.3707C26.975 14.9674 25.925 13.7471 25 12.6513C24.15 11.6552 23.475 10.8582 23.475 9.1523C23.475 7.44636 24.15 6.64943 25 5.65326C25.925 4.56992 26.975 3.33716 26.975 0.933908C26.975 0.423372 26.55 0 26.0375 0C25.525 0 25.1 0.423372 25.1 0.933908C25.1 2.63985 24.425 3.43678 23.575 4.43295C22.65 5.51628 21.6 6.74904 21.6 9.1523C21.6 11.5556 22.65 12.7759 23.575 13.8716C24.425 14.8678 25.1 15.6648 25.1 17.3707C25.1 19.0766 24.425 19.8736 23.575 20.8697C22.6375 21.9655 21.6 23.1858 21.6 25.5891Z" fill="black"/>
</svg>
