<svg width="58" height="70" viewBox="0 0 58 70" fill="none" xmlns="http://www.w3.org/2000/svg">
<path d="M41.1348 0H28.4177V14.6308H41.1348V0Z" fill="#4589FF"/>
<path d="M28.4178 26.53H41.1349V47.1645C41.193 52.1297 39.7799 57.0002 37.0752 61.1566C34.4046 65.1951 29.2493 70 19.7115 70C9.3226 70 3.26731 65.087 0 62.3947L8.02154 52.5C11.2106 55.1039 14.2823 57.2459 19.7604 57.2459C23.9081 57.2459 25.5613 55.5559 26.5298 54.082C27.8464 52.0348 28.5274 49.6406 28.4863 47.2038L28.4178 26.53Z" fill="#4589FF"/>
<path d="M21.9319 17.2937H9.21484V30.0674H21.9319V17.2937Z" fill="#4589FF"/>
<path d="M47.7967 64.0062C47.7967 66.728 46.4174 68.1921 44.4903 68.1921C42.5631 68.1921 41.3012 66.4529 41.3012 64.1438C41.3012 61.8347 42.6023 60.0071 44.5979 60.0071C46.5935 60.0071 47.7967 61.8052 47.7967 64.0062ZM42.7783 64.1143C42.7783 65.7553 43.4338 66.9638 44.5587 66.9638C45.6837 66.9638 46.3196 65.6865 46.3196 64.0161C46.3196 62.552 45.7326 61.1764 44.5587 61.1764C43.3849 61.1764 42.7783 62.5029 42.7783 64.1143Z" fill="#4589FF"/>
<path d="M50.3206 60.125V68.0644H48.912V60.125H50.3206Z" fill="#4589FF"/>
<path d="M51.8466 68.0644V60.125H53.4118L55.0944 63.397C55.5275 64.2526 55.9129 65.1318 56.2487 66.0304C56.1606 65.0478 56.1215 63.9178 56.1215 62.6601V60.125H57.4128V68.0644H55.9552L54.2531 64.7235C53.8024 63.8459 53.4007 62.9438 53.0498 62.0214C53.0498 63.004 53.1183 64.1143 53.1183 65.4801V68.0545L51.8466 68.0644Z" fill="#4589FF"/>
</svg>
