<svg width="70" height="65" viewBox="0 0 70 65" fill="none" xmlns="http://www.w3.org/2000/svg">
<path d="M22.3125 21.7912C21.95 21.7912 21.6125 21.5795 21.45 21.2309L13.575 3.29984C13.3625 2.82666 13.5875 2.27877 14.0625 2.06708C14.5375 1.8554 15.0875 2.07954 15.3 2.55272L23.175 20.4837C23.3875 20.9569 23.1625 21.5048 22.6875 21.7165C22.5625 21.7663 22.4375 21.7912 22.3125 21.7912Z" fill="#AC3542"/>
<path d="M14.4375 1.99234C14.8 1.99234 15.1375 2.20402 15.3 2.55268L23.175 20.4837C23.3875 20.9569 23.1625 21.5048 22.6875 21.7165C22.5625 21.7663 22.4375 21.7912 22.3125 21.7912C21.95 21.7912 21.6125 21.5795 21.45 21.2308L13.575 3.29981C13.3625 2.82663 13.5875 2.27874 14.0625 2.06705C14.1875 2.01724 14.3125 1.99234 14.4375 1.99234ZM14.4375 0C14.025 0 13.6375 0.0871648 13.2625 0.249042C11.775 0.896552 11.1 2.62739 11.75 4.09674L19.625 22.0278C20.0875 23.0987 21.15 23.7835 22.3125 23.7835C22.725 23.7835 23.1125 23.6964 23.4875 23.5345C24.975 22.887 25.65 21.1561 25 19.6868L17.125 1.75575C16.6625 0.684866 15.6 0 14.4375 0Z" fill="black"/>
<path d="M16.6875 24.7795C16.4 24.7795 16.1125 24.6426 15.925 24.3935L3.55 7.58318C3.25 7.17226 3.3375 6.58701 3.75 6.27571C4.1625 5.97686 4.75 6.06402 5.0625 6.47494L17.4375 23.2853C17.7375 23.6962 17.65 24.2815 17.2375 24.5928C17.075 24.7173 16.875 24.7795 16.6875 24.7795Z" fill="#AC3542"/>
<path d="M4.3125 6.10147C4.6 6.10147 4.8875 6.23844 5.075 6.48748L17.45 23.2978C17.75 23.7087 17.6625 24.294 17.25 24.6053C17.0875 24.7298 16.8875 24.7921 16.7 24.7921C16.4125 24.7921 16.125 24.6551 15.9375 24.4061L3.5625 7.59572C3.2625 7.1848 3.35 6.59955 3.7625 6.28825C3.925 6.16373 4.1125 6.10147 4.3125 6.10147ZM4.3125 4.10913C3.6875 4.10913 3.0875 4.30836 2.575 4.66948C1.9375 5.1302 1.525 5.81507 1.4125 6.5871C1.2875 7.35913 1.4875 8.13116 1.95 8.76622L14.325 25.5766C14.875 26.3237 15.7625 26.772 16.7 26.772C17.325 26.772 17.925 26.5727 18.4375 26.1992C19.7375 25.2404 20.025 23.4099 19.075 22.1149L6.7 5.30453C6.125 4.55741 5.2375 4.10913 4.3125 4.10913Z" fill="black"/>
<path d="M34.75 48.0651C44.415 48.0651 52.25 40.2601 52.25 30.6322C52.25 21.0042 44.415 13.1992 34.75 13.1992C25.085 13.1992 17.25 21.0042 17.25 30.6322C17.25 40.2601 25.085 48.0651 34.75 48.0651Z" fill="#FFA201"/>
<path d="M34.75 48.9991C24.5875 48.9991 16.3125 40.7558 16.3125 30.6322C16.3125 20.5087 24.5875 12.2654 34.75 12.2654C44.9125 12.2654 53.1875 20.5087 53.1875 30.6322C53.1875 40.7558 44.9125 48.9991 34.75 48.9991ZM34.75 14.1332C25.6125 14.1332 18.1875 21.5297 18.1875 30.6322C18.1875 39.7347 25.6125 47.1313 34.75 47.1313C43.8875 47.1313 51.3125 39.7347 51.3125 30.6322C51.3125 21.5297 43.8875 14.1332 34.75 14.1332Z" fill="black"/>
<path d="M34.75 45.8861C26.3125 45.8861 19.4375 39.0374 19.4375 30.6323C19.4375 22.2271 26.3125 15.3784 34.75 15.3784C43.1875 15.3784 50.0625 22.2271 50.0625 30.6323C50.0625 39.0374 43.1875 45.8861 34.75 45.8861ZM34.75 17.2462C27.3375 17.2462 21.3125 23.2482 21.3125 30.6323C21.3125 38.0164 27.3375 44.0183 34.75 44.0183C42.1625 44.0183 48.1875 38.0164 48.1875 30.6323C48.1875 23.2482 42.1625 17.2462 34.75 17.2462Z" fill="black"/>
<path d="M34.75 42.7731C28.025 42.7731 22.5625 37.3315 22.5625 30.6323C22.5625 23.933 28.025 18.4915 34.75 18.4915C41.475 18.4915 46.9375 23.933 46.9375 30.6323C46.9375 37.3315 41.475 42.7731 34.75 42.7731ZM34.75 20.3593C29.0625 20.3593 24.4375 24.9666 24.4375 30.6323C24.4375 36.298 29.0625 40.9052 34.75 40.9052C40.4375 40.9052 45.0625 36.298 45.0625 30.6323C45.0625 24.9666 40.4375 20.3593 34.75 20.3593Z" fill="black"/>
<path d="M48.25 55.6608C57.915 55.6608 65.75 47.8558 65.75 38.2279C65.75 28.5999 57.915 20.7949 48.25 20.7949C38.585 20.7949 30.75 28.5999 30.75 38.2279C30.75 47.8558 38.585 55.6608 48.25 55.6608Z" fill="#FFA201"/>
<path d="M48.25 56.5948C38.0875 56.5948 29.8125 48.3515 29.8125 38.2279C29.8125 28.1044 38.0875 19.8611 48.25 19.8611C58.4125 19.8611 66.6875 28.1044 66.6875 38.2279C66.6875 48.3515 58.4125 56.5948 48.25 56.5948ZM48.25 21.7289C39.1125 21.7289 31.6875 29.1255 31.6875 38.2279C31.6875 47.3304 39.1125 54.727 48.25 54.727C57.3875 54.727 64.8125 47.3304 64.8125 38.2279C64.8125 29.1255 57.3875 21.7289 48.25 21.7289Z" fill="black"/>
<path d="M48.25 53.4818C39.8125 53.4818 32.9375 46.6331 32.9375 38.228C32.9375 29.8228 39.8125 22.9741 48.25 22.9741C56.6875 22.9741 63.5625 29.8228 63.5625 38.228C63.5625 46.6331 56.6875 53.4818 48.25 53.4818ZM48.25 24.8419C40.8375 24.8419 34.8125 30.8439 34.8125 38.228C34.8125 45.6121 40.8375 51.614 48.25 51.614C55.6625 51.614 61.6875 45.6121 61.6875 38.228C61.6875 30.8439 55.6625 24.8419 48.25 24.8419Z" fill="black"/>
<path d="M48.25 50.3688C41.525 50.3688 36.0625 44.9272 36.0625 38.228C36.0625 31.5287 41.525 26.0872 48.25 26.0872C54.975 26.0872 60.4375 31.5287 60.4375 38.228C60.4375 44.9272 54.975 50.3688 48.25 50.3688ZM48.25 27.955C42.5625 27.955 37.9375 32.5623 37.9375 38.228C37.9375 43.8937 42.5625 48.5009 48.25 48.5009C53.9375 48.5009 58.5625 43.8937 58.5625 38.228C58.5625 32.5623 53.9375 27.955 48.25 27.955Z" fill="black"/>
<path d="M21.25 55.6608C30.915 55.6608 38.75 47.8558 38.75 38.2279C38.75 28.5999 30.915 20.7949 21.25 20.7949C11.585 20.7949 3.75 28.5999 3.75 38.2279C3.75 47.8558 11.585 55.6608 21.25 55.6608Z" fill="#FFA201"/>
<path d="M21.25 56.5948C11.0875 56.5948 2.8125 48.3515 2.8125 38.2279C2.8125 28.1044 11.0875 19.8611 21.25 19.8611C31.4125 19.8611 39.6875 28.1044 39.6875 38.2279C39.6875 48.3515 31.4125 56.5948 21.25 56.5948ZM21.25 21.7289C12.1125 21.7289 4.6875 29.1255 4.6875 38.2279C4.6875 47.3304 12.1125 54.727 21.25 54.727C30.3875 54.727 37.8125 47.3304 37.8125 38.2279C37.8125 29.1255 30.3875 21.7289 21.25 21.7289Z" fill="black"/>
<path d="M21.25 53.4818C12.8125 53.4818 5.9375 46.6331 5.9375 38.228C5.9375 29.8228 12.8125 22.9741 21.25 22.9741C29.6875 22.9741 36.5625 29.8228 36.5625 38.228C36.5625 46.6331 29.6875 53.4818 21.25 53.4818ZM21.25 24.8419C13.8375 24.8419 7.8125 30.8439 7.8125 38.228C7.8125 45.6121 13.8375 51.614 21.25 51.614C28.6625 51.614 34.6875 45.6121 34.6875 38.228C34.6875 30.8439 28.6625 24.8419 21.25 24.8419Z" fill="black"/>
<path d="M21.25 50.3688C14.525 50.3688 9.0625 44.9272 9.0625 38.228C9.0625 31.5287 14.525 26.0872 21.25 26.0872C27.975 26.0872 33.4375 31.5287 33.4375 38.228C33.4375 44.9272 27.975 50.3688 21.25 50.3688ZM21.25 27.955C15.5625 27.955 10.9375 32.5623 10.9375 38.228C10.9375 43.8937 15.5625 48.5009 21.25 48.5009C26.9375 48.5009 31.5625 43.8937 31.5625 38.228C31.5625 32.5623 26.9375 27.955 21.25 27.955Z" fill="black"/>
<path d="M46.375 57.9646L49.6375 61.9493C50.3375 62.796 49.725 64.0661 48.625 64.0661H21.375C20.275 64.0661 19.675 62.796 20.3625 61.9493L23.625 57.9646H46.375Z" fill="#C12839"/>
<path d="M21.2375 60.8784C20.6875 61.6255 20.25 62.4349 20.175 63.1945C20.175 63.2194 20.175 63.2443 20.175 63.2692C20 62.8583 20.025 62.3478 20.3625 61.9368L21.2375 60.8784Z" fill="#C12839"/>
<path d="M23.75 57.9646C23.55 58.1016 23.4 58.251 23.2375 58.4378L23.625 57.9646H23.75Z" fill="#C12839"/>
<g opacity="0.2">
<path d="M35.95 57.9646C35.75 57.9895 35.6 58.002 35.525 58.0144C34.1625 58.1265 32.8125 58.2884 31.475 58.5499C29.175 59.0106 25.9625 59.8698 24.5125 61.887C23.9875 62.6092 23.7375 63.5929 22.9 64.0412C22.875 64.0537 22.85 64.0661 22.825 64.0786H21.3625C20.7875 64.0786 20.3625 63.7424 20.1625 63.2941C20.1625 63.2692 20.1625 63.2443 20.1625 63.2194C20.225 62.4598 20.675 61.6504 21.225 60.9033L22.775 59.0106C22.8125 58.9732 22.85 58.9234 22.8875 58.8861C22.9125 58.8612 22.9375 58.8238 22.9625 58.7989L23.225 58.4876C23.2375 58.4751 23.2375 58.4751 23.25 58.4627C23.4 58.2759 23.5625 58.1265 23.7625 57.9895H35.95V57.9646Z" fill="black"/>
</g>
<g opacity="0.5">
<path d="M22.775 58.998L21.225 60.8908C21.6875 60.2557 22.225 59.6456 22.6625 59.135C22.7 59.0852 22.7375 59.0354 22.775 58.998Z" fill="black"/>
</g>
<g opacity="0.5">
<path d="M22.8375 64.066C22.6875 64.1282 22.525 64.1407 22.3625 64.1531C22.025 64.178 21.675 64.2154 21.3375 64.2403C21.125 64.2528 20.9 64.2777 20.7 64.1905C20.35 64.0535 20.175 63.6551 20.175 63.2815C20.3625 63.7298 20.8 64.066 21.375 64.066H22.8375Z" fill="black"/>
</g>
<g opacity="0.5">
<path d="M23.2125 58.4626L22.9625 58.7739C23.05 58.6619 23.125 58.5623 23.2125 58.4626Z" fill="black"/>
</g>
<path d="M70 31.068V31.18C70 46.2097 57.7625 58.4003 42.675 58.4003H27.325C12.2375 58.4003 0 46.2097 0 31.18V31.068C0 30.4453 0.5 29.9473 1.125 29.9473H68.875C69.5 29.9473 70 30.4453 70 31.068Z" fill="#FA3A5A"/>
<path d="M69.5 36.3975C69.1625 38.1159 68.6625 39.7844 68.0125 41.3783H1.9875C1.3375 39.7844 0.8375 38.1159 0.5 36.3975H69.5Z" fill="#FFC34B"/>
<g opacity="0.2">
<path d="M36.575 58.4003H27.325C12.2375 58.4003 0 46.2097 0 31.18C0 30.4992 0.551924 29.9473 1.23276 29.9473H9.25V31.18C9.25 46.2097 21.4875 58.4003 36.575 58.4003Z" fill="black"/>
</g>
<path d="M68.875 29.9473H1.125C0.5 29.9473 0 30.4453 0 31.068V31.18C0 44.5411 9.6625 55.6609 22.4125 57.9645L19.625 61.3639C19.075 62.0363 18.9625 62.9453 19.3375 63.7298C19.7125 64.5143 20.4875 64.9999 21.3625 64.9999H48.625C49.5 64.9999 50.275 64.5143 50.65 63.7298C51.025 62.9453 50.9125 62.0363 50.3625 61.3639L47.5875 57.9645C60.3375 55.6609 70 44.5411 70 31.18V31.068C70 30.4453 69.5 29.9473 68.875 29.9473ZM68.1125 31.8151C68.0875 33.0229 67.9625 34.2183 67.775 35.4013H17.5C16.9875 35.4013 16.5625 35.8247 16.5625 36.3352C16.5625 36.8457 16.9875 37.2691 17.5 37.2691H67.3875C67.1 38.4147 66.7375 39.5354 66.3 40.6436C66.1625 40.5565 66 40.5067 65.825 40.5067H3.65C3.225 39.4482 2.8875 38.3649 2.6125 37.2691H12.975C13.4875 37.2691 13.9125 36.8457 13.9125 36.3352C13.9125 35.8247 13.4875 35.4013 12.975 35.4013H2.225C2.025 34.2183 1.9125 33.0229 1.8875 31.8151H68.1125ZM45.65 58.5498L48.9125 62.5344C49.0375 62.6839 49 62.8457 48.9625 62.9204C48.925 62.9952 48.8375 63.1321 48.6375 63.1321H21.375C21.175 63.1321 21.0875 63.0076 21.05 62.9204C21.0125 62.8457 20.975 62.6839 21.1 62.5344L24.3625 58.5498C24.4375 58.4626 24.4875 58.363 24.525 58.2509C25.45 58.3505 26.3875 58.3879 27.3375 58.3879H42.6875C43.6375 58.3879 44.575 58.3381 45.5 58.2509C45.525 58.363 45.575 58.4626 45.65 58.5498ZM60.675 49.1111C58.3375 51.4396 55.6125 53.2701 52.5875 54.5402C49.45 55.8601 46.1125 56.5325 42.6875 56.5325H27.325C23.8875 56.5325 20.55 55.8601 17.425 54.5402C14.4 53.2576 11.675 51.4396 9.3375 49.1111C7.35 47.1312 5.725 44.8649 4.4875 42.3745H65.5125C64.2875 44.8649 62.6625 47.1187 60.675 49.1111Z" fill="black"/>
</svg>
