<svg width="70" height="70" viewBox="0 0 70 70" fill="none" xmlns="http://www.w3.org/2000/svg">
<g clip-path="url(#clip0_2197_4543)">
<path d="M53.3887 44.398H15.6665L18.0361 38.1058L19.4964 34.2279L19.9112 33.126L20.0966 32.6334L20.1614 32.4682L20.2405 32.2595L25.1016 19.3561L31.6122 2.05382C32.6428 -0.684606 36.4085 -0.684606 37.4417 2.05382L43.9575 19.3555L45.5222 23.5101L45.9914 24.7546L48.8173 32.2588L48.9586 32.6328L49.4123 33.8442L53.3887 44.398Z" fill="#FF9600"/>
<path d="M46.2234 25.3715C46.0447 25.3348 45.8611 25.3285 45.6803 25.3527C44.8143 25.472 44.1792 26.3301 43.5641 27.1572C43.1311 27.7405 42.5918 28.4671 42.212 28.5021C41.8445 28.5345 41.1951 27.9252 40.674 27.4359C39.9195 26.7229 39.1411 25.9931 38.2557 26.0326C37.3827 26.0715 36.6755 26.8674 35.9911 27.6374C35.5089 28.1786 34.9093 28.8527 34.5269 28.8527C34.1445 28.8527 33.545 28.1786 33.0628 27.6374C32.3783 26.8674 31.6712 26.0715 30.7981 26.0326C29.9115 25.9931 29.1343 26.7255 28.3799 27.4359C27.8614 27.9252 27.21 28.5377 26.8418 28.5021C26.4607 28.4697 25.926 27.7405 25.4898 27.1572C24.8747 26.3275 24.2395 25.472 23.3736 25.3501C23.1928 25.3259 23.0092 25.3322 22.8304 25.3689L22.2024 27.0366C22.5913 26.7631 22.9659 26.5485 23.2116 26.5829C23.5817 26.6347 24.1067 27.3419 24.5286 27.9116C25.1644 28.7697 25.8249 29.6571 26.7323 29.7413C27.6306 29.8236 28.4259 29.0763 29.1953 28.353C29.7138 27.8649 30.3619 27.2596 30.743 27.2751C31.1157 27.292 31.7004 27.9492 32.169 28.4768C32.8767 29.2734 33.6092 30.0972 34.5243 30.0972C35.4395 30.0972 36.1719 29.274 36.8797 28.4768C37.3496 27.9492 37.9342 27.292 38.3056 27.2751C38.688 27.2583 39.3349 27.8649 39.8534 28.353C40.6221 29.0763 41.4167 29.8236 42.3164 29.7413C43.2277 29.6571 43.8862 28.7691 44.5201 27.9116C44.942 27.3419 45.467 26.6347 45.8371 26.5829C46.0828 26.5485 46.4593 26.7631 46.8463 27.0366L46.2234 25.3715Z" fill="#ED1C24"/>
<path d="M53.3887 44.3979H15.6665L18.0361 38.1057L19.4964 34.2278L19.9112 33.126C27.9016 36.0426 38.3134 36.4853 45.9927 24.7551L48.8186 32.2594L49.4156 33.8448L53.3887 44.3979Z" fill="#994A04"/>
<path d="M70 44.3979V48.2078C70.0004 49.2407 69.9335 50.2726 69.7997 51.2968C69.725 51.8642 69.6306 52.4246 69.5165 52.9781C67.5267 62.6472 59.6141 69.8702 50.1563 69.8702H19.8437C10.1947 69.8702 2.15445 62.3517 0.370095 52.3896C0.272441 51.8465 0.194015 51.2964 0.134817 50.7394C0.0446078 49.8986 -0.000395255 49.0535 2.61506e-06 48.2078V44.3979H70Z" fill="#FFC226"/>
<path d="M69.9999 44.3979V48.2078C69.9999 48.2881 69.9999 48.3679 69.9999 48.4489V48.6154L69.996 48.7943C69.9926 48.9179 69.9887 49.0417 69.9844 49.1657C69.9706 49.4976 69.9502 49.8273 69.9234 50.1548C69.9196 50.2086 69.915 50.263 69.9098 50.3168C69.9098 50.3324 69.9098 50.3479 69.906 50.3635C69.9008 50.4199 69.8956 50.4776 69.8898 50.534C69.8839 50.5904 69.8774 50.6636 69.8703 50.7252C69.8658 50.7718 69.8606 50.8179 69.8554 50.8645C69.8394 51.0084 69.8219 51.1519 69.8029 51.2949C69.7281 51.8622 69.6337 52.4227 69.5197 52.9762C69.4652 53.2393 69.4067 53.5003 69.344 53.7592C69.3246 53.8382 69.3051 53.9167 69.285 53.9957C69.2604 54.0917 69.2358 54.1902 69.2098 54.2842C69.1839 54.3781 69.158 54.4786 69.1314 54.5713C69.1048 54.664 69.077 54.7618 69.0491 54.8565C69.0212 54.9511 68.9927 55.0464 68.9635 55.1404C68.9298 55.2514 68.8948 55.3616 68.8586 55.4709C68.8378 55.5357 68.8164 55.6005 68.7937 55.6654L68.7665 55.7464C68.6762 56.0121 68.5814 56.2746 68.482 56.5339C68.4535 56.611 68.4236 56.6881 68.3925 56.7646C68.3763 56.8074 68.3595 56.8495 68.342 56.8942C68.3154 56.9591 68.2888 57.0271 68.261 57.0932C68.2331 57.1593 68.2 57.241 68.1689 57.3136C68.1145 57.4432 68.0594 57.5683 68.0023 57.6947C67.9764 57.753 67.9505 57.8107 67.9239 57.8684L67.9103 57.8989C67.876 57.9741 67.841 58.0486 67.806 58.1231L67.7885 58.1601C67.7496 58.2411 67.71 58.3228 67.6705 58.4038C67.631 58.4848 67.5985 58.5496 67.5622 58.6229L67.4521 58.8393C67.3631 59.0122 67.2719 59.1829 67.1785 59.3514C67.152 59.4006 67.1247 59.4499 67.0969 59.4985C67.0586 59.5672 67.0204 59.6353 66.9809 59.7033C66.9031 59.8388 66.824 59.9742 66.743 60.1078C63.1944 65.9878 57.0901 69.8702 50.1562 69.8702H19.8436C12.9085 69.8702 6.80679 65.9878 3.25883 60.1065C3.17587 59.9682 3.0942 59.8293 3.01383 59.6897C2.97364 59.6197 2.93411 59.5497 2.89457 59.4791L2.80513 59.3177C2.75716 59.2302 2.7092 59.1414 2.66253 59.0532C2.62429 58.9806 2.5867 58.9093 2.54976 58.8374C2.51281 58.7655 2.47522 58.6929 2.43892 58.6203C2.40263 58.5477 2.36633 58.4744 2.33068 58.4012C2.16087 58.0555 1.99991 57.704 1.84781 57.3467C1.80957 57.2566 1.77198 57.1671 1.73503 57.0777C1.69809 56.9882 1.66115 56.8968 1.6255 56.8067C1.58985 56.7167 1.5542 56.6246 1.5192 56.5332C1.48939 56.4554 1.45957 56.377 1.43105 56.2986C1.39216 56.1936 1.35392 56.0886 1.31698 55.9823C1.29494 55.9214 1.2742 55.8605 1.25216 55.7989C1.21976 55.7062 1.18735 55.6129 1.15818 55.5195L1.10763 55.364C1.08365 55.2901 1.06031 55.2155 1.03763 55.1417C1.00846 55.049 0.98059 54.9556 0.953368 54.8623C0.953171 54.8595 0.953171 54.8567 0.953368 54.8539C0.930034 54.7742 0.906701 54.6957 0.884664 54.6167C0.853553 54.5071 0.819849 54.3963 0.793923 54.2861C0.767997 54.1902 0.743368 54.0917 0.718738 53.9977C0.701886 53.9329 0.685682 53.8648 0.669479 53.7993C0.653275 53.7339 0.637719 53.6697 0.622812 53.6049C0.527318 53.2043 0.443059 52.7992 0.370034 52.3896C0.27238 51.8465 0.193954 51.2964 0.134757 50.7394C0.126331 50.6623 0.118553 50.5839 0.111423 50.5067C0.104942 50.4419 0.0991084 50.3836 0.0939232 50.3214C0.0835529 50.2092 0.0744788 50.0965 0.066701 49.9837C0.0608677 49.9189 0.0563307 49.8541 0.0524418 49.7892C0.0485529 49.7244 0.0427195 49.6467 0.0394788 49.5754C0.0336455 49.4833 0.0291084 49.3913 0.0252195 49.2992C0.0248979 49.2954 0.0248979 49.2915 0.0252195 49.2876C0.0252195 49.2228 0.0187381 49.1515 0.0167936 49.0834C0.0116084 48.9447 0.00771955 48.8056 0.00512695 48.666C0.00512695 48.655 0.00512695 48.6453 0.00512695 48.6349C0.00512695 48.5701 0.00512695 48.5111 0.00512695 48.4489C0.00512695 48.3685 0.00512695 48.2881 0.00512695 48.2084V44.3979H69.9999Z" fill="#FF9600"/>
<path d="M69.9999 44.3979V48.2078C69.9999 48.2881 69.9999 48.3679 69.9999 48.4489V48.6154L69.996 48.7943C69.9928 48.9188 69.9889 49.0419 69.9844 49.1657C69.9706 49.4976 69.9502 49.8273 69.9234 50.1548C69.9196 50.2086 69.915 50.263 69.9098 50.3168C69.9098 50.3324 69.9098 50.3479 69.906 50.3635C69.9008 50.4199 69.8956 50.4776 69.8898 50.534C69.8839 50.5904 69.8774 50.6636 69.8703 50.7252C69.8658 50.7718 69.8606 50.8179 69.8554 50.8645C69.8394 51.0084 69.8219 51.1519 69.8029 51.2949C69.7281 51.8622 69.6337 52.4227 69.5197 52.9762C69.4652 53.2393 69.4067 53.5003 69.344 53.7592C69.3246 53.8382 69.3051 53.9167 69.285 53.9957C69.2604 54.0917 69.2358 54.1902 69.2098 54.2842C69.1839 54.3781 69.158 54.4786 69.1314 54.5713C69.1048 54.664 69.077 54.7618 69.0491 54.8565C69.0212 54.9511 68.9927 55.0464 68.9635 55.1404C68.9298 55.2514 68.8948 55.3616 68.8586 55.4709C68.8378 55.5357 68.8164 55.6005 68.7937 55.6654L68.7665 55.7464C68.6762 56.0121 68.5814 56.2746 68.482 56.5339C68.4528 56.611 68.423 56.6881 68.3925 56.7646C68.3763 56.8074 68.3595 56.8495 68.342 56.8942C68.3154 56.9591 68.2888 57.0271 68.261 57.0932C68.2331 57.1593 68.2 57.241 68.1689 57.3136C68.1145 57.4432 68.0594 57.5683 68.0023 57.6947C67.9764 57.753 67.9505 57.8107 67.9239 57.8684L67.9103 57.8989C67.876 57.9741 67.841 58.0486 67.806 58.1231L67.7885 58.1601C67.7496 58.2411 67.71 58.3228 67.6705 58.4038C67.631 58.4848 67.5985 58.5496 67.5622 58.6229L67.4521 58.8393C67.3631 59.0122 67.2719 59.1829 67.1785 59.3514C67.152 59.4006 67.1247 59.4499 67.0969 59.4985C67.0586 59.5672 67.0204 59.6353 66.9809 59.7033C66.9031 59.8388 66.824 59.9742 66.743 60.1078C63.5657 61.4172 60.1624 62.0904 56.7259 62.0892H13.276C9.83938 62.0897 6.43608 61.4161 3.25883 60.1065C3.17587 59.9682 3.0942 59.8293 3.01383 59.6897C2.97364 59.6197 2.93411 59.5497 2.89457 59.4791L2.80513 59.3177C2.75716 59.2302 2.7092 59.1414 2.66253 59.0532C2.62429 58.9806 2.5867 58.9093 2.54976 58.8374C2.51281 58.7655 2.47522 58.6929 2.43892 58.6203C2.40263 58.5477 2.36633 58.4744 2.33068 58.4012C2.16087 58.0555 1.99991 57.704 1.84781 57.3467C1.80957 57.2566 1.77198 57.1671 1.73503 57.0777C1.69809 56.9882 1.66115 56.8968 1.6255 56.8067C1.58985 56.7167 1.5542 56.6246 1.5192 56.5332C1.48939 56.4554 1.45957 56.377 1.43105 56.2986C1.39216 56.1936 1.35392 56.0886 1.31698 55.9823C1.29494 55.9214 1.2742 55.8605 1.25216 55.7989C1.21976 55.7062 1.18735 55.6129 1.15818 55.5195L1.10763 55.364C1.08365 55.2901 1.06031 55.2155 1.03763 55.1417C1.00846 55.049 0.98059 54.9556 0.953368 54.8623C0.953171 54.8595 0.953171 54.8567 0.953368 54.8539C0.930034 54.7742 0.906701 54.6957 0.884664 54.6167C0.853553 54.5071 0.819849 54.3963 0.793923 54.2861C0.767997 54.1902 0.743368 54.0917 0.718738 53.9977C0.701886 53.9329 0.685682 53.8648 0.669479 53.7993C0.653275 53.7339 0.637719 53.6697 0.622812 53.6049C0.527318 53.2043 0.443059 52.7992 0.370034 52.3896C0.27238 51.8465 0.193954 51.2964 0.134757 50.7394C0.126331 50.6623 0.118553 50.5839 0.111423 50.5067C0.104942 50.4419 0.0991084 50.3836 0.0939232 50.3214C0.0835529 50.2092 0.0744788 50.0965 0.066701 49.9837C0.0608677 49.9189 0.0563307 49.8541 0.0524418 49.7892C0.0485529 49.7244 0.0427195 49.6467 0.0394788 49.5754C0.0336455 49.4833 0.0291084 49.3913 0.0252195 49.2992C0.0248979 49.2954 0.0248979 49.2915 0.0252195 49.2876C0.0252195 49.2228 0.0187381 49.1515 0.0167936 49.0834C0.0116084 48.9447 0.00771955 48.8056 0.00512695 48.666C0.00512695 48.655 0.00512695 48.6453 0.00512695 48.6349C0.00512695 48.5701 0.00512695 48.5111 0.00512695 48.4489C0.00512695 48.3685 0.00512695 48.2881 0.00512695 48.2084V44.3979H69.9999Z" fill="#FFC226"/>
<path d="M8.30549 58.9858C6.77457 58.8532 5.24451 58.7071 3.71531 58.5477C3.25383 58.5006 2.79321 58.4517 2.33346 58.4012C1.64492 56.9931 1.10428 55.5173 0.720215 53.9977C0.930215 53.6917 1.13957 53.3856 1.34827 53.0792C2.23234 51.7829 3.10756 50.483 3.97392 49.1793C4.25781 48.7529 4.86707 48.8151 5.07253 49.2928C5.70037 50.7507 6.33707 52.2064 6.98262 53.66C7.62818 55.1136 8.28216 56.565 8.94457 58.0142C9.1617 58.49 8.80781 59.0305 8.30549 58.9858Z" fill="#0080FF"/>
<path d="M24.279 50.6104C24.3339 50.5101 24.4156 50.427 24.515 50.3704C24.6143 50.3138 24.7275 50.286 24.8417 50.2899C24.956 50.2939 25.0669 50.3295 25.1621 50.3929C25.2573 50.4562 25.3331 50.5448 25.3809 50.6487C26.0899 52.0603 26.8081 53.4694 27.5353 54.8759C28.2625 56.2824 28.9986 57.6867 29.7436 59.0888C29.9879 59.5477 29.6664 60.1116 29.1602 60.1019C27.6258 60.0729 26.0919 60.0321 24.5584 59.9794C23.0249 59.9267 21.4909 59.8619 19.9565 59.785C19.4536 59.7597 19.1645 59.175 19.4348 58.7337C20.2622 57.3864 21.0791 56.0358 21.8854 54.6821C22.6917 53.3283 23.4896 51.9711 24.279 50.6104Z" fill="#0080FF"/>
<path d="M44.6185 50.6487C44.6663 50.5448 44.742 50.4562 44.8372 50.3929C44.9324 50.3295 45.0433 50.2939 45.1576 50.2899C45.2719 50.286 45.385 50.3138 45.4844 50.3704C45.5838 50.427 45.6655 50.5101 45.7203 50.6104C46.5094 51.9711 47.3072 53.3283 48.114 54.6821C48.9207 56.0358 49.7361 57.3866 50.5601 58.7343C50.8303 59.1757 50.5413 59.7603 50.0383 59.7856C48.5056 59.8616 46.9717 59.9265 45.4365 59.98C43.9012 60.0336 42.3673 60.0745 40.8346 60.1025C40.331 60.1123 40.0095 59.5484 40.2513 59.0895C40.9962 57.6882 41.7323 56.2839 42.4595 54.8765C43.1867 53.4692 43.9064 52.0599 44.6185 50.6487Z" fill="#0080FF"/>
<path d="M69.2819 53.9976C68.898 55.5178 68.3567 56.9938 67.6667 58.4018C67.2061 58.4519 66.7448 58.5005 66.2829 58.5476C64.7533 58.7057 63.2232 58.8518 61.6927 58.9857C61.1904 59.0305 60.8365 58.4899 61.0543 58.0135C61.718 56.5643 62.3726 55.1128 63.0182 53.6593C63.6637 52.2057 64.3004 50.7499 64.9283 49.292C65.1337 48.8143 65.743 48.7521 66.0301 49.1786C66.8965 50.4827 67.7715 51.7826 68.6551 53.0785C68.863 53.384 69.0719 53.6904 69.2819 53.9976Z" fill="#0080FF"/>
<path d="M69.9811 49.1677C69.9577 49.7398 69.9145 50.306 69.8514 50.8665C68.2713 49.1191 66.7131 47.3589 65.177 45.586C62.3152 50.8036 59.3121 55.9778 56.1677 61.1085C52.3514 56.648 48.6704 52.1189 45.1246 47.5214C41.8527 51.9443 38.4547 56.3109 34.9305 60.6211C31.4474 56.304 28.0884 51.9301 24.8537 47.4993C21.3265 51.7011 17.6753 55.838 13.9 59.9101C10.7431 55.1613 7.71693 50.3663 4.82143 45.5251C3.26588 47.1368 1.69001 48.7356 0.093839 50.3214C0.0445797 49.7756 0.0147649 49.2236 0.00439453 48.6654C1.42125 47.2537 2.82168 45.8312 4.20569 44.3979H5.54606C8.26828 48.9415 11.1037 53.445 14.0524 57.9086C17.7961 53.8495 21.4171 49.7229 24.9153 45.529C28.1306 49.958 31.4705 54.3321 34.935 58.6514C38.4515 54.3304 41.8413 49.9493 45.1045 45.5082C48.6045 50.0712 52.2395 54.5689 56.0096 59.0014C58.9539 54.1748 61.7723 49.307 64.4647 44.3979H65.761C67.1493 45.9967 68.556 47.5866 69.9811 49.1677Z" fill="#007821"/>
<path d="M70 44.3979V48.2078C70 48.2881 70 48.3679 70 48.4489V48.6154L69.9961 48.7943C69.9929 48.9188 69.989 49.0419 69.9845 49.1657C69.9706 49.4976 69.9503 49.8273 69.9235 50.1548C69.9196 50.2086 69.9151 50.263 69.9099 50.3168C69.9099 50.3324 69.9099 50.3479 69.906 50.3635C69.9009 50.4199 69.8957 50.4776 69.8898 50.534C69.884 50.5904 69.8775 50.6636 69.8704 50.7252C69.8659 50.7718 69.8607 50.8179 69.8555 50.8645C69.8395 51.0084 69.822 51.1519 69.803 51.2949C69.7282 51.8622 69.6338 52.4227 69.5197 52.9762C69.4653 53.2393 69.4067 53.5003 69.3441 53.7592C69.3246 53.8382 69.3052 53.9167 69.2851 53.9957C69.2605 54.0917 69.2359 54.1902 69.2099 54.2842C69.184 54.3781 69.1581 54.4786 69.1315 54.5713C69.1049 54.664 69.0771 54.7618 69.0492 54.8565C69.0213 54.9511 68.9928 55.0464 68.9636 55.1404C68.9299 55.2514 68.8949 55.3616 68.8586 55.4709C68.8379 55.5357 68.8165 55.6005 68.7938 55.6654L68.7666 55.7464C68.6763 56.0121 68.5814 56.2746 68.4821 56.5339C68.4535 56.611 68.4237 56.6881 68.3926 56.7646C68.3764 56.8074 68.3596 56.8495 68.3421 56.8942C68.3155 56.9591 68.2889 57.0271 68.261 57.0932C68.2332 57.1593 68.2001 57.241 68.169 57.3136C68.1146 57.4432 68.0595 57.5683 68.0024 57.6947C67.9765 57.753 67.9506 57.8107 67.924 57.8684L67.9104 57.8989C67.876 57.9741 67.841 58.0486 67.806 58.1231L67.7885 58.1601C67.7496 58.2411 67.7101 58.3228 67.6706 58.4038C67.631 58.4848 67.5986 58.5496 67.5623 58.6229L67.4521 58.8393C67.3631 59.0122 67.272 59.1829 67.1786 59.3514C67.1521 59.4006 67.1248 59.4499 67.097 59.4985C67.0587 59.5672 67.0205 59.6353 66.9809 59.7033C66.9032 59.8388 66.8241 59.9742 66.7431 60.1078C63.1945 65.9878 57.0902 69.8702 50.1563 69.8702H40.5093C47.0284 67.848 51.7222 65.1277 55.066 62.0872C61.2234 56.4879 62.8114 49.8042 62.8075 44.3979H70Z" fill="#994A04"/>
<path d="M12.5882 52.3578C13.1509 52.3578 13.6071 51.8578 13.6071 51.241C13.6071 50.6243 13.1509 50.1243 12.5882 50.1243C12.0255 50.1243 11.5693 50.6243 11.5693 51.241C11.5693 51.8578 12.0255 52.3578 12.5882 52.3578Z" fill="#FF0000"/>
<path d="M16.056 52.3578C16.6187 52.3578 17.0749 51.8578 17.0749 51.241C17.0749 50.6243 16.6187 50.1243 16.056 50.1243C15.4933 50.1243 15.0371 50.6243 15.0371 51.241C15.0371 51.8578 15.4933 52.3578 16.056 52.3578Z" fill="#FF0000"/>
<path d="M14.3221 55.0614C14.8848 55.0614 15.341 54.5614 15.341 53.9446C15.341 53.3279 14.8848 52.8279 14.3221 52.8279C13.7594 52.8279 13.3032 53.3279 13.3032 53.9446C13.3032 54.5614 13.7594 55.0614 14.3221 55.0614Z" fill="#FF0000"/>
<path d="M33.2642 52.3578C33.827 52.3578 34.2831 51.8578 34.2831 51.241C34.2831 50.6243 33.827 50.1243 33.2642 50.1243C32.7015 50.1243 32.2454 50.6243 32.2454 51.241C32.2454 51.8578 32.7015 52.3578 33.2642 52.3578Z" fill="#FF0000"/>
<path d="M36.7318 52.3578C37.2945 52.3578 37.7507 51.8578 37.7507 51.241C37.7507 50.6243 37.2945 50.1243 36.7318 50.1243C36.1691 50.1243 35.7129 50.6243 35.7129 51.241C35.7129 51.8578 36.1691 52.3578 36.7318 52.3578Z" fill="#FF0000"/>
<path d="M34.9981 55.0614C35.5609 55.0614 36.017 54.5614 36.017 53.9446C36.017 53.3279 35.5609 52.8279 34.9981 52.8279C34.4354 52.8279 33.9792 53.3279 33.9792 53.9446C33.9792 54.5614 34.4354 55.0614 34.9981 55.0614Z" fill="#FF0000"/>
<path d="M54.005 52.3578C54.5677 52.3578 55.0239 51.8578 55.0239 51.241C55.0239 50.6243 54.5677 50.1243 54.005 50.1243C53.4423 50.1243 52.9861 50.6243 52.9861 51.241C52.9861 51.8578 53.4423 52.3578 54.005 52.3578Z" fill="#FF0000"/>
<path d="M57.4725 52.3578C58.0352 52.3578 58.4914 51.8578 58.4914 51.241C58.4914 50.6243 58.0352 50.1243 57.4725 50.1243C56.9098 50.1243 56.4536 50.6243 56.4536 51.241C56.4536 51.8578 56.9098 52.3578 57.4725 52.3578Z" fill="#FF0000"/>
<path d="M55.7389 55.0614C56.3016 55.0614 56.7577 54.5614 56.7577 53.9446C56.7577 53.3279 56.3016 52.8279 55.7389 52.8279C55.1761 52.8279 54.72 53.3279 54.72 53.9446C54.72 54.5614 55.1761 55.0614 55.7389 55.0614Z" fill="#FF0000"/>
</g>
<defs>
<clipPath id="clip0_2197_4543">
<rect width="70" height="70" fill="white"/>
</clipPath>
</defs>
</svg>
