<svg width="70" height="63" viewBox="0 0 70 63" fill="none" xmlns="http://www.w3.org/2000/svg">
<path d="M34.9815 37.4294C38.4258 37.4294 41.218 34.6361 41.218 31.1903C41.218 27.7445 38.4258 24.9512 34.9815 24.9512C31.5373 24.9512 28.7451 27.7445 28.7451 31.1903C28.7451 34.6361 31.5373 37.4294 34.9815 37.4294Z" fill="#46C9ED"/>
<path d="M69.9696 31.1912C69.9696 26.2912 64.2199 22.0303 55.276 19.4738C57.5272 10.4347 56.7362 3.31296 52.4772 0.878177C48.2182 -1.58704 41.6775 1.30426 34.9848 7.75644C28.292 1.27383 21.7514 -1.58704 17.4924 0.878177C13.9635 2.91731 12.6554 8.09122 13.8418 15.4564C14.0548 16.7651 14.359 18.1043 14.6936 19.5043C5.74967 22.0608 0 26.3217 0 31.2217C0 36.1217 5.74967 40.3521 14.6936 42.939C14.359 44.3086 14.0548 45.6782 13.8418 46.9869C12.6554 54.3521 13.9635 59.526 17.4924 61.5651C18.5267 62.1738 19.7132 62.4782 21.0213 62.4782C24.1243 62.4782 27.8661 60.7738 31.9426 57.4564C32.9465 56.6347 33.9809 55.6912 34.9848 54.7173C35.9887 55.6912 37.023 56.6347 38.0269 57.4564C42.1034 60.7738 45.8453 62.4782 48.9483 62.4782C50.2564 62.4782 51.4428 62.1738 52.4772 61.5651C56.0061 59.526 57.3142 54.3521 56.1582 46.9869C55.9452 45.6782 55.641 44.339 55.3064 42.939C64.2503 40.3825 70 36.1217 70 31.2217L69.9696 31.1912ZM50.9561 3.49557C53.694 5.07818 54.3025 10.8608 52.3251 18.713C49.4655 18.0434 46.332 17.5564 43.0161 17.2521C41.0995 14.5434 39.0917 12.0782 37.1143 9.91731C41.7384 5.44339 46.0278 3.00861 48.9787 3.00861C49.7392 3.00861 50.4085 3.16079 50.9865 3.49557H50.9561ZM44.7501 36.8217C43.6549 38.6782 42.5293 40.5043 41.3733 42.2086C39.3351 42.3608 37.2056 42.4521 35.0152 42.4521C32.8249 42.4521 30.6953 42.3608 28.6571 42.2086C27.5011 40.5043 26.3451 38.6782 25.2803 36.8217C24.1851 34.9347 23.2116 33.0782 22.299 31.1912C23.2116 29.3043 24.1851 27.4477 25.2803 25.5608C26.3755 23.6434 27.5315 21.8477 28.6571 20.1738C30.6953 20.0217 32.8249 19.9304 35.0152 19.9304C37.2056 19.9304 39.3351 20.0217 41.3733 20.1738C42.5293 21.8477 43.6549 23.6434 44.7501 25.5608C45.8149 27.4173 46.8188 29.3043 47.7314 31.1912C46.8492 33.0477 45.8757 34.9043 44.7501 36.8217ZM49.3133 34.7521C50.1651 36.7912 50.8953 38.7695 51.5037 40.7173C49.5567 41.1434 47.4576 41.539 45.2369 41.813C45.967 40.6869 46.6667 39.5303 47.3664 38.3434C48.0661 37.1564 48.7049 35.939 49.3133 34.7521ZM34.9848 50.2738C33.6158 48.7825 32.2468 47.139 30.9083 45.3738C32.2468 45.4347 33.5854 45.4651 34.9848 45.4651C36.3842 45.4651 37.7227 45.4347 39.0613 45.3738C37.7227 47.139 36.3538 48.7521 34.9848 50.2738ZM24.7327 41.813C22.512 41.539 20.4129 41.1738 18.4659 40.7173C19.0743 38.7695 19.8044 36.7912 20.6562 34.7521C21.2647 35.939 21.9035 37.1564 22.6032 38.3434C23.3029 39.5303 24.0026 40.6869 24.7327 41.813ZM20.6562 27.5999C19.8044 25.5608 19.0743 23.5825 18.4659 21.6347C20.4129 21.2086 22.512 20.813 24.7327 20.539C24.0026 21.6651 23.3029 22.8217 22.6032 24.0086C21.9035 25.1956 21.2647 26.3825 20.6562 27.5999ZM34.9848 12.0782C36.3233 13.539 37.6923 15.1825 39.0613 16.9782C37.7227 16.9173 36.3842 16.8869 34.9848 16.8869C33.5854 16.8869 32.2468 16.9173 30.9083 16.9782C32.2773 15.1825 33.6158 13.539 34.9848 12.0782ZM47.3664 24.039C46.6667 22.8521 45.967 21.6956 45.2369 20.5695C47.4576 20.8434 49.5567 21.2086 51.5037 21.6651C50.9257 23.5825 50.1956 25.5608 49.3133 27.6304C48.7049 26.4434 48.0356 25.226 47.3664 24.039ZM16.8231 14.9695C15.8801 9.0347 16.671 4.86513 19.0135 3.526C19.5915 3.19122 20.2608 3.03905 21.0213 3.03905C23.9722 3.03905 28.2616 5.47383 32.8857 9.94774C30.8779 12.1086 28.9005 14.5738 26.9839 17.2825C23.668 17.5869 20.5345 18.0738 17.6749 18.7434C17.3403 17.4651 17.0665 16.1869 16.884 14.9999L16.8231 14.9695ZM3.04216 31.1912C3.04216 28.026 7.72708 24.6173 15.515 22.3956C16.3972 25.226 17.5532 28.1782 18.9222 31.1912C17.5532 34.1738 16.3972 37.126 15.515 39.9869C7.7575 37.7651 3.04216 34.3869 3.04216 31.1912ZM30.0261 55.0217C25.3716 58.7956 21.3559 60.1956 19.0135 58.8564C16.671 57.5173 15.8801 53.3173 16.8231 47.413C17.0056 46.1956 17.3099 44.9477 17.6141 43.6695C20.4737 44.339 23.6071 44.826 26.9231 45.1304C28.8396 47.8086 30.817 50.3043 32.8249 52.4956C31.8818 53.4086 30.9387 54.2912 29.9957 55.0521L30.0261 55.0217ZM53.1465 47.413C54.0895 53.3477 53.2986 57.5173 50.9561 58.8564C48.6136 60.1956 44.598 58.7956 39.9435 55.0217C39.0004 54.2608 38.0574 53.3782 37.1143 52.4651C39.1525 50.2738 41.1299 47.8086 43.0161 45.1304C46.332 44.826 49.4655 44.339 52.3251 43.6695C52.6597 44.9477 52.9335 46.226 53.116 47.413H53.1465ZM54.4546 39.9564C53.5724 37.126 52.4163 34.1738 51.0474 31.1608C52.4468 28.1173 53.5724 25.1651 54.4546 22.3651C62.2425 24.5869 66.9274 27.9651 66.9274 31.1608C66.9274 34.3564 62.2425 37.7347 54.4546 39.9564Z" fill="#46C9ED"/>
</svg>
