<svg width="56" height="70" viewBox="0 0 56 70" fill="none" xmlns="http://www.w3.org/2000/svg">
<g clip-path="url(#clip0_2161_3774)">
<mask id="mask0_2161_3774" style="mask-type:luminance" maskUnits="userSpaceOnUse" x="0" y="0" width="56" height="70">
<path d="M56 0H0V70H56V0Z" fill="white"/>
</mask>
<g mask="url(#mask0_2161_3774)">
<path fill-rule="evenodd" clip-rule="evenodd" d="M7.33799 11.4647C6.44666 12.2984 6.29995 12.8841 6.29995 13.1927C6.29995 13.5013 6.44666 14.087 7.33799 14.9207C8.23393 15.7587 9.68235 16.6423 11.7059 17.4429C15.7366 19.0375 21.4963 20.0855 28 20.0855C34.5036 20.0855 40.2633 19.0375 44.294 17.4429C46.3176 16.6423 47.766 15.7587 48.6619 14.9207C49.5532 14.087 49.7 13.5013 49.7 13.1927C49.7 12.8841 49.5532 12.2984 48.6619 11.4647C47.766 10.6267 46.3176 9.74312 44.294 8.94255C40.2633 7.34792 34.5036 6.29995 28 6.29995C21.4963 6.29995 15.7366 7.34792 11.7059 8.94255C9.68235 9.74312 8.23393 10.6267 7.33799 11.4647ZM9.64577 3.73526C14.4823 1.82179 20.9726 0.699951 28 0.699951C35.0273 0.699951 41.5176 1.82179 46.3541 3.73526C48.7642 4.68875 50.9037 5.89376 52.4873 7.37499C54.0755 8.86054 55.2999 10.8247 55.2999 13.1927C55.2999 15.5607 54.0755 17.5249 52.4873 19.0105C50.9037 20.4917 48.7642 21.6967 46.3541 22.6502C41.5176 24.5637 35.0273 25.6855 28 25.6855C20.9726 25.6855 14.4823 24.5637 9.64577 22.6502C7.23569 21.6967 5.09617 20.4917 3.51258 19.0105C1.92437 17.5249 0.699951 15.5607 0.699951 13.1927C0.699951 10.8247 1.92437 8.86054 3.51258 7.37499C5.09617 5.89376 7.23569 4.68875 9.64577 3.73526Z" fill="#DB7533"/>
<path fill-rule="evenodd" clip-rule="evenodd" d="M3.49995 10.3933C5.04635 10.3933 6.29995 11.6463 6.29995 13.1927V27.7325C6.29995 28.0413 6.44673 28.627 7.33799 29.4607C8.23389 30.2987 9.68225 31.1823 11.7058 31.9828C15.7364 33.5774 21.4961 34.6253 28 34.6253C34.5038 34.6253 40.2635 33.5774 44.2941 31.9828C46.3177 31.1823 47.766 30.2987 48.6619 29.4607C49.5532 28.627 49.7 28.0413 49.7 27.7325V13.1927C49.7 11.6463 50.9536 10.3933 52.5 10.3933C54.0463 10.3933 55.2999 11.6463 55.2999 13.1927V27.7325C55.2999 30.1005 54.0756 32.0648 52.4874 33.5504C50.9038 35.0317 48.7643 36.2367 46.3542 37.1901C41.5177 39.1035 35.0274 40.2253 28 40.2253C20.9725 40.2253 14.4822 39.1035 9.64569 37.1901C7.23561 36.2367 5.09609 35.0317 3.5125 33.5504C1.92426 32.0648 0.699951 30.1005 0.699951 27.7325V13.1927C0.699951 11.6463 1.95355 10.3933 3.49995 10.3933Z" fill="#DB7533"/>
<path fill-rule="evenodd" clip-rule="evenodd" d="M3.49995 24.9326C5.04635 24.9326 6.29995 26.1862 6.29995 27.7326V42.2717C6.29995 42.5805 6.44673 43.1663 7.33799 44C8.23389 44.838 9.68225 45.7216 11.7058 46.5221C15.7364 48.1167 21.4961 49.1645 28 49.1645C34.5038 49.1645 40.2635 48.1167 44.2941 46.5221C46.3177 45.7216 47.766 44.838 48.6619 44C49.5532 43.1663 49.7 42.5805 49.7 42.2717V27.7326C49.7 26.1862 50.9536 24.9326 52.5 24.9326C54.0463 24.9326 55.2999 26.1862 55.2999 27.7326V42.2717C55.2999 44.6398 54.0756 46.604 52.4874 48.0897C50.9038 49.571 48.7643 50.776 46.3542 51.7294C41.5177 53.6428 35.0274 54.7645 28 54.7645C20.9725 54.7645 14.4822 53.6428 9.64569 51.7294C7.23561 50.776 5.09609 49.571 3.5125 48.0897C1.92426 46.604 0.699951 44.6398 0.699951 42.2717V27.7326C0.699951 26.1862 1.95355 24.9326 3.49995 24.9326Z" fill="#DB7533"/>
<path fill-rule="evenodd" clip-rule="evenodd" d="M3.49995 39.4675C5.04635 39.4675 6.29995 40.7211 6.29995 42.2675V56.8067C6.29995 57.1154 6.44673 57.7012 7.33799 58.5349C8.23389 59.3729 9.68225 60.2565 11.7058 61.057C15.7364 62.6516 21.4961 63.6995 28 63.6995C34.5038 63.6995 40.2635 62.6516 44.2941 61.057C46.3177 60.2565 47.766 59.3729 48.6619 58.5349C49.5532 57.7012 49.7 57.1154 49.7 56.8067V42.2675C49.7 40.7211 50.9536 39.4675 52.5 39.4675C54.0463 39.4675 55.2999 40.7211 55.2999 42.2675V56.8067C55.2999 59.1747 54.0756 61.1389 52.4874 62.6246C50.9038 64.1059 48.7643 65.3109 46.3542 66.2643C41.5177 68.1777 35.0274 69.2995 28 69.2995C20.9725 69.2995 14.4822 68.1777 9.64569 66.2643C7.23561 65.3109 5.09609 64.1059 3.5125 62.6246C1.92426 61.1389 0.699951 59.1747 0.699951 56.8067V42.2675C0.699951 40.7211 1.95355 39.4675 3.49995 39.4675Z" fill="#DB7533"/>
</g>
</g>
<defs>
<clipPath id="clip0_2161_3774">
<rect width="56" height="70" fill="white"/>
</clipPath>
</defs>
</svg>
