<svg width="70" height="70" viewBox="0 0 70 70" fill="none" xmlns="http://www.w3.org/2000/svg">
<g clip-path="url(#clip0_2117_1564)">
<mask id="mask0_2117_1564" style="mask-type:luminance" maskUnits="userSpaceOnUse" x="0" y="0" width="70" height="70">
<path d="M70 0H0V70H70V0Z" fill="white"/>
</mask>
<g mask="url(#mask0_2117_1564)">
<path fill-rule="evenodd" clip-rule="evenodd" d="M55.9996 0H14.0005C6.26745 0 0 6.26745 0 14.0005V56.0007C0 63.7326 6.26745 70.0013 14.0005 70.0013H56.0007C63.7326 70.0013 70.0013 63.7326 70.0013 56.0007V14.0005C70.0013 6.26867 63.7315 0 55.9996 0ZM14.0622 14.0005V17.9454L22.9202 22.6325L13.9993 27.4763V31.5002L26.2489 24.5857V21.031L14.0622 14.0005ZM29.4011 31.5002H43.4017V35.7007H29.4011V31.5002Z" fill="#404040"/>
</g>
</g>
<defs>
<clipPath id="clip0_2117_1564">
<rect width="70" height="70" fill="white"/>
</clipPath>
</defs>
</svg>
