<svg width="79" height="78" viewBox="0 0 79 78" fill="none" xmlns="http://www.w3.org/2000/svg">
<g filter="url(#filter0_d_2197_4265)">
<path d="M39 69.1278C33.5488 69.1246 28.1045 68.7485 22.7062 68.0021C20.9017 67.7465 19.6106 66.0695 19.8271 64.2633C20.7378 56.3998 21.0628 48.4811 20.7993 40.5708V40.5126C20.7916 40.298 20.7844 40.082 20.7754 39.8661C20.7682 39.6744 20.7604 39.4789 20.752 39.2872C20.7416 39.0317 20.7304 38.7772 20.7183 38.5238V38.4803V38.4707C20.6924 37.9021 20.6606 37.3073 20.6256 36.7042C20.3878 32.6153 19.9853 28.4753 19.4311 24.3966L19.4227 24.3328L19.4875 24.3225C19.7779 24.2746 20.0669 24.228 20.3567 24.182C20.8155 24.1091 21.2971 24.0363 21.8299 23.9584C23.3731 23.7335 24.9345 23.5367 26.4706 23.3744C30.6313 22.9313 34.8131 22.7084 38.998 22.7068C40.3468 22.7068 41.7144 22.7304 43.0639 22.7771C43.4528 22.7898 43.8092 22.8039 44.1592 22.8199C47.4149 22.9617 50.7211 23.2441 53.9865 23.6587C54.3345 23.7028 54.6521 23.7443 54.9587 23.7865C55.3735 23.8427 55.7864 23.9009 56.1869 23.959C56.9647 24.0721 57.7516 24.1948 58.5293 24.3232L58.5941 24.3334L58.5857 24.3973C58.3323 26.2654 58.1087 28.1584 57.9214 30.024C57.6401 32.823 57.4307 35.6564 57.2998 38.4458V38.456L57.2946 38.5717C57.2855 38.7793 57.2758 38.9857 57.2674 39.1933C57.2575 39.4174 57.2484 39.6416 57.2402 39.8661C57.232 40.0905 57.224 40.3099 57.2162 40.5241V40.5452C56.9518 48.4645 57.2767 56.3922 58.1884 64.2646C58.4049 66.0701 57.1138 67.7472 55.3093 68.0027C54.5121 68.1133 53.7052 68.2161 52.9112 68.3094C48.2946 68.8534 43.6494 69.1267 39 69.1278Z" fill="white"/>
<path d="M58.1093 64.2725C58.3187 66.0185 57.0723 67.6873 55.2854 67.9403C54.486 68.0506 53.6866 68.1529 52.8872 68.247C42.8582 69.4324 32.7154 69.3293 22.7133 67.9403C20.9251 67.6848 19.68 66.0185 19.8893 64.2725C20.8032 56.4058 21.1281 48.4834 20.8616 40.5697C20.8616 40.5588 20.8616 40.5473 20.8616 40.5365C20.8538 40.3129 20.846 40.0892 20.8369 39.8644V39.8612C20.8298 39.6695 20.822 39.4778 20.8136 39.2862C20.8032 39.0306 20.792 38.775 20.7799 38.5195V38.4748C20.7802 38.4731 20.7802 38.4714 20.7799 38.4697C20.7527 37.8806 20.7218 37.2915 20.6872 36.7025C20.4474 32.597 20.0486 28.4923 19.4907 24.3886C19.7802 24.3408 20.0697 24.294 20.3592 24.248C20.8501 24.1701 21.341 24.0955 21.8318 24.0244C23.3779 23.7991 24.9239 23.6044 26.47 23.4404C31.9763 22.8523 37.5183 22.6528 43.0535 22.8437C43.4182 22.8561 43.7831 22.8703 44.1482 22.8865C47.4222 23.0288 50.6969 23.3082 53.9722 23.7247C54.2958 23.7673 54.6199 23.8099 54.9444 23.8525C55.3532 23.9083 55.7624 23.9658 56.172 24.025C56.9524 24.1387 57.7328 24.2601 58.5131 24.3892C58.2586 26.2658 58.037 28.142 57.8481 30.0178C57.566 32.8264 57.3588 35.6347 57.2266 38.4428C57.2262 38.4445 57.2262 38.4462 57.2266 38.4479C57.2266 38.4792 57.2266 38.5118 57.222 38.5419C57.2123 38.7584 57.2026 38.9744 57.1935 39.191C57.1844 39.4076 57.1747 39.6382 57.1663 39.8637C57.1579 40.0892 57.1494 40.3109 57.1417 40.5365C57.1413 40.5407 57.1413 40.545 57.1417 40.5492C56.8726 48.4697 57.1961 56.3989 58.1093 64.2725Z" fill="white"/>
<path d="M22.9123 65.8345C22.8642 65.8345 22.8161 65.8313 22.7684 65.8249L22.6848 65.8141C22.0574 65.7329 21.6011 65.1483 21.6679 64.5107C21.7884 63.3447 21.8993 62.1615 21.9965 60.9968C22.0477 60.3969 22.5215 59.9446 23.0983 59.9446C23.132 59.9446 23.1631 59.9446 23.1988 59.9491L23.2805 59.9567C23.8917 60.0129 24.3512 60.5822 24.3058 61.2256C24.2203 62.4101 24.1243 63.6112 24.0193 64.7957C23.9675 65.3866 23.4911 65.8345 22.9123 65.8345Z" fill="#717280"/>
<path d="M22.7769 65.7616L22.6932 65.7508C22.0976 65.6734 21.6698 65.1189 21.7327 64.5171C21.8541 63.3449 21.9636 62.1723 22.0613 60.9993C22.1125 60.3975 22.6168 59.9567 23.193 60.0097L23.274 60.0174C23.8502 60.071 24.2845 60.6071 24.241 61.2185C24.1546 62.4085 24.0591 63.5983 23.9545 64.7879C23.8982 65.3994 23.3725 65.8383 22.7769 65.7616Z" fill="#717280"/>
<path d="M28.255 66.4031C28.2239 66.4031 28.1902 66.4031 28.161 66.3993L28.0774 66.3922C27.4487 66.3379 26.9756 65.7585 27.0216 65.1017C27.1052 63.8961 27.181 62.6739 27.2484 61.4734C27.2841 60.846 27.7708 60.3547 28.3561 60.3547H28.4209L28.502 60.3598C29.1132 60.3975 29.5863 60.9649 29.5571 61.6242C29.502 62.8381 29.4398 64.0731 29.3724 65.2882C29.3387 65.9143 28.8481 66.4031 28.255 66.4031Z" fill="#717280"/>
<path d="M28.1669 66.3352L28.0826 66.3282C27.4876 66.2764 27.0456 65.727 27.0864 65.106C27.1702 63.8959 27.2459 62.6861 27.3133 61.4764C27.3483 60.8554 27.8415 60.3846 28.4151 60.4204L28.4968 60.4255C29.0723 60.4606 29.5189 60.9954 29.491 61.6234C29.4362 62.8441 29.3746 64.0652 29.3063 65.2868C29.2739 65.9142 28.7593 66.387 28.1669 66.3352Z" fill="#717280"/>
<path d="M54.8978 65.8581C54.3177 65.8581 53.842 65.4109 53.7908 64.8148C53.6864 63.6277 53.5918 62.4247 53.5075 61.2408C53.4628 60.5968 53.923 60.027 54.5342 59.9714L54.6152 59.9637C54.6483 59.9637 54.68 59.9592 54.7144 59.9592C55.2925 59.9592 55.7663 60.4128 55.8162 61.014C55.9128 62.1832 56.0223 63.3677 56.1403 64.5356C56.2051 65.1745 55.7514 65.7584 55.1221 65.8389L55.0384 65.8492C54.9918 65.8553 54.9448 65.8582 54.8978 65.8581Z" fill="#717280"/>
<path d="M55.1149 65.775L55.0313 65.7858C54.4363 65.8618 53.9081 65.4216 53.8549 64.809C53.7512 63.6164 53.657 62.4255 53.5723 61.2363C53.5295 60.6236 53.9612 60.0863 54.54 60.0345L54.621 60.0275C55.1972 59.9745 55.7015 60.4166 55.752 61.0191C55.8488 62.1933 55.9569 63.3676 56.0761 64.5419C56.139 65.1444 55.7106 65.6989 55.1149 65.775Z" fill="#717280"/>
<path d="M49.5551 66.4197C48.9614 66.4197 48.4701 65.9297 48.4364 65.3042C48.3716 64.0903 48.3068 62.856 48.2556 61.6376C48.227 60.9777 48.7008 60.4103 49.3114 60.3733L49.3931 60.3682H49.4579C50.0412 60.3682 50.5299 60.8607 50.5656 61.4888C50.6304 62.6944 50.7069 63.9166 50.7885 65.1209C50.8339 65.7783 50.3601 66.3571 49.732 66.4101L49.6478 66.4172C49.616 66.4178 49.5856 66.4197 49.5551 66.4197Z" fill="#717280"/>
<path d="M49.7256 66.3449L49.6413 66.352C49.0463 66.4024 48.5349 65.929 48.5012 65.3004C48.4343 64.0788 48.374 62.8568 48.3204 61.6344C48.2932 61.0064 48.7397 60.4716 49.3153 60.4371L49.397 60.432C49.9725 60.3969 50.4651 60.869 50.4988 61.4907C50.5658 62.7011 50.6401 63.9118 50.7218 65.1227C50.7665 65.7418 50.3206 66.2938 49.7256 66.3449Z" fill="#717280"/>
<path d="M38.862 66.8612C38.7182 66.8605 38.5761 66.8314 38.4438 66.7758C38.3116 66.7202 38.192 66.6391 38.092 66.5373C37.8548 66.2957 37.7243 65.9714 37.729 65.6352C37.7376 64.3919 37.7452 63.1489 37.7517 61.906C37.7562 61.2352 38.2559 60.6921 38.8659 60.6921H38.9475C39.5581 60.6921 40.0578 61.239 40.061 61.9099C40.0671 63.1531 40.0736 64.3962 40.0805 65.6391C40.0849 65.9753 39.9542 66.2996 39.7169 66.5412C39.6164 66.6421 39.4966 66.7223 39.3644 66.7771C39.2322 66.832 39.0903 66.8603 38.9469 66.8606L38.862 66.8612Z" fill="#717280"/>
<path d="M38.9462 66.7972H38.862C38.267 66.7972 37.7886 66.2739 37.7938 65.635C37.8024 64.3926 37.81 63.1496 37.8165 61.9059C37.821 61.267 38.2909 60.7559 38.8665 60.7559H38.9475C39.5237 60.7559 39.993 61.2708 39.9962 61.9097C40.0023 63.153 40.0087 64.3962 40.0157 65.6395C40.0202 66.2752 39.5412 66.7978 38.9462 66.7972Z" fill="#717280"/>
<path d="M44.2092 66.7538C43.5921 66.7538 43.0976 66.2369 43.0827 65.5776C43.0535 64.3439 43.027 63.093 43.0036 61.8593C42.992 61.1903 43.4787 60.6307 44.0886 60.6128H44.1703H44.2014C44.8048 60.6128 45.2929 61.129 45.313 61.7877C45.3493 63.0176 45.3901 64.2628 45.4342 65.4888C45.4595 66.159 44.9682 66.7257 44.3388 66.7525H44.2545L44.2092 66.7538Z" fill="#717280"/>
<path d="M44.3356 66.6855L44.2519 66.6893C43.6563 66.7142 43.1618 66.2127 43.1501 65.5757C43.1207 64.3367 43.0944 63.0975 43.071 61.858C43.0594 61.2191 43.5176 60.694 44.0931 60.6767H44.1748C44.7504 60.6595 45.2319 61.1552 45.2507 61.789C45.287 63.0242 45.3274 64.2581 45.3719 65.4907C45.3933 66.1213 44.9312 66.6605 44.3356 66.6855Z" fill="#717280"/>
<path d="M33.6003 66.7455H33.5555L33.4732 66.7417C32.8426 66.7142 32.3513 66.1469 32.3772 65.4767C32.4232 64.2481 32.4653 63.0035 32.5023 61.7775C32.5224 61.1201 33.0104 60.6045 33.6132 60.6045H33.6456H33.7273C34.3378 60.6237 34.824 61.1795 34.8116 61.8516C34.787 63.0872 34.7591 64.3375 34.7287 65.5687C34.7112 66.2299 34.2166 66.7455 33.6003 66.7455Z" fill="#717280"/>
<path d="M33.5555 66.681L33.4719 66.6772C32.8763 66.651 32.4148 66.1118 32.4394 65.4786C32.4852 64.2456 32.5269 63.0123 32.5645 61.7788C32.584 61.1457 33.0655 60.6505 33.6411 60.6684H33.7228C34.2983 60.6863 34.7559 61.2134 34.7442 61.8504C34.7187 63.089 34.6911 64.328 34.6613 65.5674C34.647 66.2063 34.1518 66.7066 33.5555 66.681Z" fill="#717280"/>
<path d="M38.9644 36.0335H38.7641H38.7576H38.628L38.4984 36.0303C38.4335 36.0303 38.3746 36.0303 38.3136 36.0245H38.2812C38.2164 36.0245 38.1516 36.0194 38.0868 36.0156C38.022 36.0117 37.9422 36.0085 37.8703 36.0041C37.7984 35.9996 37.729 35.9958 37.6584 35.99H37.6208H37.6013L37.5112 35.983C37.4464 35.9779 37.3758 35.9721 37.3084 35.9651C37.215 35.9574 37.1223 35.9479 37.0297 35.9376C36.9493 35.9293 36.8683 35.9204 36.7885 35.9108L36.7088 35.9012C36.6356 35.8923 36.5617 35.8827 36.4885 35.8725L36.4502 35.8674L36.2 35.8309C36.1086 35.8175 36.0172 35.8028 35.9259 35.7875L35.7087 35.7492C35.6731 35.744 35.6361 35.7364 35.5992 35.7294L35.3853 35.6885H35.3769L35.2051 35.6533H35.1967C35.0722 35.6278 34.9569 35.6022 34.8447 35.5754C33.3454 35.2295 31.897 34.6964 30.5346 33.989C30.016 33.722 29.5085 33.4281 29.0237 33.1163C25.6685 30.9513 23.1219 27.7659 21.7709 24.0441C21.2922 22.7141 20.9746 21.3331 20.8247 19.9296C20.7564 19.2942 20.7222 18.6557 20.7222 18.0168C20.7139 15.2366 21.3654 12.4929 22.6246 10.0051C23.8407 7.60217 25.5816 5.49449 27.7222 3.83346C30.9339 1.33601 34.9093 -0.0152185 39 0.000129317C42.6752 0.00208461 46.2647 1.09476 49.3011 3.13589C52.3374 5.17701 54.6799 8.072 56.0236 11.4439L56.0327 11.4535V11.4695V11.4733L56.0761 11.5825L56.0885 11.6151C56.1157 11.6841 56.1416 11.7531 56.1669 11.8221C56.2181 11.9582 56.2686 12.0994 56.3172 12.2425C56.3406 12.3109 56.3633 12.3799 56.3859 12.4482C56.4086 12.5166 56.43 12.5837 56.4508 12.6514C56.5156 12.8482 56.5733 13.0507 56.629 13.2532C56.6387 13.2865 56.6484 13.321 56.6575 13.3561C56.6666 13.3912 56.677 13.4277 56.6867 13.4647L56.6899 13.4775C56.7042 13.5312 56.7184 13.5855 56.7308 13.6391C56.7431 13.6928 56.7599 13.7509 56.7735 13.8084L56.8124 13.9707C56.8222 14.0122 56.8319 14.0544 56.841 14.0985C56.8552 14.1579 56.8682 14.2186 56.8805 14.2787C56.8915 14.3272 56.9019 14.3777 56.9116 14.4275C56.9686 14.7029 57.0198 14.9878 57.0646 15.2753C57.0762 15.3488 57.0872 15.4229 57.0976 15.497C57.1151 15.621 57.132 15.7526 57.1488 15.8931C57.156 15.9462 57.1618 16.0005 57.1676 16.0541C57.1676 16.0752 57.1722 16.0944 57.1741 16.1142C57.1799 16.1679 57.1858 16.219 57.1903 16.2707L57.1961 16.3301C57.2 16.3691 57.2033 16.4068 57.2065 16.4458C57.211 16.5001 57.2156 16.5557 57.2201 16.6112V16.6176C57.2201 16.6259 57.2201 16.6368 57.2201 16.6477V16.6624C57.2247 16.7186 57.2285 16.7742 57.2324 16.8304V16.8751C57.237 16.9447 57.2409 17.015 57.2447 17.0866C57.2451 17.091 57.2451 17.0955 57.2447 17.1C57.2486 17.1639 57.2519 17.2278 57.2538 17.2917C57.2635 17.5236 57.2687 17.7606 57.2687 18.0162C57.2684 21.3005 56.3583 24.5225 54.6365 27.3343C52.9147 30.1462 50.4466 32.4412 47.4985 33.9718L47.4545 33.9935C46.6734 34.3966 45.8634 34.7428 45.031 35.0291C43.0925 35.6964 41.0534 36.036 39 36.0335H38.9644Z" fill="white"/>
<path d="M57.213 18.0169C57.2119 21.2905 56.3036 24.5016 54.5862 27.3034C52.8688 30.1053 50.4075 32.3914 47.4681 33.915C47.4545 33.9227 47.4402 33.9297 47.4266 33.9361C44.8263 35.2768 41.9345 35.9747 39 35.9697H38.9644H38.7647H38.6286L38.499 35.9665C38.4342 35.9665 38.3758 35.9665 38.3149 35.9607H38.2806C38.2158 35.9607 38.1509 35.9556 38.0861 35.9518C38.0213 35.948 37.9416 35.9448 37.8696 35.9403C37.7977 35.9358 37.729 35.932 37.659 35.9262L37.6013 35.9224L37.5119 35.9154C37.447 35.9103 37.3771 35.9045 37.3103 35.8981C37.217 35.8898 37.1243 35.8809 37.0322 35.8707C36.9519 35.8623 36.8715 35.8534 36.7918 35.8438L36.727 35.8355C36.6498 35.8259 36.5721 35.8163 36.4949 35.8055L36.4573 35.8004C36.3737 35.7889 36.2908 35.7767 36.2071 35.764C36.1235 35.7512 36.025 35.7358 35.9343 35.7205C35.8623 35.7084 35.7904 35.6962 35.7184 35.6828C35.6815 35.6771 35.6452 35.67 35.6089 35.663L35.3957 35.6221H35.3924L35.2096 35.5844C35.0925 35.5601 34.9757 35.5344 34.859 35.5071C33.3678 35.1656 31.9268 34.6381 30.5708 33.9374C30.0523 33.6707 29.5507 33.3809 29.0658 33.0678C26.7822 31.6011 24.8616 29.6478 23.4457 27.352C22.0298 25.0562 21.1547 22.4764 20.885 19.8028C20.6153 17.1293 20.9577 14.4301 21.8872 11.9044C22.8167 9.3787 24.3094 7.09083 26.2553 5.20948C28.2012 3.32814 30.5507 1.9013 33.1305 1.03418C35.7103 0.167062 38.4547 -0.118232 41.1613 0.199338C43.8679 0.516907 46.4676 1.42924 48.7689 2.86907C51.0701 4.3089 53.0142 6.2395 54.4577 8.51854C55.0532 9.45705 55.5588 10.4482 55.9679 11.4791C55.9679 11.4836 55.9711 11.4875 55.9724 11.4913C55.9919 11.5392 56.0107 11.5878 56.0295 11.6357C56.056 11.704 56.082 11.773 56.1072 11.8414C56.1591 11.9803 56.209 12.12 56.257 12.2605C56.2803 12.3289 56.303 12.3972 56.3257 12.4656C56.3483 12.534 56.3697 12.6004 56.3905 12.6681C56.4531 12.867 56.5123 13.0668 56.5681 13.2674C56.5778 13.3013 56.5869 13.3351 56.5959 13.3696C56.605 13.4041 56.618 13.4508 56.6283 13.491C56.6426 13.544 56.6569 13.5977 56.6692 13.6507C56.6815 13.7038 56.6983 13.7638 56.712 13.8207C56.7256 13.8775 56.7379 13.9286 56.7502 13.9823C56.7599 14.0238 56.7696 14.0654 56.7787 14.1101C56.793 14.1701 56.8059 14.2302 56.8183 14.2896C56.8293 14.3388 56.8396 14.3886 56.8494 14.4378C56.9068 14.7177 56.9576 14.9994 57.0017 15.2831C57.0133 15.3566 57.0244 15.43 57.0347 15.5041C57.0533 15.6358 57.0704 15.7674 57.0859 15.899C57.0931 15.9533 57.0989 16.0076 57.1047 16.0619C57.1047 16.0817 57.1093 16.1015 57.1112 16.1213C57.1168 16.1724 57.122 16.2235 57.1268 16.2746L57.1326 16.3347C57.1365 16.373 57.1397 16.4107 57.143 16.4491C57.1482 16.5059 57.1527 16.5634 57.1572 16.6209C57.1572 16.6318 57.1572 16.6427 57.1572 16.6529C57.1618 16.7129 57.1663 16.7723 57.1702 16.8324C57.1702 16.8471 57.1702 16.8618 57.1702 16.8758C57.1747 16.9468 57.1786 17.017 57.1825 17.088C57.1828 17.0909 57.1828 17.0939 57.1825 17.0969C57.1864 17.1608 57.1896 17.2285 57.1916 17.2943C57.2084 17.5339 57.213 17.7748 57.213 18.0169Z" fill="white"/>
<path d="M19.4907 38.5252C28.046 38.5252 34.9815 31.6888 34.9815 23.2558C34.9815 14.8227 28.046 7.98633 19.4907 7.98633C10.9354 7.98633 4 14.8227 4 23.2558C4 31.6888 10.9354 38.5252 19.4907 38.5252Z" fill="white"/>
<path d="M57.213 18.0168C57.213 27.9317 49.0586 35.9695 39 35.9695C36.0623 35.9735 33.1676 35.2738 30.565 33.9308C29.1242 35.3871 27.4018 36.544 25.4997 37.3331C23.5977 38.1222 21.5544 38.5275 19.4908 38.5251C12.3248 38.5251 6.29575 33.7296 4.52631 27.2168C6.81362 32.8339 12.3903 36.8001 18.9074 36.8001C20.9711 36.8025 23.0143 36.3972 24.9164 35.6081C26.8185 34.819 28.5408 33.6621 29.9817 32.2058C32.5843 33.5488 35.479 34.2485 38.4167 34.2445C48.4753 34.2445 56.6296 26.2067 56.6296 16.2918C56.6309 14.6654 56.4082 13.0464 55.9679 11.479C56.7934 13.5625 57.2157 15.78 57.213 18.0168Z" fill="white"/>
<path d="M58.5242 38.5595C58.086 38.5595 57.6466 38.5417 57.2175 38.5059C53.4841 38.1956 49.9901 36.5662 47.379 33.9177C44.7678 31.2692 43.2154 27.78 43.0075 24.0926C42.9913 23.8159 42.9835 23.5291 42.9835 23.2409C42.9835 23.1131 42.9835 22.9854 42.9887 22.8422C43.0681 19.8305 44.0468 16.9087 45.8022 14.4423C47.5576 11.976 50.0118 10.0746 52.8579 8.97615C55.7039 7.87766 58.8154 7.63082 61.8031 8.26649C64.7907 8.90216 67.5218 10.3921 69.6548 12.55C71.7878 14.7078 73.2279 17.4378 73.795 20.3983C74.362 23.3588 74.0308 26.4183 72.8429 29.1942C71.6549 31.9701 69.6629 34.3391 67.1161 36.0048C64.5692 37.6705 61.5806 38.5589 58.5242 38.5589V38.5595Z" fill="white"/>
<path d="M74 23.2411C74 31.6661 67.0713 38.4958 58.5242 38.4958C58.086 38.4958 57.6522 38.4779 57.2227 38.4422C53.505 38.1333 50.0256 36.5108 47.4255 33.8734C44.8253 31.2361 43.2793 27.7615 43.0723 24.0895C43.0563 23.8084 43.0483 23.5256 43.0483 23.2411C43.0483 23.1082 43.0501 22.9757 43.0535 22.8437C43.1544 18.8667 44.8291 15.0862 47.7199 12.31C50.6106 9.53383 54.4882 7.98209 58.5242 7.98634C67.0713 7.98634 74 14.8161 74 23.2411Z" fill="white"/>
<path d="M57.222 38.4471C57.222 38.4784 57.222 38.511 57.2175 38.541C57.2077 38.7576 57.198 38.9736 57.189 39.1902C57.1799 39.4067 57.1702 39.6374 57.1617 39.8629C57.1533 40.0884 57.1449 40.3101 57.1371 40.5357C57.1368 40.5399 57.1368 40.5442 57.1371 40.5484C53.4468 40.2401 49.9923 38.6335 47.4045 36.0219C47.1885 36.1344 46.969 36.2425 46.746 36.3465C44.2571 37.5088 41.5335 38.1005 38.7795 38.0772C36.0255 38.0538 33.3126 37.416 30.8443 36.2117C30.729 36.1554 30.6149 36.0979 30.5008 36.0392C30.4405 36.0999 30.3802 36.1599 30.3187 36.2193C27.7746 38.7067 24.4322 40.2446 20.8641 40.5695C20.8641 40.5587 20.8641 40.5472 20.8641 40.5363C20.8564 40.312 20.8486 40.0891 20.8395 39.8642V39.861C20.8322 39.6693 20.8244 39.4777 20.8162 39.286C20.8058 39.0304 20.7946 38.7749 20.7825 38.5193C20.7825 38.5046 20.7825 38.4893 20.7825 38.4746V38.4695C23.4349 38.2429 25.9824 37.3419 28.1759 35.8545C29.0116 35.2892 29.7893 34.6449 30.4982 33.9308L30.541 33.9525C33.0823 35.2553 35.9004 35.9465 38.7647 35.9695C38.8211 35.9695 38.8781 35.9695 38.9352 35.9695H38.9676C41.9072 35.9687 44.8025 35.2631 47.4039 33.9136L47.4265 33.9359C50.0325 36.5556 53.5116 38.1578 57.222 38.4471Z" fill="white"/>
<g opacity="0.4" style="mix-blend-mode:difference">
<path d="M58.5242 7.98629C57.1507 7.98529 55.7833 8.16426 54.4577 8.51848C53.1048 6.38026 51.3105 4.54666 49.1915 3.1369C47.0725 1.72713 44.6762 0.772781 42.1584 0.335894C39.6406 -0.100994 37.0577 -0.0106328 34.5777 0.6011C32.0977 1.21283 29.776 2.33224 27.7637 3.88654C30.7257 3.13456 33.8213 2.69948 36.8235 2.92245C39.3468 3.11029 42.3691 3.6987 44.1787 5.60579C45.8581 7.37487 47.1835 9.98984 47.5666 12.4675C47.6194 12.8061 47.6541 13.1474 47.6703 13.4897C47.8207 16.7857 46.337 20.2063 44.1482 22.8884C43.806 23.3088 43.4457 23.7106 43.0723 24.0914C42.5171 24.658 41.9208 25.1839 41.288 25.665C39.1705 27.2667 36.362 28.2959 33.6657 28.0634C30.788 27.8148 28.3069 25.9831 26.6657 23.7228C26.6009 23.6301 26.5322 23.5368 26.4713 23.4423C25.726 22.364 25.1573 21.177 24.7861 19.9246C24.6377 19.4179 23.7128 15.3731 23.9111 15.2952C22.4768 15.8606 21.441 18.0743 20.8875 19.9258C20.7221 20.4747 20.5922 21.0334 20.4986 21.5985C20.3595 22.4751 20.3134 23.3637 20.3612 24.2498C20.498 26.8054 21.4054 29.2715 22.9246 31.4054C23.9435 32.8352 25.0499 34.074 26.3332 34.9372C26.9023 35.3242 27.5222 35.6329 28.1759 35.8546L28.2194 35.8687C28.8962 36.0895 29.6032 36.2078 30.3161 36.2194C30.489 36.2228 30.6642 36.2203 30.8418 36.2118C31.2164 36.1928 31.5894 36.1501 31.9585 36.084C33.0185 35.8987 34.0873 35.7311 35.1649 35.5812L35.2012 35.5761C37.0458 35.3205 38.9041 35.1078 40.7442 34.9321C42.0457 34.8075 43.6699 34.5123 44.972 34.9551L45.0057 34.9666C45.3341 35.0788 45.6399 35.2471 45.9093 35.4636C46.2253 35.7213 46.5064 36.018 46.7454 36.3466C47.413 37.2512 47.7954 38.3488 48.2212 39.3921C50.0574 43.8918 51.2377 48.6324 51.9869 53.419C52.3583 55.7905 52.6228 58.178 52.801 60.5745C52.9708 62.8547 53.2949 65.2007 52.9708 67.4745C52.9332 67.7403 52.906 67.9984 52.8885 68.2476C53.6879 68.1539 54.4873 68.0516 55.2867 67.9409C57.0749 67.6853 58.32 66.0191 58.1107 64.273C57.1959 56.3998 56.8709 48.4708 57.1384 40.5505C57.1381 40.5462 57.1381 40.5419 57.1384 40.5377C57.1462 40.3134 57.154 40.0905 57.1631 39.8649C57.1721 39.6394 57.1806 39.4177 57.1903 39.1922C57.2 38.9666 57.2091 38.7597 57.2188 38.5431C57.2188 38.5118 57.2188 38.4792 57.2233 38.4491C57.223 38.4475 57.223 38.4457 57.2233 38.444C57.6524 38.4798 58.0862 38.4977 58.5248 38.4977C67.0719 38.4977 74.0007 31.668 74.0007 23.243C74.0007 14.8179 67.0713 7.98629 58.5242 7.98629ZM67.689 21.7307C67.5769 25.3941 63.6795 28.7291 60.3688 29.589C59.5401 29.802 58.6944 29.9446 57.841 30.0152C56.1455 30.1608 54.4175 30.0522 52.7375 29.7986C52.3719 29.7436 52.0077 29.6817 51.6473 29.614C51.4743 29.5814 51.1619 29.52 50.8307 29.4223C50.2363 29.2498 49.5817 28.9648 49.5648 28.5342C49.548 28.1036 50.537 27.5727 50.8708 27.291C52.1483 26.2106 53.1698 25.0695 53.967 23.7215C54.3686 23.0407 54.7072 22.3256 54.9788 21.585C55.7469 19.5112 56.1545 17.6009 56.1539 15.4012C56.1539 14.2876 55.8778 13.5683 55.6555 12.5435C55.5388 12.0036 55.6788 11.6861 55.9685 11.4912C56.2926 11.2759 56.793 11.2095 57.3296 11.1552C60.1932 10.8645 62.3418 11.7059 64.5844 13.4826C66.2261 14.7828 67.2573 16.7269 67.5918 18.7605C67.7616 19.7418 67.7188 20.7475 67.689 21.7307Z" fill="#2F2F2F"/>
</g>
</g>
<defs>
<filter id="filter0_d_2197_4265" x="0" y="0" width="78.0648" height="77.1279" filterUnits="userSpaceOnUse" color-interpolation-filters="sRGB">
<feFlood flood-opacity="0" result="BackgroundImageFix"/>
<feColorMatrix in="SourceAlpha" type="matrix" values="0 0 0 0 0 0 0 0 0 0 0 0 0 0 0 0 0 0 127 0" result="hardAlpha"/>
<feOffset dy="4"/>
<feGaussianBlur stdDeviation="2"/>
<feComposite in2="hardAlpha" operator="out"/>
<feColorMatrix type="matrix" values="0 0 0 0 0 0 0 0 0 0 0 0 0 0 0 0 0 0 0.25 0"/>
<feBlend mode="normal" in2="BackgroundImageFix" result="effect1_dropShadow_2197_4265"/>
<feBlend mode="normal" in="SourceGraphic" in2="effect1_dropShadow_2197_4265" result="shape"/>
</filter>
</defs>
</svg>
