<svg width="70" height="71" viewBox="0 0 70 71" fill="none" xmlns="http://www.w3.org/2000/svg">
<path d="M69.9936 29.0306C69.9806 28.5444 69.9417 28.0583 69.864 27.5787L66.4158 26.8204L67.401 25.6861L68.7751 24.1046C68.5482 23.6509 68.2954 23.2102 68.0167 22.7954C64.8862 18.1093 58.6121 15.9963 53.1742 17.8241C52.001 18.2194 50.7566 18.8352 49.5251 19.6194C47.7945 20.7148 46.0769 22.1407 44.5862 23.7481C44.5667 23.7676 44.5473 23.787 44.5279 23.813C44.7677 23.3463 44.9945 22.8731 45.2149 22.3935C46.563 19.3667 47.3538 16.1065 47.3538 13.4426C47.3538 10.2083 46.1936 7.09074 44.288 4.66019C42.7649 2.71574 40.7556 1.21204 38.4742 0.440741C38.3834 0.408333 38.2927 0.375926 38.1954 0.35C37.7288 0.207407 37.2556 0.0907407 36.7695 0.012963L35.0001 3.16296L34.514 2.29444L33.2436 0.012963L33.2371 0C27.2547 0.998148 22.6529 6.98704 22.6529 13.4296C22.6529 15.562 23.1584 18.0704 24.0464 20.5333C24.4417 21.6222 24.9084 22.7046 25.4399 23.7352C25.4529 23.7546 25.4593 23.7741 25.4723 23.8C25.1417 23.437 24.7982 23.087 24.4417 22.75C22.0695 20.4556 19.2954 18.6537 16.826 17.8176C14.3566 16.988 11.7186 16.9685 9.28156 17.6361H9.27507C6.48156 18.4009 3.9473 20.0602 2.2297 22.4259C2.15193 22.5361 2.06767 22.6528 1.98989 22.7694C1.7047 23.1907 1.45193 23.6315 1.21859 24.0981L3.57785 26.8139L0.544518 27.488L0.531555 27.4944L0.129703 27.5787C0.11674 27.6759 0.103777 27.7796 0.0908142 27.8769C0.0843327 27.9157 0.0843327 27.9481 0.0778512 27.987C0.0778512 28.0065 0.0713697 28.0259 0.0713697 28.0454C0.0259994 28.4278 0.00655493 28.8102 7.34434e-05 29.1926C7.34434e-05 29.238 7.34434e-05 29.2833 7.34434e-05 29.3222C-0.019371 34.9352 3.82415 40.3537 9.19081 42.1556C10.5325 42.6093 12.114 42.8815 13.7927 42.9722C15.5686 43.0694 17.4547 42.9593 19.289 42.6352C19.3862 42.6157 19.4834 42.6028 19.5806 42.5833C17.7788 43.4843 16.0612 44.6185 14.5834 45.8694C14.5834 45.8694 14.5834 45.8694 14.5769 45.8694C13.3066 46.9454 12.2177 48.0991 11.4075 49.2528C9.86489 51.45 9.03526 54.075 8.90563 56.713C8.90563 56.7194 8.90563 56.7259 8.90563 56.7324C8.86026 57.6852 8.90563 58.638 9.04174 59.5713C9.0547 59.6491 9.06767 59.7204 9.08063 59.7981C9.09359 59.8694 9.10655 59.9343 9.11952 60.0056C9.13248 60.0704 9.14544 60.1417 9.15841 60.2065C9.15841 60.2194 9.16489 60.2259 9.16489 60.2389C9.17785 60.2972 9.19081 60.3556 9.1973 60.4074C9.2297 60.55 9.26211 60.6991 9.29452 60.8417C9.30748 60.8935 9.32044 60.9519 9.33341 61.0037C9.33989 61.0231 9.34637 61.0491 9.34637 61.0685C9.35933 61.1139 9.3723 61.1593 9.38526 61.2046C9.39174 61.237 9.39822 61.263 9.41119 61.2954C9.42415 61.3472 9.43711 61.3926 9.45007 61.4444C9.46952 61.5157 9.48896 61.587 9.51489 61.6583C9.54082 61.7426 9.56674 61.8204 9.59267 61.9046C9.59267 61.9111 9.59915 61.9176 9.59915 61.9241C9.62507 61.9954 9.64452 62.0667 9.67044 62.138C9.67693 62.1574 9.68341 62.1704 9.68989 62.1898C9.71581 62.2611 9.74174 62.3389 9.76767 62.4102C9.78063 62.4491 9.80007 62.4944 9.81304 62.5333C9.826 62.5722 9.84544 62.6176 9.85841 62.6565C9.85841 62.6565 9.85841 62.663 9.86489 62.6694C10.2538 63.6481 10.7593 64.5685 11.3751 65.4176C11.6732 65.8259 11.9973 66.2148 12.3473 66.5778L15.5686 65.0935L15.413 66.6102L15.1991 68.7296C15.5945 68.937 15.9964 69.1185 16.4047 69.2676C21.6223 71.2509 27.9936 69.1444 31.3834 64.3093C32.6214 62.5398 33.6584 60.1287 34.339 57.5167C34.5917 56.5509 34.7927 55.5593 34.9353 54.5546C34.9547 54.438 34.9677 54.3148 34.9871 54.1981C35.2788 56.4019 35.8492 58.5991 36.6204 60.5435C36.6204 60.55 36.6269 60.5565 36.6269 60.563C37.1908 61.9759 37.8519 63.2528 38.5908 64.3093C39.5825 65.7222 40.8269 66.9019 42.2205 67.8157C44.0482 69.0083 46.1288 69.7472 48.2417 69.9546C48.339 69.9611 48.4362 69.9741 48.5334 69.9806C48.5982 69.987 48.6566 69.987 48.7214 69.9935C48.851 70 48.9742 70.0065 49.1038 70.013C49.1686 70.013 49.2334 70.0194 49.2982 70.0194C49.363 70.0194 49.4279 70.0194 49.4927 70.0194C49.5316 70.0194 49.5769 70.0194 49.6158 70.0194C49.9075 70.013 50.1992 70 50.4908 69.9741H50.4973C50.5492 69.9676 50.6075 69.9611 50.6593 69.9611C50.7306 69.9546 50.8084 69.9481 50.8797 69.9352C50.9575 69.9287 51.0353 69.9157 51.113 69.9028C52.3834 69.7278 53.6214 69.3454 54.7816 68.7361L54.4121 65.1L55.3195 65.5213L57.6334 66.5907C57.8797 66.3315 58.113 66.0657 58.3269 65.7935C58.3334 65.787 58.3334 65.787 58.3334 65.7806C58.3464 65.7611 58.3593 65.7417 58.3788 65.7222C61.9306 61.1917 62.0019 54.1657 58.5732 49.2722C57.9186 48.3389 57.0825 47.4056 56.1167 46.5176C54.5223 45.0463 52.5714 43.6917 50.5103 42.6481C50.4779 42.6287 50.439 42.6157 50.4066 42.5963C51.0417 42.713 51.6769 42.8102 52.3186 42.875C52.3251 42.875 52.338 42.875 52.3445 42.875C55.3973 43.1991 58.4566 42.9528 60.7964 42.162C65.1779 40.6843 68.5482 36.8018 69.6241 32.3685C69.6306 32.3491 69.6371 32.3296 69.6371 32.3037C69.864 31.3639 69.9806 30.3917 69.9871 29.4194C70.0001 29.2898 70.0001 29.1602 69.9936 29.0306Z" fill="#FFBBD7"/>
<path d="M44.5602 37.651C46.751 36.9121 48.2612 34.5464 47.9176 32.2519L46.6408 31.9732L47.5158 30.9686C46.4917 28.901 43.9315 27.9029 41.7408 28.6417C40.6908 28.9982 39.4917 29.8279 38.5389 30.8584C39.1936 29.601 39.5825 28.1621 39.5825 27.0149C39.5825 24.6297 37.8778 22.413 35.6612 22.0371L35.0001 23.2103L34.3454 22.0371C32.1288 22.4066 30.4241 24.6232 30.4241 27.0149C30.4241 28.1621 30.813 29.601 31.4676 30.8584C30.5149 29.8279 29.3158 28.9982 28.2658 28.6417C26.0751 27.9029 23.5149 28.901 22.4908 30.9686L23.3658 31.9732L22.0889 32.2519C21.7454 34.5529 23.2556 36.9121 25.4464 37.651C26.4964 38.0075 27.9417 38.0658 29.2964 37.8066C28.0584 38.4288 26.9241 39.3491 26.2695 40.276C24.9149 42.2075 25.038 45.0399 26.6195 46.6862L27.8121 46.1353L27.676 47.4834C29.6788 48.5334 32.3167 47.7751 33.6714 45.8436C34.3195 44.9167 34.8186 43.5167 35.0065 42.0973C35.1945 43.5103 35.6936 44.9167 36.3417 45.8436C37.6964 47.7751 40.3343 48.5334 42.3371 47.4834L42.201 46.1353L43.3936 46.6862C44.9751 45.0334 45.0982 42.2075 43.7436 40.276C43.0954 39.3491 41.9612 38.4223 40.7167 37.8066C42.0649 38.0658 43.5102 38.0075 44.5602 37.651Z" fill="url(#paint0_radial_2197_4001)"/>
<path d="M31.7205 49.4991L35.0001 36.4778L32.8806 49.7519L31.7205 49.4991Z" fill="#FF1515"/>
<path d="M29.1797 48.5074L35.0001 36.4778L30.2621 49.0065L29.1797 48.5074Z" fill="#FF1515"/>
<path d="M26.8982 46.9907L35 36.4778L27.851 47.7102L26.8982 46.9907Z" fill="#FF1515"/>
<path d="M24.9603 45.0139L35.0001 36.4778L25.7575 45.9278L24.9603 45.0139Z" fill="#FF1515"/>
<path d="M23.4695 42.6676L35.0001 36.4778L24.0594 43.7306L23.4695 42.6676Z" fill="#FF1515"/>
<path d="M22.4778 40.0491L35.0001 36.4778L22.8473 41.2157L22.4778 40.0491Z" fill="#FF1515"/>
<path d="M22.0371 37.275L35.0001 36.4778L22.1603 38.4935L22.0371 37.275Z" fill="#FF1515"/>
<path d="M22.1603 34.4619L35.0001 36.4777L22.0371 35.6804L22.1603 34.4619Z" fill="#FF1515"/>
<path d="M22.8473 31.7397L35.0001 36.4777L22.4778 32.9064L22.8473 31.7397Z" fill="#FF1515"/>
<path d="M24.0594 29.2249L35.0001 36.4776L23.4695 30.2878L24.0594 29.2249Z" fill="#FF1515"/>
<path d="M25.7575 27.0278L35.0001 36.4778L24.9603 27.9417L25.7575 27.0278Z" fill="#FF1515"/>
<path d="M27.851 25.2454L35 36.4778L26.8982 25.9648L27.851 25.2454Z" fill="#FF1515"/>
<path d="M30.2621 23.949L35.0001 36.4777L29.1797 24.448L30.2621 23.949Z" fill="#FF1515"/>
<path d="M32.8806 23.2036L35.0001 36.4777L31.7205 23.4564L32.8806 23.2036Z" fill="#FF1515"/>
<path d="M35.5899 23.0352L35.0001 36.4777L34.4103 23.0352H35.5899Z" fill="#FF1515"/>
<path d="M38.2732 23.4564L35.0001 36.4777L37.1195 23.2036L38.2732 23.4564Z" fill="#FF1515"/>
<path d="M40.814 24.448L35.0001 36.4777L39.738 23.949L40.814 24.448Z" fill="#FF1515"/>
<path d="M43.1019 25.9648L35.0001 36.4778L42.1427 25.2454L43.1019 25.9648Z" fill="#FF1515"/>
<path d="M45.0334 27.9417L35.0001 36.4778L44.2427 27.0278L45.0334 27.9417Z" fill="#FF1515"/>
<path d="M46.5306 30.2878L35.0001 36.4776L45.9408 29.2249L46.5306 30.2878Z" fill="#FF1515"/>
<path d="M47.5223 32.9064L35.0001 36.4777L47.1528 31.7397L47.5223 32.9064Z" fill="#FF1515"/>
<path d="M47.963 35.6804L35.0001 36.4777L47.8399 34.4619L47.963 35.6804Z" fill="#FF1515"/>
<path d="M47.8399 38.4935L35.0001 36.4778L47.963 37.275L47.8399 38.4935Z" fill="#FF1515"/>
<path d="M47.1528 41.2157L35.0001 36.4778L47.5223 40.0491L47.1528 41.2157Z" fill="#FF1515"/>
<path d="M45.9408 43.7306L35.0001 36.4778L46.5306 42.6676L45.9408 43.7306Z" fill="#FF1515"/>
<path d="M44.2427 45.9278L35.0001 36.4778L45.0334 45.0139L44.2427 45.9278Z" fill="#FF1515"/>
<path d="M42.1427 47.7102L35.0001 36.4778L43.1019 46.9907L42.1427 47.7102Z" fill="#FF1515"/>
<path d="M39.738 49.0065L35.0001 36.4778L40.814 48.5074L39.738 49.0065Z" fill="#FF1515"/>
<path d="M37.1195 49.7519L35.0001 36.4778L38.2732 49.4991L37.1195 49.7519Z" fill="#FF1515"/>
<path d="M34.4103 49.9204L35.0001 36.4778L35.5899 49.9204H34.4103Z" fill="#FF1515"/>
<defs>
<radialGradient id="paint0_radial_2197_4001" cx="0" cy="0" r="1" gradientUnits="userSpaceOnUse" gradientTransform="translate(34.9995 35.0001) scale(12.963)">
<stop stop-color="#D4145A"/>
<stop offset="0.1803" stop-color="#DE3B78"/>
<stop offset="0.4565" stop-color="#EC72A0"/>
<stop offset="0.6952" stop-color="#F69ABE"/>
<stop offset="0.8842" stop-color="#FDB2D0"/>
<stop offset="1" stop-color="#FFBBD7"/>
</radialGradient>
</defs>
</svg>
