<svg width="70" height="70" viewBox="0 0 70 70" fill="none" xmlns="http://www.w3.org/2000/svg">
<g clip-path="url(#clip0_2197_4511)">
<path d="M64.8307 0H32.6845C29.7768 0 27.4614 2.31538 27.4614 5.16923V31.7692H64.7768C67.6307 31.7692 69.946 29.4538 69.946 26.6V5.16923C69.9999 2.31538 67.6845 0 64.8307 0Z" fill="#92C83E"/>
<path d="M38.823 18.4153C40.2207 18.4153 41.3538 17.2822 41.3538 15.8845C41.3538 14.4868 40.2207 13.3538 38.823 13.3538C37.4253 13.3538 36.2922 14.4868 36.2922 15.8845C36.2922 17.2822 37.4253 18.4153 38.823 18.4153Z" fill="white"/>
<path d="M48.7307 18.4153C50.1284 18.4153 51.2615 17.2822 51.2615 15.8845C51.2615 14.4868 50.1284 13.3538 48.7307 13.3538C47.333 13.3538 46.2 14.4868 46.2 15.8845C46.2 17.2822 47.333 18.4153 48.7307 18.4153Z" fill="white"/>
<path d="M58.6384 18.4153C60.0361 18.4153 61.1692 17.2822 61.1692 15.8845C61.1692 14.4868 60.0361 13.3538 58.6384 13.3538C57.2407 13.3538 56.1077 14.4868 56.1077 15.8845C56.1077 17.2822 57.2407 18.4153 58.6384 18.4153Z" fill="white"/>
<path opacity="0.1" d="M70.0001 5.16923V26.5462C70.0001 29.4 67.6847 31.7154 64.8309 31.7154H62.0847C64.9386 31.7154 67.2539 29.4 67.2539 26.5462V5.16923C67.2539 2.31538 64.9386 0 62.0847 0H64.8309C67.6847 0 70.0001 2.31538 70.0001 5.16923Z" fill="black"/>
<path d="M5.33085 37.9076C2.47701 37.9076 0.161621 40.223 0.161621 43.0768V64.7768C0.161621 67.6307 2.47701 69.9461 5.33085 69.9461H37.477C40.3308 69.9461 42.6462 67.6307 42.6462 64.7768V37.8538H5.33085V37.9076Z" fill="#FBB03B"/>
<path opacity="0.1" d="M42.6461 37.9077V64.8308C42.6461 67.6846 40.3307 70 37.4769 70H34.7307C37.5846 70 39.8999 67.6846 39.8999 64.8308V37.9077H42.6461Z" fill="black"/>
<path d="M11.4692 56.4846C12.867 56.4846 14 55.3516 14 53.9539C14 52.5562 12.867 51.4231 11.4692 51.4231C10.0715 51.4231 8.93848 52.5562 8.93848 53.9539C8.93848 55.3516 10.0715 56.4846 11.4692 56.4846Z" fill="white"/>
<path d="M21.377 56.4846C22.7747 56.4846 23.9077 55.3516 23.9077 53.9539C23.9077 52.5562 22.7747 51.4231 21.377 51.4231C19.9793 51.4231 18.8462 52.5562 18.8462 53.9539C18.8462 55.3516 19.9793 56.4846 21.377 56.4846Z" fill="white"/>
<path d="M31.2847 56.4846C32.6824 56.4846 33.8154 55.3516 33.8154 53.9539C33.8154 52.5562 32.6824 51.4231 31.2847 51.4231C29.887 51.4231 28.7539 52.5562 28.7539 53.9539C28.7539 55.3516 29.887 56.4846 31.2847 56.4846Z" fill="white"/>
<path d="M21.3769 21.1077V31.8231H10.7154C4.79231 31.8231 0 27.0308 0 21.1077C0 15.1846 4.79231 10.3923 10.7154 10.3923C16.6385 10.3923 21.3769 15.2385 21.3769 21.1077Z" fill="#ED1E79"/>
<path opacity="0.1" d="M21.377 21.1078V31.8232H18.6308V21.1078C18.6308 15.7232 14.6462 11.2001 9.31543 10.5001C15.1847 9.74626 20.5154 13.8924 21.2693 19.7616C21.377 20.2463 21.377 20.677 21.377 21.1078Z" fill="black"/>
<path d="M48.623 48.6231V37.9077H59.3384C65.2615 37.9077 70.0538 42.7 70.0538 48.6231C70.0538 54.5462 65.2615 59.3385 59.3384 59.3385C53.4154 59.3385 48.623 54.4923 48.623 48.6231Z" fill="#3FA9F5"/>
<path opacity="0.1" d="M70 48.623C70 54.5461 65.2077 59.3384 59.2846 59.3384C58.8538 59.3384 58.3692 59.2845 57.9384 59.2307C63.8077 58.4769 67.9538 53.1461 67.2 47.2769C66.5 41.9461 61.9769 37.9076 56.5923 37.9615H59.3384C65.2077 37.9076 70 42.6999 70 48.623Z" fill="black"/>
</g>
<defs>
<clipPath id="clip0_2197_4511">
<rect width="70" height="70" fill="white"/>
</clipPath>
</defs>
</svg>
