<svg width="70" height="70" viewBox="0 0 70 70" fill="none" xmlns="http://www.w3.org/2000/svg">
<g clip-path="url(#clip0_2197_4433)">
<g clip-path="url(#clip1_2197_4433)">
<g clip-path="url(#clip2_2197_4433)">
<mask id="mask0_2197_4433" style="mask-type:luminance" maskUnits="userSpaceOnUse" x="8" y="0" width="57" height="70">
<path d="M64.6154 0H8.77405V70H64.6154V0Z" fill="white"/>
</mask>
<g mask="url(#mask0_2197_4433)">
<path d="M36.702 2.52938V11.4418C36.702 12.8381 35.5485 13.9711 34.1247 13.9711L11.3513 14.0974C9.9275 14.0974 8.77405 12.9644 8.77405 11.568V2.26959C8.77405 1.63814 9.05881 1.06443 9.50577 0.667526C9.88785 0.328351 10.3853 0.126289 10.944 0.126289L34.1211 0C35.5449 0 36.6984 1.13299 36.6984 2.52938H36.702Z" fill="#FFE787"/>
<path d="M64.6154 42.0505C64.6154 57.4866 52.1149 70 36.6947 70C21.2746 70 8.77405 57.4866 8.77405 42.0505C8.77405 26.6144 21.2746 14.101 36.6947 14.101C52.1149 14.101 64.6154 26.6144 64.6154 42.0505ZM39.3837 6.7041H19.2777C17.6124 6.7041 16.2607 8.0608 16.2607 9.73142V18.5428C16.2607 20.2134 17.6124 21.5701 19.2777 21.5701H39.3837C41.049 21.5701 42.4007 20.2134 42.4007 18.5428V9.73142C42.4007 8.0608 41.049 6.7041 39.3837 6.7041Z" fill="#FFCC00"/>
<path d="M26.858 42.0505C27.4131 45.8139 30.6535 48.7005 34.5645 48.7005C38.4754 48.7005 41.7159 45.8139 42.271 42.0505H26.8544H26.858Z" fill="#18202E"/>
<path d="M26.3426 34.0654C27.305 31.417 26.7643 28.7902 25.1351 28.1948C23.5058 27.5995 21.4044 29.2665 20.442 31.9149C19.4796 34.5634 20.0202 37.1902 21.6495 37.7855C23.2787 38.3809 25.3802 36.7139 26.3426 34.0654Z" fill="#18202E"/>
<path d="M40.4434 37.7857C42.0727 37.1903 42.6133 34.5635 41.6509 31.915C40.6885 29.2666 38.5871 27.6032 36.9578 28.1949C35.3286 28.7903 34.7879 31.4171 35.7503 34.0656C36.7127 36.714 38.8142 38.3774 40.4434 37.7857Z" fill="#18202E"/>
</g>
<mask id="mask1_2197_4433" style="mask-type:luminance" maskUnits="userSpaceOnUse" x="8" y="0" width="57" height="70">
<path d="M64.4569 0H8.61548V70H64.4569V0Z" fill="white"/>
</mask>
<g mask="url(#mask1_2197_4433)">
<path d="M36.5434 2.52938V11.4418C36.5434 12.8381 35.3899 13.9711 33.9661 13.9711L11.1927 14.0974C9.76893 14.0974 8.61548 12.9644 8.61548 11.568V2.26959C8.61548 1.63814 8.90024 1.06443 9.3472 0.667526C9.72928 0.328351 10.2267 0.126289 10.7854 0.126289L33.9625 0C35.3863 0 36.5398 1.13299 36.5398 2.52938H36.5434Z" fill="#FFE787"/>
<path d="M64.4569 42.0505C64.4569 57.4866 51.9564 70 36.5362 70C21.116 70 8.61548 57.4866 8.61548 42.0505C8.61548 26.6144 21.116 14.101 36.5362 14.101C51.9564 14.101 64.4569 26.6144 64.4569 42.0505ZM39.2252 6.7041H19.1191C17.4538 6.7041 16.1021 8.0608 16.1021 9.73142V18.5428C16.1021 20.2134 17.4538 21.5701 19.1191 21.5701H39.2252C40.8904 21.5701 42.2421 20.2134 42.2421 18.5428V9.73142C42.2421 8.0608 40.8904 6.7041 39.2252 6.7041Z" fill="#FFCC00"/>
<path d="M26.6994 42.0505C27.2545 45.8139 30.495 48.7005 34.4059 48.7005C38.3168 48.7005 41.5573 45.8139 42.1124 42.0505H26.6958H26.6994Z" fill="#18202E"/>
<path d="M26.184 34.0654C27.1464 31.417 26.6057 28.7902 24.9765 28.1948C23.3472 27.5995 21.2458 29.2665 20.2834 31.9149C19.321 34.5634 19.8617 37.1902 21.4909 37.7855C23.1202 38.3809 25.2216 36.7139 26.184 34.0654Z" fill="#18202E"/>
<path d="M40.2848 37.7857C41.9141 37.1903 42.4548 34.5635 41.4924 31.915C40.53 29.2666 38.4285 27.6032 36.7993 28.1949C35.17 28.7903 34.6293 31.4171 35.5917 34.0656C36.5542 36.714 38.6556 38.3774 40.2848 37.7857Z" fill="#18202E"/>
</g>
<mask id="mask2_2197_4433" style="mask-type:luminance" maskUnits="userSpaceOnUse" x="8" y="0" width="57" height="70">
<path d="M64.4569 0H8.61548V70H64.4569V0Z" fill="white"/>
</mask>
<g mask="url(#mask2_2197_4433)">
<path d="M36.5434 2.52938V11.4418C36.5434 12.8381 35.3899 13.9711 33.9661 13.9711L11.1927 14.0974C9.76893 14.0974 8.61548 12.9644 8.61548 11.568V2.26959C8.61548 1.63814 8.90024 1.06443 9.3472 0.667526C9.72928 0.328351 10.2267 0.126289 10.7854 0.126289L33.9625 0C35.3863 0 36.5398 1.13299 36.5398 2.52938H36.5434Z" fill="#FFE787"/>
<path d="M42.7424 15.3066C54.8968 18.1219 63.9573 29.0272 63.9573 42.0508C63.9571 57.211 51.6797 69.4999 36.5364 69.5C21.3929 69.5 9.11564 57.2111 9.11548 42.0508C9.11548 34.0697 12.5185 26.8846 17.9504 21.8691C18.3162 21.9985 18.7095 22.0703 19.1194 22.0703H39.2249C41.1679 22.0703 42.7423 20.488 42.7424 18.543V15.3066ZM19.1194 7.2041H39.2249C40.6124 7.2041 41.7424 8.33532 41.7424 9.73145V14.0781C40.0546 13.7653 38.3147 13.6006 36.5364 13.6006C29.3478 13.6006 22.7835 16.2735 17.7786 20.6787C17.073 20.2311 16.6019 19.4431 16.6018 18.543V9.73145C16.6018 8.33532 17.7319 7.2041 19.1194 7.2041Z" fill="#FFCC00" stroke="#F0E16E"/>
<path d="M26.6994 42.0505C27.2545 45.8139 30.495 48.7005 34.4059 48.7005C38.3168 48.7005 41.5573 45.8139 42.1124 42.0505H26.6958H26.6994Z" fill="#18202E"/>
<path d="M26.184 34.0654C27.1464 31.417 26.6057 28.7902 24.9765 28.1948C23.3472 27.5995 21.2458 29.2665 20.2834 31.9149C19.321 34.5634 19.8617 37.1902 21.4909 37.7855C23.1202 38.3809 25.2216 36.7139 26.184 34.0654Z" fill="#18202E"/>
<path d="M40.2848 37.7857C41.9141 37.1903 42.4548 34.5635 41.4924 31.915C40.53 29.2666 38.4285 27.6032 36.7993 28.1949C35.17 28.7903 34.6293 31.4171 35.5917 34.0656C36.5542 36.714 38.6556 38.3774 40.2848 37.7857Z" fill="#18202E"/>
</g>
</g>
</g>
</g>
<defs>
<clipPath id="clip0_2197_4433">
<rect width="70" height="70" fill="white"/>
</clipPath>
<clipPath id="clip1_2197_4433">
<rect width="70" height="70" fill="white" transform="translate(-0.226074 0.19165)"/>
</clipPath>
<clipPath id="clip2_2197_4433">
<rect width="56" height="70" fill="white" transform="translate(8.61548)"/>
</clipPath>
</defs>
</svg>
