<svg width="70" height="70" viewBox="0 0 70 70" fill="none" xmlns="http://www.w3.org/2000/svg">
<g clip-path="url(#clip0_2078_2332)">
<path d="M65.9508 0.233643L60.3641 62.8188L35.2517 69.7806L10.2086 62.8284L4.62769 0.233643H65.9508Z" fill="#E44D26"/>
<path d="M35.2892 64.4591L55.5813 58.8335L60.3553 5.35156H35.2892V64.4591Z" fill="#F16529"/>
<path d="M24.429 20.706H35.2893V13.0291H16.039L16.2227 15.0886L18.1096 36.2444H35.2893V28.5674H25.1306L24.429 20.706ZM26.1592 40.083H18.4526L19.5281 52.1371L35.2539 56.5023L35.2893 56.4927V48.5054L35.2556 48.5143L26.7058 46.2057L26.1592 40.083Z" fill="#EBEBEB"/>
<path d="M35.2628 36.2444H44.7162L43.8249 46.2009L35.2626 48.5119V56.4987L51.0009 52.1371L51.1163 50.84L52.9206 30.6289L53.1078 28.5674H35.2628V36.2444ZM35.2628 20.6873V20.706H53.8064L53.9602 18.9806L54.3102 15.0886L54.4936 13.0291H35.2628V20.6873Z" fill="white"/>
</g>
<defs>
<clipPath id="clip0_2078_2332">
<rect width="70" height="70" fill="white"/>
</clipPath>
</defs>
</svg>
