<svg width="70" height="70" viewBox="0 0 70 70" fill="none" xmlns="http://www.w3.org/2000/svg">
<g clip-path="url(#clip0_2078_2328)">
<path d="M0 0H70V70H0V0Z" fill="#F7DF1E"/>
<path d="M18.4056 58.4969L23.7623 55.2551C24.7959 57.0874 25.736 58.6378 27.991 58.6378C30.1525 58.6378 31.5156 57.7923 31.5156 54.5034V32.1367H38.0937V54.5964C38.0937 61.4096 34.0999 64.5109 28.2729 64.5109C23.0106 64.5109 19.956 61.7856 18.4054 58.4964M41.6667 57.792L47.0228 54.691C48.4329 56.9936 50.2655 58.6851 53.5074 58.6851C56.2333 58.6851 57.9712 57.3223 57.9712 55.4426C57.9712 53.1873 56.1857 52.3883 53.1784 51.0731L51.5342 50.3676C46.7882 48.3478 43.6401 45.8103 43.6401 40.4536C43.6401 35.5197 47.399 31.7605 53.2728 31.7605C57.4547 31.7605 60.462 33.2174 62.6232 37.0233L57.5012 40.3128C56.3733 38.2924 55.1521 37.4937 53.2725 37.4937C51.3458 37.4937 50.1241 38.7154 50.1241 40.3128C50.1241 42.2862 51.3458 43.0855 54.165 44.3072L55.8094 45.0118C61.4012 47.4085 64.5493 49.8517 64.5493 55.3489C64.5493 61.2699 59.8976 64.5117 53.6482 64.5117C47.5399 64.5117 43.5928 61.5985 41.6664 57.7923" fill="black"/>
</g>
<defs>
<clipPath id="clip0_2078_2328">
<rect width="70" height="70" fill="white"/>
</clipPath>
</defs>
</svg>
