<svg width="90" height="55" viewBox="0 0 90 55" fill="none" xmlns="http://www.w3.org/2000/svg">
<g clip-path="url(#clip0_2117_1664)">
<path d="M44.4837 55.0003C44.1867 55.0003 43.8917 54.9225 43.6313 54.7729L40.9179 53.17C40.5126 52.9438 40.7104 52.8638 40.844 52.8177C41.3844 52.629 41.4941 52.5863 42.0708 52.2595C42.1315 52.225 42.2108 52.2372 42.2729 52.2737L44.3574 53.508C44.4327 53.5486 44.5395 53.5486 44.6093 53.508L52.7371 48.8267C52.8123 48.784 52.8612 48.6967 52.8612 48.6074V39.2489C52.8612 39.1555 52.8123 39.0723 52.7354 39.0256L44.6109 34.3483C44.5356 34.3037 44.4359 34.3037 44.3607 34.3483L36.2377 39.0256C36.159 39.0702 36.109 39.1575 36.109 39.2469V48.6054C36.109 48.6947 36.1578 48.78 36.2351 48.8226L38.4608 50.1056C39.6693 50.7085 40.4078 49.998 40.4078 49.2834V40.0467C40.4078 39.9147 40.5116 39.8132 40.6438 39.8132H41.6733C41.8015 39.8132 41.9073 39.9147 41.9073 40.0467V49.2875C41.9073 50.8953 41.0284 51.819 39.5005 51.819C39.0305 51.819 38.6602 51.819 37.6267 51.3115L35.4945 50.0853C34.9676 49.7808 34.6421 49.2124 34.6421 48.6054V39.2469C34.6421 38.6378 34.9676 38.0694 35.4945 37.769L43.6305 33.0856C44.1452 32.7953 44.8288 32.7953 45.3394 33.0856L53.4652 37.771C53.9901 38.0735 54.3177 38.6399 54.3177 39.2489V48.6074C54.3177 49.2144 53.9901 49.7808 53.4652 50.0853L45.3394 54.7686C45.079 54.9189 44.784 54.996 44.4829 54.996" fill="#689F63"/>
<path d="M46.9943 48.5515C43.438 48.5515 42.6924 46.9226 42.6924 45.5564C42.6924 45.4265 42.7974 45.3229 42.9278 45.3229H43.9776C44.0935 45.3229 44.1912 45.4072 44.2095 45.5215C44.3682 46.5889 44.8402 47.1272 46.9907 47.1272C48.7037 47.1272 49.432 46.7411 49.432 45.8347C49.432 45.313 49.2245 44.9252 46.5634 44.6654C44.3377 44.4461 42.9624 43.9569 42.9624 42.1806C42.9624 40.5444 44.3458 39.57 46.6631 39.57C49.2652 39.57 50.5551 40.4713 50.7178 42.408C50.7239 42.475 50.6995 42.5399 50.6548 42.5886C50.61 42.6353 50.5469 42.6638 50.4818 42.6638H49.4259C49.3161 42.6638 49.2205 42.5866 49.1981 42.4811C48.9438 41.3584 48.3293 40.9991 46.659 40.9991C44.7893 40.9991 44.5716 41.6487 44.5716 42.1359C44.5716 42.7267 44.828 42.8992 47.3508 43.2322C49.8491 43.5631 51.0352 44.03 51.0352 45.7819C51.0352 47.5481 49.5582 48.5611 46.9825 48.5611M56.8823 38.6361H57.155C57.3788 38.6361 57.4215 38.4798 57.4215 38.3885C57.4215 38.1489 57.2567 38.1489 57.1651 38.1489H56.8844L56.8823 38.6361ZM56.5507 37.8688H57.155C57.3625 37.8688 57.7694 37.8688 57.7694 38.3316C57.7694 38.6544 57.5619 38.7214 57.4378 38.762C57.6799 38.7782 57.6961 38.9366 57.7287 39.1599C57.745 39.3 57.7714 39.5415 57.8202 39.6227H57.4479C57.4378 39.5415 57.3808 39.0949 57.3808 39.0706C57.3564 38.9711 57.3218 38.9224 57.1977 38.9224H56.8905V39.6248H56.5507V37.8688ZM55.8244 38.7417C55.8244 39.4685 56.4124 40.0572 57.1346 40.0572C57.863 40.0572 58.4509 39.4563 58.4509 38.7417C58.4509 38.0129 57.8548 37.4343 57.1326 37.4343C56.4205 37.4343 55.8224 38.0048 55.8224 38.7397M58.7032 38.7458C58.7032 39.6065 57.9972 40.3089 57.1367 40.3089C56.2822 40.3089 55.5701 39.6146 55.5701 38.7458C55.5701 37.8607 56.2984 37.1826 57.1367 37.1826C57.981 37.1826 58.7012 37.8627 58.7012 38.7458" fill="#689F63"/>
<path fill-rule="evenodd" clip-rule="evenodd" d="M19.3148 18.3821C19.3148 18.0085 19.1174 17.6655 18.7943 17.4797L10.1771 12.5325C10.0316 12.4472 9.86862 12.4026 9.70342 12.3965H9.61431C9.44911 12.4026 9.28615 12.4472 9.13824 12.5325L0.521359 17.4797C0.200316 17.6665 0.00012207 18.0096 0.00012207 18.3831L0.0190428 31.7084C0.0190428 31.8931 0.114664 32.0656 0.277423 32.157C0.436114 32.2544 0.635494 32.2544 0.794184 32.157L5.91703 29.2297C6.24052 29.0376 6.43786 28.6982 6.43786 28.3283V22.1032C6.43786 21.7317 6.63521 21.3886 6.95767 21.2038L9.13865 19.9505C9.30059 19.8571 9.47841 19.8108 9.65948 19.8108C9.8377 19.8108 10.0196 19.8567 10.1771 19.9503L12.357 21.2032C12.6797 21.388 12.8778 21.7311 12.8778 22.1026V28.3273C12.8778 28.6968 13.0778 29.0378 13.3997 29.2286L18.5193 32.1539C18.68 32.2494 18.88 32.2494 19.0401 32.1539C19.198 32.0626 19.2981 31.89 19.2981 31.7053L19.3148 18.3821ZM59.9777 25.32C59.9777 25.4128 59.9283 25.4986 59.8475 25.5445L56.8877 27.2469C56.8074 27.293 56.7081 27.293 56.6279 27.2469L53.6678 25.5445C53.5864 25.4984 53.5375 25.4126 53.5375 25.32V21.9103C53.5375 21.8173 53.5864 21.7317 53.6657 21.685L56.6239 19.9797C56.7053 19.933 56.8049 19.933 56.8863 19.9797L59.8465 21.685C59.9279 21.7317 59.9767 21.8173 59.9767 21.9103L59.9777 25.32ZM60.7773 0.0657298C60.6157 -0.0239985 60.4192 -0.0215625 60.2597 0.0712109C60.101 0.164593 60.003 0.335118 60.003 0.519852V13.7152C60.003 13.8451 59.9338 13.9649 59.8211 14.0298C59.7092 14.0948 59.5698 14.0948 59.4569 14.0298L57.2983 12.7893C56.9769 12.6037 56.5809 12.6037 56.2583 12.7893L47.6381 17.7534C47.3161 17.9381 47.1173 18.2812 47.1173 18.6507V28.5817C47.1173 28.9532 47.3161 29.2942 47.6381 29.481L56.2583 34.4485C56.5801 34.6333 56.9765 34.6333 57.2993 34.4485L65.9195 29.4789C66.2409 29.2922 66.4403 28.9511 66.4403 28.5796V3.82924C66.4403 3.45247 66.2348 3.10594 65.9052 2.92181L60.7773 0.0657298ZM89.4825 21.8206C89.8028 21.635 89.9999 21.2924 89.9999 20.9229V18.5161C89.9999 18.1458 89.8026 17.8041 89.4817 17.6178L80.9165 12.6563C80.593 12.4696 80.1963 12.4696 79.8728 12.6563L71.2547 17.6198C70.9312 17.8066 70.7339 18.1476 70.7339 18.5191V28.4461C70.7339 28.8196 70.9353 29.1647 71.2588 29.3494L79.822 34.2195C80.1373 34.4002 80.5238 34.4022 80.8433 34.2256L86.0231 31.3531C86.1858 31.2617 86.2896 31.0892 86.2896 30.9024C86.2896 30.7157 86.1899 30.5411 86.0271 30.4497L77.3561 25.4842C77.1934 25.3929 77.0937 25.2203 77.0937 25.0356V21.9215C77.0937 21.7355 77.1914 21.5642 77.3541 21.4716L80.0518 19.9186C80.2126 19.8252 80.4099 19.8252 80.5706 19.9186L83.2704 21.4716C83.4311 21.563 83.5308 21.7355 83.5308 21.9203V24.3685C83.5308 24.5532 83.6305 24.7258 83.7912 24.8192C83.952 24.9105 84.1514 24.9105 84.3121 24.8171L89.4825 21.8206Z" fill="#333333"/>
<path fill-rule="evenodd" clip-rule="evenodd" d="M80.2684 21.3561C80.3295 21.3201 80.406 21.3201 80.4678 21.3561L82.1218 22.3081C82.1837 22.3439 82.2215 22.4096 82.2215 22.4807V24.3869C82.2215 24.458 82.1837 24.5237 82.1218 24.5595L80.4678 25.5116C80.406 25.5475 80.3295 25.5475 80.2684 25.5116L78.6154 24.5595C78.5523 24.5237 78.5137 24.458 78.5137 24.3869V22.4807C78.5137 22.4096 78.5503 22.3439 78.6134 22.3081L80.2684 21.3561Z" fill="#689F63"/>
<mask id="mask0_2117_1664" style="mask-type:luminance" maskUnits="userSpaceOnUse" x="23" y="12" width="20" height="23">
<path d="M32.6992 12.7059L24.1278 17.6424C23.8068 17.8271 23.6099 18.1682 23.6099 18.5368V28.4167C23.6099 28.7855 23.8068 29.1264 24.1278 29.3111L32.6998 34.2515C33.0202 34.4356 33.4153 34.4356 33.7353 34.2515L42.3058 29.3111C42.6252 29.1264 42.8226 28.7853 42.8226 28.4167V18.5368C42.8226 18.1682 42.6252 17.8271 42.3038 17.6424L33.7345 12.7059C33.5738 12.614 33.3947 12.5679 33.2157 12.5679C33.0367 12.5679 32.8576 12.614 32.6969 12.7059" fill="white"/>
</mask>
<g mask="url(#mask0_2117_1664)">
<path d="M51.4843 16.8041L27.3318 4.99121L14.9479 30.1992L39.0997 42.0127L51.4843 16.8041Z" fill="url(#paint0_linear_2117_1664)"/>
</g>
<mask id="mask1_2117_1664" style="mask-type:luminance" maskUnits="userSpaceOnUse" x="23" y="12" width="20" height="23">
<path d="M23.8223 29.044C23.9043 29.1502 24.0068 29.2422 24.1274 29.3112L31.4801 33.5489L32.7049 34.2513C32.888 34.3569 33.0967 34.4016 33.3018 34.3863C33.3701 34.3808 33.4385 34.3681 33.5052 34.3492L42.5453 17.8327C42.4761 17.7576 42.3951 17.6946 42.3044 17.6418L36.6921 14.408L33.7254 12.7048C33.6411 12.656 33.5498 12.6215 33.4568 12.5972L23.8223 29.044Z" fill="white"/>
</mask>
<g mask="url(#mask1_2117_1664)">
<path d="M13.3796 20.2981L30.4338 43.3297L52.9881 26.7023L35.933 3.67139L13.3796 20.2981Z" fill="url(#paint1_linear_2117_1664)"/>
</g>
<mask id="mask2_2117_1664" style="mask-type:luminance" maskUnits="userSpaceOnUse" x="24" y="12" width="19" height="23">
<path d="M33.1135 12.5734C32.9697 12.5876 32.8291 12.6323 32.6995 12.7058L24.1526 17.6281L33.3688 34.378C33.497 34.3598 33.6231 34.3171 33.7371 34.2513L42.3084 29.311C42.5729 29.1579 42.7539 28.8989 42.8089 28.6054L33.4136 12.5903C33.3444 12.5767 33.2752 12.5696 33.204 12.5696C33.1756 12.5696 33.1471 12.571 33.1186 12.5736" fill="white"/>
</mask>
<g mask="url(#mask2_2117_1664)">
<path d="M24.1523 12.5696V34.3784H42.8052V12.5696H24.1523Z" fill="url(#paint2_linear_2117_1664)"/>
</g>
</g>
<defs>
<linearGradient id="paint0_linear_2117_1664" x1="39.4008" y1="10.8791" x2="27.0613" y2="36.1067" gradientUnits="userSpaceOnUse">
<stop offset="0.3" stop-color="#3E863D"/>
<stop offset="0.5" stop-color="#55934F"/>
<stop offset="0.8" stop-color="#5AAD45"/>
</linearGradient>
<linearGradient id="paint1_linear_2117_1664" x1="22.0089" y1="31.9459" x2="44.5293" y2="15.2696" gradientUnits="userSpaceOnUse">
<stop offset="0.57" stop-color="#3E863D"/>
<stop offset="0.72" stop-color="#619857"/>
<stop offset="1" stop-color="#76AC64"/>
</linearGradient>
<linearGradient id="paint2_linear_2117_1664" x1="24.1586" y1="23.4746" x2="42.8087" y2="23.4746" gradientUnits="userSpaceOnUse">
<stop offset="0.16" stop-color="#6BBF47"/>
<stop offset="0.38" stop-color="#79B461"/>
<stop offset="0.47" stop-color="#75AC64"/>
<stop offset="0.7" stop-color="#659E5A"/>
<stop offset="0.9" stop-color="#3E863D"/>
</linearGradient>
<clipPath id="clip0_2117_1664">
<rect width="90" height="55" fill="white"/>
</clipPath>
</defs>
</svg>
