<svg width="72" height="72" viewBox="0 0 72 72" fill="none" xmlns="http://www.w3.org/2000/svg">
<g clip-path="url(#clip0_2197_4373)">
<g filter="url(#filter0_d_2197_4373)">
<path d="M70.054 34.0541C70.054 34.1557 70.054 34.2572 70.054 34.3581C69.8907 53.0248 54.707 68.1082 36 68.1082C17.6694 68.1082 2.72097 53.6245 1.97556 35.4775C1.96926 35.3242 1.96358 35.171 1.96043 35.0171C1.95076 34.6976 1.94592 34.3766 1.94592 34.0541C1.94592 33.5664 1.95622 33.0813 1.97682 32.5986C12.5664 36.5565 24.03 38.7208 36 38.7208C47.97 38.7208 59.4336 36.5565 70.0231 32.5986C70.0425 33.0485 70.0526 33.5006 70.0534 33.9551C70.054 33.9911 70.054 34.0213 70.054 34.0541Z" fill="white"/>
</g>
<path d="M70.0231 32.5986C59.4336 36.5564 47.97 38.7207 36 38.7207C24.03 38.7207 12.5664 36.5564 1.97681 32.5986C2.01885 31.6068 2.10293 30.6262 2.22906 29.6567C4.38392 12.9279 18.6828 0 36 0C52.9519 0 67.0112 12.3868 69.6201 28.6023C69.8325 29.9253 69.967 31.2597 70.0231 32.5986Z" fill="#ED1C24"/>
<path opacity="0.07" d="M70.0541 34.0541C70.0541 34.1556 70.0541 34.2571 70.0541 34.358C69.8908 53.0247 54.7071 68.1081 36 68.1081C34.7048 68.1085 33.4106 68.0357 32.1236 67.8899C49.0049 65.9747 62.1416 51.7161 62.2961 34.358C62.2961 34.2571 62.2961 34.1556 62.2961 34.0541C62.2961 34.0213 62.2961 33.991 62.2961 33.955C62.2961 33.501 62.286 33.0488 62.2658 32.5986C62.2097 31.2597 62.0752 29.9253 61.8628 28.6023C59.4595 13.6418 47.3028 1.93982 32.1229 0.218831C33.4101 0.0725708 34.7046 -0.000489737 36 2.47037e-06C52.952 2.47037e-06 67.0113 12.3868 69.6202 28.6023C69.8325 29.9253 69.9671 31.2597 70.0232 32.5986C70.0425 33.0484 70.0526 33.5006 70.0535 33.955C70.0541 33.991 70.0541 34.0213 70.0541 34.0541Z" fill="black"/>
<path d="M70.054 33.9551C64.9026 36.2541 59.5374 38.0404 54.036 39.2883C47.7125 40.7161 41.2497 41.4352 34.7671 41.4325C28.7636 41.4341 22.7759 40.8175 16.8988 39.5923C11.7909 38.5235 6.79081 36.9921 1.96043 35.0171C1.95076 34.6976 1.94592 34.3766 1.94592 34.0541C1.94592 33.5664 1.95622 33.0812 1.97682 32.5986C2.01887 31.6068 2.10295 30.6262 2.22908 29.6567L2.32178 29.6945C12.5575 34.1354 23.4738 36.3874 34.7646 36.3874C46.9736 36.3874 58.6957 33.7703 69.605 28.6092L69.6202 28.6023C69.8325 29.9254 69.967 31.2598 70.0231 32.5986C70.0437 33.0485 70.054 33.5006 70.054 33.9551Z" fill="black"/>
<path d="M36 45.4055C39.9705 45.4055 43.1892 42.1868 43.1892 38.2163C43.1892 34.2458 39.9705 31.0271 36 31.0271C32.0295 31.0271 28.8108 34.2458 28.8108 38.2163C28.8108 42.1868 32.0295 45.4055 36 45.4055Z" fill="white"/>
<path d="M46.6899 33.6983C45.5696 31.0422 43.5024 28.8971 40.8896 27.6794C38.2768 26.4616 35.3048 26.258 32.5503 27.1081C29.7959 27.9582 27.4555 29.8014 25.9835 32.2798C24.5115 34.7583 24.0128 37.6953 24.5843 40.5207C25.1558 43.3462 26.7566 45.8585 29.0761 47.5701C31.3956 49.2817 34.2683 50.0705 37.1367 49.7833C40.005 49.4962 42.6643 48.1536 44.5984 46.0161C46.5326 43.8786 47.6036 41.0988 47.6036 38.2162C47.6052 36.6642 47.2945 35.1277 46.6899 33.6983ZM36 45.4053C34.5781 45.4053 33.1882 44.9837 32.0059 44.1937C30.8237 43.4038 29.9022 42.281 29.3581 40.9673C28.814 39.6537 28.6716 38.2082 28.949 36.8136C29.2264 35.419 29.9111 34.1381 30.9165 33.1326C31.9219 32.1272 33.2029 31.4425 34.5975 31.1651C35.9921 30.8877 37.4376 31.0301 38.7512 31.5742C40.0649 32.1183 41.1877 33.0398 41.9776 34.2221C42.7676 35.4043 43.1892 36.7943 43.1892 38.2162C43.1892 40.1228 42.4318 41.9514 41.0836 43.2997C39.7353 44.6479 37.9067 45.4053 36 45.4053Z" fill="black"/>
</g>
<defs>
<filter id="filter0_d_2197_4373" x="-0.0540771" y="32.5986" width="72.1082" height="39.5095" filterUnits="userSpaceOnUse" color-interpolation-filters="sRGB">
<feFlood flood-opacity="0" result="BackgroundImageFix"/>
<feColorMatrix in="SourceAlpha" type="matrix" values="0 0 0 0 0 0 0 0 0 0 0 0 0 0 0 0 0 0 127 0" result="hardAlpha"/>
<feOffset dy="2"/>
<feGaussianBlur stdDeviation="1"/>
<feComposite in2="hardAlpha" operator="out"/>
<feColorMatrix type="matrix" values="0 0 0 0 0 0 0 0 0 0 0 0 0 0 0 0 0 0 0.25 0"/>
<feBlend mode="normal" in2="BackgroundImageFix" result="effect1_dropShadow_2197_4373"/>
<feBlend mode="normal" in="SourceGraphic" in2="effect1_dropShadow_2197_4373" result="shape"/>
</filter>
<clipPath id="clip0_2197_4373">
<rect width="72" height="72" fill="white"/>
</clipPath>
</defs>
</svg>
