<svg width="72" height="72" viewBox="0 0 72 72" fill="none" xmlns="http://www.w3.org/2000/svg">
<g filter="url(#filter0_d_2117_1594)">
<path d="M35.6607 0.0197754C17.9349 0.0197754 19.0416 7.73762 19.0416 7.73762L19.0613 15.7335H35.9767V18.1341H12.3428C12.3428 18.1341 1 16.8426 1 34.7996C1 52.7572 10.9002 52.1204 10.9002 52.1204H16.8087V43.7873C16.8087 43.7873 16.4901 33.8473 26.5509 33.8473H43.328C43.328 33.8473 52.7538 34.0002 52.7538 24.701V9.32511C52.7538 9.32511 54.1854 0.0197754 35.6607 0.0197754ZM26.3335 5.39687C26.7332 5.39651 27.1291 5.47529 27.4985 5.62871C27.8678 5.78212 28.2034 6.00716 28.4861 6.29094C28.7687 6.57473 28.9929 6.91168 29.1457 7.28253C29.2985 7.65338 29.3769 8.05084 29.3766 8.45217C29.3769 8.8535 29.2985 9.25096 29.1457 9.62181C28.9929 9.99265 28.7687 10.3296 28.4861 10.6134C28.2034 10.8972 27.8678 11.1222 27.4985 11.2756C27.1291 11.429 26.7332 11.5078 26.3335 11.5075C25.9338 11.5078 25.5379 11.429 25.1686 11.2756C24.7992 11.1222 24.4636 10.8972 24.1809 10.6134C23.8983 10.3296 23.6741 9.99265 23.5213 9.62181C23.3685 9.25096 23.2901 8.8535 23.2904 8.45217C23.2901 8.05084 23.3685 7.65338 23.5213 7.28253C23.6741 6.91168 23.8983 6.57473 24.1809 6.29094C24.4636 6.00716 24.7992 5.78212 25.1686 5.62871C25.5379 5.47529 25.9338 5.39651 26.3335 5.39687Z" fill="url(#paint0_linear_2117_1594)"/>
<path d="M36.164 69.7601C53.8898 69.7601 52.7831 62.0423 52.7831 62.0423L52.7634 54.0466H35.8477V51.646H59.4816C59.4816 51.646 70.8244 52.9376 70.8244 34.98C70.8244 17.0227 60.9242 17.6595 60.9242 17.6595H55.0157V25.9923C55.0157 25.9923 55.3343 35.9323 45.2735 35.9323H28.4964C28.4964 35.9323 19.0706 35.7794 19.0706 45.0789V60.4551C19.0706 60.4551 17.6393 69.7601 36.1637 69.7601H36.164ZM45.4912 64.3836C45.0914 64.3839 44.6956 64.3052 44.3262 64.1517C43.9568 63.9983 43.6212 63.7733 43.3386 63.4895C43.0559 63.2057 42.8318 62.8688 42.679 62.4979C42.5262 62.1271 42.4477 61.7296 42.4481 61.3283C42.4477 60.9269 42.5261 60.5294 42.6789 60.1586C42.8317 59.7877 43.0558 59.4507 43.3385 59.1669C43.6211 58.8831 43.9568 58.658 44.3261 58.5046C44.6955 58.3511 45.0914 58.2724 45.4912 58.2727C45.8909 58.2724 46.2868 58.3511 46.6561 58.5045C47.0255 58.658 47.3611 58.883 47.6437 59.1668C47.9264 59.4506 48.1505 59.7875 48.3033 60.1584C48.4561 60.5292 48.5346 60.9267 48.5342 61.328C48.5346 61.7293 48.4561 62.1268 48.3033 62.4976C48.1505 62.8685 47.9264 63.2054 47.6437 63.4892C47.3611 63.773 47.0255 63.998 46.6561 64.1515C46.2868 64.3049 45.8909 64.3839 45.4912 64.3836Z" fill="url(#paint1_linear_2117_1594)"/>
</g>
<defs>
<filter id="filter0_d_2117_1594" x="-0.0396729" y="0" width="72" height="72" filterUnits="userSpaceOnUse" color-interpolation-filters="sRGB">
<feFlood flood-opacity="0" result="BackgroundImageFix"/>
<feColorMatrix in="SourceAlpha" type="matrix" values="0 0 0 0 0 0 0 0 0 0 0 0 0 0 0 0 0 0 127 0" result="hardAlpha"/>
<feOffset dy="1"/>
<feGaussianBlur stdDeviation="0.5"/>
<feComposite in2="hardAlpha" operator="out"/>
<feColorMatrix type="matrix" values="0 0 0 0 0 0 0 0 0 0 0 0 0 0 0 0 0 0 0.2 0"/>
<feBlend mode="normal" in2="BackgroundImageFix" result="effect1_dropShadow_2117_1594"/>
<feBlend mode="normal" in="SourceGraphic" in2="effect1_dropShadow_2117_1594" result="shape"/>
</filter>
<linearGradient id="paint0_linear_2117_1594" x1="672.011" y1="627.292" x2="4146.03" y2="4052.89" gradientUnits="userSpaceOnUse">
<stop stop-color="#387EB8"/>
<stop offset="1" stop-color="#366994"/>
</linearGradient>
<linearGradient id="paint1_linear_2117_1594" x1="1009.48" y1="1089.89" x2="4739.49" y2="4601.88" gradientUnits="userSpaceOnUse">
<stop stop-color="#FFE052"/>
<stop offset="1" stop-color="#FFC331"/>
</linearGradient>
</defs>
</svg>
