<svg width="70" height="70" viewBox="0 0 70 70" fill="none" xmlns="http://www.w3.org/2000/svg">
<g clip-path="url(#clip0_2197_4917)">
<path d="M70 27.1184V61.6388H0V27.1184C4.27259 27.1184 6.50806 29.3869 8.14074 31.0423C9.53815 32.4598 10.1656 33.0347 11.6667 33.0347C13.1678 33.0347 13.7945 32.4598 15.1919 31.0423C16.8246 29.3863 19.0601 27.1184 23.3327 27.1184C27.6053 27.1184 29.8414 29.3869 31.4741 31.0423C32.8715 32.4598 33.4982 33.0347 34.9994 33.0347C36.5005 33.0347 37.1272 32.4598 38.5246 31.0423C40.1573 29.3863 42.3934 27.1184 46.6667 27.1184C50.9399 27.1184 53.1754 29.3869 54.8074 31.0416C56.2055 32.4598 56.8322 33.0347 58.3333 33.0347C59.8344 33.0347 60.4619 32.4598 61.8593 31.0416C63.4913 29.3863 65.7274 27.1184 70 27.1184Z" fill="#3CC2D8"/>
<path d="M10.2408 52.824C13.6112 45.111 16.4851 37.1919 15.0896 29.1666C14.4447 25.4618 13.735 21.8166 12.9579 18.4177L18.7594 12.9525L18.1761 12.8708L11.2863 11.9005C9.87528 7.05499 8.28926 3.20888 6.52954 1.18083C6.52954 1.18083 17.5027 -1.75852 29.9627 1.63777C30.7284 1.84604 31.5001 2.08003 32.2779 2.33972C42.1045 5.62194 52.4781 13.1022 58.9096 29.173C60.635 33.4806 63.4538 42.648 63.4538 50.8795" fill="#57AEC3"/>
<path opacity="0.07" d="M63.4536 50.8797H52.8888C52.8888 42.6482 50.07 33.4808 48.3446 29.1712C41.9131 13.1023 31.5394 5.62206 21.7129 2.33984C20.9386 2.08058 20.1668 1.8466 19.3977 1.6379C16.9826 0.98384 14.5185 0.526693 12.0295 0.270953C16.4091 -0.178214 22.9502 -0.273491 29.9625 1.6379C30.7282 1.84617 31.4999 2.08015 32.2777 2.33984C42.1043 5.62206 52.4779 13.1023 58.9095 29.1732C60.6348 33.4808 63.4536 42.6482 63.4536 50.8797Z" fill="black"/>
<path d="M70 38.4612V65.7223H0V38.4612C4.27259 38.4612 6.50806 40.7297 8.14074 42.3851C9.53815 43.8026 10.1656 44.3775 11.6667 44.3775C13.1678 44.3775 13.7945 43.8026 15.1919 42.3851C16.8246 40.7291 19.0601 38.4612 23.3327 38.4612C27.6053 38.4612 29.8414 40.7297 31.4741 42.3851C32.8715 43.8026 33.4982 44.3775 34.9994 44.3775C36.5005 44.3775 37.1272 43.8026 38.5246 42.3851C40.1573 40.7291 42.3934 38.4612 46.6667 38.4612C50.9399 38.4612 53.1754 40.7297 54.8074 42.3844C56.2055 43.8026 56.8322 44.3775 58.3333 44.3775C59.8344 44.3775 60.4619 43.8026 61.8593 42.3844C63.4913 40.729 65.7274 38.4612 70 38.4612Z" fill="#315FAD"/>
<path d="M70 54.0166V64.8147C70 66.1899 69.4537 67.5088 68.4813 68.4812C67.5089 69.4536 66.19 69.9999 64.8148 69.9999H5.18518C3.80999 69.9999 2.49112 69.4536 1.51871 68.4812C0.546295 67.5088 0 66.1899 0 64.8147L0 54.0166C4.27259 54.0166 6.50806 56.2851 8.14074 57.9405C9.53815 59.358 10.1656 59.9329 11.6667 59.9329C13.1678 59.9329 13.7945 59.358 15.1919 57.9405C16.8246 56.2845 19.0601 54.0166 23.3327 54.0166C27.6053 54.0166 29.8414 56.2851 31.4741 57.9405C32.8715 59.358 33.4982 59.9329 34.9994 59.9329C36.5005 59.9329 37.1272 59.358 38.5246 57.9405C40.1573 56.2845 42.3934 54.0166 46.6667 54.0166C50.9399 54.0166 53.1754 56.2851 54.8074 57.9398C56.2055 59.358 56.8322 59.9329 58.3333 59.9329C59.8344 59.9329 60.4619 59.358 61.8593 57.9398C63.4913 56.2845 65.7274 54.0166 70 54.0166Z" fill="#2F318D"/>
</g>
<defs>
<clipPath id="clip0_2197_4917">
<rect width="70" height="70" fill="white"/>
</clipPath>
</defs>
</svg>
