<svg width="70" height="69" viewBox="0 0 70 69" fill="none" xmlns="http://www.w3.org/2000/svg">
<g clip-path="url(#clip0_2197_4332)">
<path d="M0.97937 32.4229L12.5274 64.9257C13.3888 67.3535 15.8647 68.9999 18.6589 68.9999H51.3411C54.1353 68.9999 56.6112 67.356 57.4726 64.9257L68.2831 34.4999L69.0207 32.426L0.97937 32.4229ZM23.3489 64.4312C23.1551 64.4861 22.9543 64.5139 22.7526 64.5136C22.2742 64.5123 21.8094 64.3569 21.4289 64.0711C21.0483 63.7853 20.773 63.3848 20.6448 62.9304L14.9269 42.8962C14.8448 42.622 14.8187 42.3345 14.8502 42.0503C14.8816 41.7661 14.9699 41.4909 15.11 41.2406C15.2501 40.9903 15.4391 40.7699 15.6662 40.5921C15.8933 40.4143 16.1539 40.2827 16.433 40.2048C16.712 40.127 17.0039 40.1045 17.2919 40.1387C17.5798 40.1728 17.858 40.2629 18.1104 40.4038C18.3627 40.5446 18.5842 40.7334 18.762 40.9593C18.9399 41.1851 19.0705 41.4434 19.1463 41.7193L24.8643 61.7536C25.0214 62.3063 24.9502 62.8978 24.6663 63.3989C24.3823 63.9 23.9087 64.27 23.3489 64.428V64.4312ZM37.1921 62.3427C37.1921 62.9157 36.9611 63.4653 36.55 63.8705C36.1389 64.2757 35.5814 64.5034 35 64.5034C34.4187 64.5034 33.8611 64.2757 33.45 63.8705C33.0389 63.4653 32.808 62.9157 32.808 62.3427V42.3058C32.808 41.7328 33.0389 41.1832 33.45 40.778C33.8611 40.3727 34.4187 40.1451 35 40.1451C35.5814 40.1451 36.1389 40.3727 36.55 40.778C36.9611 41.1832 37.1921 41.7328 37.1921 42.3058V62.3427ZM45.1358 61.7523L50.8537 41.7193C50.9322 41.4462 51.0645 41.191 51.243 40.9683C51.4215 40.7456 51.6428 40.5598 51.8942 40.4214C52.1456 40.283 52.4222 40.1947 52.7082 40.1617C52.9942 40.1286 53.284 40.1514 53.561 40.2288C53.8381 40.3062 54.097 40.4365 54.3229 40.6125C54.5488 40.7885 54.7374 41.0066 54.8778 41.2544C55.0182 41.5022 55.1077 41.7749 55.1413 42.0568C55.1748 42.3387 55.1516 42.6243 55.0732 42.8974L49.3552 62.9304C49.2266 63.3837 48.9514 63.7833 48.5714 64.0684C48.1915 64.3536 47.7276 64.5088 47.25 64.5104C47.0483 64.5107 46.8476 64.4829 46.6537 64.428C46.0932 64.2705 45.6187 63.9006 45.3342 63.3991C45.0497 62.8977 44.9784 62.3055 45.1358 61.7523Z" fill="#F9B469"/>
<g opacity="0.7">
<path d="M68.283 34.5L57.4726 64.9258C56.6112 67.3536 54.1353 69 51.3411 69H45.6238C48.4179 69 50.8932 67.3561 51.7546 64.9258L62.5651 34.5H68.283Z" fill="#F4A085"/>
</g>
<path d="M2.5848 27.5464C2.59228 27.6942 2.59033 27.8422 2.57897 27.9898C2.56989 28.0581 2.49989 28.1144 2.45776 28.1763V27.5464H2.5848Z" fill="#FCB2D0"/>
<path d="M2.45779 31.4832C2.49992 31.547 2.56992 31.6013 2.579 31.6697C2.59036 31.8172 2.59231 31.9653 2.58483 32.1131H2.4552L2.45779 31.4832Z" fill="#FCBAD3"/>
<path d="M17.839 25.9714L17.7094 26.1286V25.9714H17.839Z" fill="#FB9EC2"/>
<path d="M35.0648 30.4502V30.6074L34.9352 30.4502H35.0648Z" fill="#FB9EC2"/>
<path d="M66.5765 27.4014H3.42352C1.53276 27.4014 0 28.9122 0 30.776V31.6014C0 33.4652 1.53276 34.976 3.42352 34.976H66.5765C68.4672 34.976 70 33.4652 70 31.6014V30.776C70 28.9122 68.4672 27.4014 66.5765 27.4014Z" fill="#981E72"/>
<path d="M70.0001 31.1881C70.0001 32.2339 69.6578 33.1808 69.1069 33.8669C68.556 34.5531 67.7918 34.9754 66.9492 34.9754H61.8645C62.7071 34.9754 63.4693 34.5505 64.0222 33.8669C64.3091 33.5054 64.5299 33.0975 64.6749 32.6613C64.8358 32.1864 64.9171 31.6888 64.9153 31.1881C64.9153 29.097 63.549 27.4014 61.8645 27.4014H66.9492C68.6338 27.4014 70.0001 29.097 70.0001 31.1881Z" fill="#4C0F4B"/>
<path d="M7.1608 32.6939C6.5353 32.6902 5.92675 32.493 5.42109 32.1301C4.91543 31.7671 4.53819 31.2568 4.34265 30.6711C3.80922 29.1091 4.6395 27.4083 6.19635 26.8749L35.713 16.7427C37.2686 16.208 38.9635 17.0411 39.4963 18.6038C40.029 20.1665 39.1981 21.8653 37.6413 22.3995L8.12524 32.5322C7.81518 32.6388 7.48918 32.6935 7.1608 32.6939Z" fill="#B6D384"/>
<path d="M61.8657 33.7262C61.441 33.7261 61.0214 33.6357 60.6355 33.461C60.2496 33.2863 59.9064 33.0316 59.6296 32.7142L35.2443 4.96662C34.722 4.36855 34.4573 3.59307 34.5066 2.80542C34.5558 2.01777 34.9152 1.28023 35.5081 0.749951C35.7996 0.490576 36.1408 0.291335 36.5116 0.163966C36.8824 0.0365979 37.2754 -0.0163207 37.6673 0.00832876C38.0592 0.0329782 38.4421 0.134697 38.7935 0.307491C39.1449 0.480286 39.4576 0.72066 39.7133 1.01445L64.1018 28.7595C64.6249 29.3579 64.89 30.1341 64.8406 30.9224C64.7912 31.7108 64.4312 32.4489 63.8374 32.9793C63.2969 33.4607 62.5942 33.7269 61.8657 33.7262Z" fill="#A4C865"/>
</g>
<defs>
<clipPath id="clip0_2197_4332">
<rect width="70" height="69" fill="white"/>
</clipPath>
</defs>
</svg>
