<svg width="70" height="67" viewBox="0 0 70 67" fill="none" xmlns="http://www.w3.org/2000/svg">
<path d="M69.9845 29.1288C69.9282 30.1535 69.7592 31.1711 69.4634 32.1602C68.8437 34.1954 67.6606 36.0669 66.0128 37.3905C63.7524 39.2194 60.6116 39.8456 57.7808 39.4827C55.0696 39.1411 52.6331 37.0988 50.9712 34.9995C50.7388 34.7078 50.2599 34.7362 49.9923 34.9426C49.7036 35.1703 49.6121 35.5831 49.8022 35.9104C50.8656 37.7321 52.4148 39.1838 54.2668 40.1587C55.64 40.8774 57.1892 41.3044 58.7385 41.4538C58.7244 41.7883 58.7244 42.1299 58.7103 42.4714C58.6751 43.3396 58.6821 44.2078 58.6751 45.0759C58.661 46.8336 58.6469 48.5913 58.6469 50.3418C58.6469 53.8358 58.6469 57.3298 58.6328 60.8238V65.8692C58.5483 65.8905 58.4638 65.9119 58.3793 65.9332C58.1117 65.9901 57.8441 66.0471 57.5765 66.104C57.3301 66.1467 57.0907 66.1894 56.8442 66.2321C56.7386 66.2463 56.6259 66.2605 56.5203 66.2748C56.5203 66.2748 56.5109 66.2771 56.4921 66.2819C56.4146 66.289 56.3372 66.3032 56.2527 66.3175C54.4851 66.6092 52.6753 66.6092 50.9008 66.4171C49.2389 66.2321 47.4713 66.0826 45.8939 65.5062C44.5771 65.0223 43.4363 64.0261 42.6757 62.8519C41.8518 61.571 41.4011 59.9415 41.6054 58.4115C41.6617 57.9489 41.9363 56.2909 43.2602 54.9744C43.556 54.6755 44.901 53.6935 46.7319 53.2594C47.9009 52.989 49.1051 52.9321 50.2811 52.7115C50.4642 52.6759 50.6965 52.5692 50.6613 52.3842C50.6332 52.2347 50.4501 52.1849 50.3022 52.1707C49.9149 52.1351 49.5346 52.1137 49.1473 52.1137C48.9572 52.1066 48.767 52.1137 48.5769 52.1137H48.5487C48.1896 52.0497 47.8305 52.007 47.4713 51.9714C46.7742 51.886 46.0841 51.7722 45.401 51.5943C44.3799 51.3239 43.394 50.9182 42.5419 50.2778C41.7251 49.6587 41.1124 48.8546 40.6969 47.9152C40.4998 47.4598 40.3378 46.9973 40.2181 46.5276C40.1054 45.8658 39.9998 45.1329 39.9082 44.3074C39.9012 44.2932 39.9012 44.2789 39.9012 44.2576C39.8801 43.9943 39.873 43.7239 39.866 43.4535C39.8589 43.0194 39.9153 42.5497 39.7956 42.1299C39.7674 41.9804 39.7181 41.8452 39.6336 41.6958C39.5068 41.4965 39.2111 41.4894 39.0843 41.6958C38.8027 42.1797 38.9012 42.7774 38.8872 43.3111C38.8731 43.852 38.8449 44.3857 38.7886 44.9265C38.69 45.9227 38.4576 46.8549 38.0562 47.7729C37.6478 48.7123 37.0281 49.5164 36.2112 50.1284C35.3591 50.7688 34.3733 51.1815 33.3522 51.452C32.6691 51.6299 31.979 51.7437 31.2818 51.822C30.9227 51.8647 30.5635 51.9074 30.2114 51.9643C29.8734 52.0212 29.5284 52.0426 29.2115 52.1778C29.127 52.2134 29.0988 52.2916 29.0988 52.377C29.0636 52.5621 29.296 52.6688 29.4791 52.7044C30.6551 52.925 31.8663 52.9819 33.0282 53.2523C34.7887 53.6722 36.1056 54.5759 36.4999 54.9673C39.0139 57.4295 38.8872 61.7489 36.0633 63.898C34.7113 64.9298 33.1479 65.5703 31.5213 66.0186C30.7114 66.2463 28.9439 66.659 26.5778 66.78H23.599C22.4794 66.7302 21.3597 66.5879 20.3034 66.2036C20.4935 65.4707 20.5921 64.6808 20.6555 63.8838C20.7259 63.0512 20.747 62.2115 20.7893 61.4287C20.8738 59.7849 20.9442 58.1482 21.0005 56.5115C21.1062 53.0531 21.1343 49.5875 21.0851 46.1291C21.0639 44.3785 21.0569 42.6209 20.8597 40.8774C22.3174 40.358 23.7328 39.6036 24.8525 38.522C25.1483 38.2374 25.3243 37.9669 25.606 37.5969C25.8313 37.3123 26.0215 36.992 26.2116 36.6718C26.4158 36.3089 25.9511 35.9816 25.6553 36.2377C25.3877 36.4726 25.106 36.7003 24.8173 36.8995C24.6765 36.9992 24.5356 37.0917 24.3948 37.1842L24.3666 37.1984C24.3666 37.1984 24.3948 37.1913 24.4018 37.1913C24.3948 37.1984 24.3666 37.2126 24.3173 37.2269C24.3032 37.234 24.1272 37.355 24.1061 37.3692C24.0779 37.3834 24.0497 37.4048 24.0427 37.4119C24.0004 37.4404 23.9511 37.4759 23.9018 37.5044C23.2962 37.9171 22.6625 38.3085 22.0075 38.6359C21.8526 38.7141 21.6907 38.7853 21.5287 38.8636L21.4512 38.892C21.4512 38.892 21.409 38.9134 21.4019 38.9205C21.3034 38.9561 21.2048 38.9988 21.1062 39.0344C20.7541 39.1696 20.3949 39.2905 20.0358 39.3902C19.6837 39.4898 19.3316 39.5752 18.9725 39.6463C18.7894 39.6819 18.5992 39.7175 18.4161 39.746C18.3809 39.746 18.3457 39.746 18.3105 39.7602C18.2119 39.7673 18.1133 39.7816 18.0148 39.7958C17.2613 39.8741 16.5078 39.8954 15.7543 39.8527C15.5782 39.8456 15.4022 39.8314 15.2261 39.81C15.1416 39.8029 15.0642 39.7958 14.9797 39.7887C14.9304 39.7816 14.8881 39.7744 14.8318 39.7673H14.8036C14.4304 39.7033 14.0501 39.6321 13.6769 39.5467C12.9093 39.3688 12.1558 39.1198 11.4164 38.8209C11.3812 38.8066 11.353 38.7924 11.3178 38.7782C11.3038 38.7711 11.2897 38.7639 11.2756 38.7639C11.2685 38.7639 11.2615 38.7568 11.2474 38.7568C11.184 38.7284 11.1207 38.6928 11.0643 38.6714C10.8883 38.586 10.7052 38.5007 10.5291 38.4153C10.177 38.2374 9.82494 38.0452 9.48693 37.8389C9.14187 37.6396 8.80385 37.419 8.47992 37.1913C8.325 37.0845 8.17008 36.9778 8.01515 36.8639C7.97994 36.8355 7.93769 36.807 7.8884 36.7714C7.86023 36.743 7.71235 36.6362 7.65601 36.5935C7.64897 36.5935 7.62785 36.5722 7.61376 36.558C7.00111 36.0954 6.42367 35.5617 5.88144 35.0138C5.33921 34.4658 4.78289 33.8467 4.28995 33.2063C4.28995 33.1992 4.26883 33.1778 4.25474 33.1636C4.2477 33.1565 4.2477 33.1493 4.24066 33.1422C4.17728 33.064 4.12094 32.9786 4.05757 32.9003C3.93785 32.7295 3.81814 32.5658 3.70547 32.4022C3.47308 32.0606 3.25478 31.719 3.04352 31.3703C2.621 30.6729 2.24074 29.9542 1.89568 29.207C1.81822 29.0362 1.74076 28.8583 1.6633 28.6876C1.64921 28.6591 1.64217 28.6377 1.63513 28.6093C1.58583 28.4954 1.53654 28.3744 1.48725 28.2535C1.34641 27.8906 1.21261 27.5134 1.08585 27.1434C0.832343 26.3606 0.621084 25.5778 0.445035 24.7737C0.367573 24.3894 0.297153 23.998 0.233776 23.6067C0.21265 23.4999 0.198566 23.4003 0.184482 23.3007C0.184482 23.2864 0.17744 23.2722 0.17744 23.2509C0.17744 23.2509 0.17744 23.2224 0.170398 23.1939C0.170398 23.1868 0.170398 23.1797 0.163356 23.1512C0.14223 22.9591 0.121104 22.7741 0.0999782 22.5891C-0.0549452 20.9666 -0.0267773 19.3512 0.163356 17.7288C0.163356 17.7003 0.170398 17.6647 0.17744 17.6291C0.191524 17.5366 0.198566 17.4512 0.219692 17.3587C0.24786 17.1452 0.283069 16.9318 0.325321 16.7254C0.395741 16.3411 0.480245 15.964 0.578832 15.5939C0.754882 14.861 0.980225 14.1351 1.24078 13.4235C1.30416 13.2385 1.37458 13.0606 1.44499 12.8827C1.47316 12.8044 1.50837 12.7262 1.53654 12.6479C1.54358 12.6265 1.57175 12.5696 1.57879 12.5554C1.58583 12.5411 1.58583 12.534 1.58583 12.534C1.74076 12.1782 1.90272 11.8295 2.07173 11.4879C2.4027 10.8048 2.77593 10.143 3.17732 9.50256C3.38154 9.17522 3.5928 8.86211 3.81814 8.54189C3.92377 8.39956 4.0294 8.25013 4.13503 8.1078C4.18432 8.03664 4.24066 7.9726 4.28995 7.90144C4.31812 7.85874 4.35333 7.81604 4.3815 7.78046C4.85331 7.18271 5.34625 6.61342 5.87439 6.0726C6.40958 5.52466 6.97294 4.99807 7.55743 4.50706C7.69827 4.3932 7.8391 4.27934 7.97994 4.1726C7.97994 4.15837 8.00107 4.15125 8.01515 4.13702C8.11374 4.06586 8.20529 3.9947 8.30387 3.92354C8.59964 3.70294 8.90948 3.48946 9.21229 3.28309C9.86719 2.85612 10.5503 2.45762 11.2474 2.10893C11.6066 1.92392 11.9798 1.72467 12.36 1.58234C12.4023 1.56099 12.4657 1.53965 12.4938 1.53253C12.5854 1.48983 12.684 1.45425 12.7826 1.41156C12.9797 1.3404 13.1769 1.26923 13.3741 1.19807C14.1628 0.91343 14.9656 0.685715 15.7824 0.500696C16.1768 0.408187 16.5782 0.32991 16.9796 0.265865C17.1556 0.230285 17.3387 0.223169 17.5148 0.180472C17.5077 0.180472 17.5007 0.180472 17.5007 0.187588C17.557 0.180472 17.6274 0.16624 17.6556 0.159124C17.7753 0.144892 17.895 0.130659 18.0077 0.123543C19.6626 -0.0543591 21.3315 -0.0401269 22.9793 0.16624C23.0146 0.16624 23.0427 0.173356 23.0779 0.173356C23.1695 0.187588 23.254 0.20182 23.3385 0.216053C23.5638 0.251633 23.7821 0.287214 24.0004 0.32991C24.4089 0.408187 24.8173 0.49358 25.2257 0.600322C26.0215 0.799573 26.8102 1.04864 27.5777 1.3404C27.7538 1.41156 27.9298 1.48272 28.1129 1.55388C28.1411 1.56811 28.1693 1.58234 28.1974 1.59658L28.5143 1.7389C28.8805 1.90257 29.2397 2.08759 29.5918 2.2726C30.3171 2.67111 31.0142 3.1123 31.6762 3.60331C31.7536 3.66024 31.8311 3.72429 31.9086 3.78122C31.9297 3.79545 31.9438 3.80968 31.9579 3.82391C32.1339 3.95912 32.2959 4.10144 32.4649 4.24376C32.7747 4.51417 33.0705 4.79882 33.3592 5.09769C33.6338 5.38234 33.9014 5.68121 34.1479 5.99432C34.1831 6.03702 34.2183 6.07972 34.2465 6.1153C34.2606 6.13664 34.2887 6.17222 34.3099 6.19357C34.338 6.23627 34.3662 6.27185 34.3733 6.28608C34.4225 6.35013 34.4648 6.41417 34.507 6.47822C35.0915 7.21118 35.5774 7.97971 35.9718 8.78383C36.4225 9.68758 36.7182 10.5842 36.9506 11.5733C37.1196 12.285 36.9506 13.7864 37.7604 14.1707C38.2111 14.3842 38.4928 13.8718 38.528 13.4947C38.6055 12.6265 38.5069 11.7512 38.4365 10.8973C38.3942 10.4134 38.3238 9.92241 38.2323 9.44563C38.1478 9.01866 37.9787 8.61305 37.8731 8.1932C37.8238 8.00818 37.7604 7.81604 37.7041 7.63103C37.6548 7.49582 37.6126 7.36773 37.5562 7.23964C37.5492 7.23964 37.5492 7.21829 37.5492 7.21118C37.5421 7.20406 37.5421 7.19694 37.5421 7.18983C37.521 7.12578 37.4928 7.06885 37.4717 7.00481C37.2745 6.52803 37.0633 6.07972 36.7816 5.64563C36.6901 5.50331 36.5844 5.36099 36.4858 5.21867C36.5563 5.20444 36.6337 5.19732 36.7041 5.18309C36.7253 5.18309 36.7816 5.16886 36.8098 5.16886C36.8591 5.16174 36.9013 5.15462 36.9506 5.14751C37.2041 5.11904 37.4506 5.08346 37.7041 5.04077C37.7675 5.03365 37.8309 5.02653 37.8942 5.0123C37.9013 5.0123 37.9154 5.0123 37.9294 5.00519C38.0351 4.99095 38.1407 4.98384 38.2393 4.9696C38.6759 4.92691 39.1125 4.89844 39.5491 4.89133C39.9998 4.88421 40.4575 4.89844 40.9012 4.93402C41.1124 4.95537 41.3166 4.96961 41.5209 4.99095C41.6265 5.00519 41.7251 5.0123 41.8307 5.02653C41.873 5.03365 41.9011 5.03365 41.9082 5.03365C41.9504 5.04077 41.9997 5.055 42.042 5.06211C42.9081 5.19732 43.7602 5.4108 44.5841 5.70968C44.7813 5.78084 44.9714 5.852 45.1615 5.93028C45.1827 5.93739 45.2038 5.95163 45.2249 5.95874C45.2461 5.96586 45.3024 5.99432 45.3235 6.00144C45.4291 6.05125 45.5348 6.10106 45.6404 6.15088C46.0348 6.3359 46.415 6.54226 46.7882 6.76998C47.1474 6.98346 47.4924 7.21118 47.8234 7.46024C47.9009 7.51717 47.9783 7.5741 48.0558 7.63103C48.084 7.65949 48.1121 7.67372 48.1403 7.70219C48.3093 7.83739 48.4713 7.9726 48.6262 8.11492C49.2459 8.65574 49.8093 9.2535 50.3233 9.90106C50.3656 9.95087 50.4219 10.0007 50.4571 10.0647C50.4571 10.0718 50.4712 10.0861 50.4782 10.1003C50.5064 10.1359 50.5346 10.1715 50.5627 10.2142C50.6895 10.385 50.8163 10.5629 50.936 10.7408C51.1543 11.0752 51.3726 11.4239 51.5627 11.7797C51.788 12.1782 51.9852 12.5838 52.1683 13.0037C52.1824 13.0393 52.2035 13.0748 52.2176 13.1175C52.2317 13.1389 52.2317 13.1531 52.2387 13.1673C52.2739 13.267 52.3162 13.3666 52.3514 13.4662C52.4359 13.6797 52.5134 13.8932 52.5768 14.1067C52.7246 14.5479 52.8443 15.0033 52.9429 15.4587C52.9922 15.6793 53.0345 15.8999 53.0697 16.1276C53.0767 16.1632 53.0838 16.1988 53.0838 16.2415C52.4711 16.5475 51.8726 16.8962 51.3022 17.2733C49.1262 18.7321 47.2953 20.625 46.2742 23.0801C46.2178 23.2224 46.1615 23.3789 46.2178 23.5142C46.2883 23.7063 46.5418 23.7703 46.7319 23.7063C46.922 23.6351 47.0699 23.4786 47.2037 23.3291C49.7529 20.5467 52.9288 18.2411 56.5695 17.3089C58.654 16.7752 60.8933 16.7112 62.9284 17.4085C67.6818 19.0381 70.2239 24.2756 69.9845 29.1216V29.1288Z" fill="#396039"/>
<path d="M51.9076 45.3747C48.4852 45.7447 48.1824 46.0507 47.8162 49.5091C47.4501 46.0507 47.1473 45.7447 43.7249 45.3747C47.1473 45.0047 47.4501 44.6987 47.8162 41.2402C48.1824 44.6987 48.4852 45.0047 51.9076 45.3747Z" fill="#FAF0E6"/>
<path d="M67.189 35.1846C67.189 35.1846 67.1679 35.2201 67.1538 35.2485C67.1468 35.2627 67.1398 35.2698 67.1328 35.2841C67.1328 35.2841 67.1257 35.2983 67.1187 35.2983C67.1187 35.2983 67.1117 35.3054 67.1046 35.3125C67.1046 35.3125 67.0976 35.3196 67.0906 35.3267C67.1538 35.2272 67.189 35.1846 67.196 35.1775L67.189 35.1846Z" fill="#FAF0E6"/>
<path d="M58.2809 39.1407H58.2668C58.2316 39.1407 58.2035 39.1266 58.1684 39.1266C58.1192 39.1125 58.1121 39.0985 58.2879 39.1407H58.2809Z" fill="#FAF0E6"/>
<path d="M69.0837 26.3533C69.0626 26.2894 69.0485 26.2823 69.1048 26.4812C69.1048 26.4812 69.1048 26.4812 69.1048 26.4741C69.0978 26.4315 69.0837 26.3959 69.0837 26.3533Z" fill="#FAF0E6"/>
<path d="M63.1257 17.6784C63.0062 17.6503 62.971 17.6362 62.9851 17.6362C63.0273 17.6503 63.0765 17.6643 63.1187 17.6784H63.1257Z" fill="#FAF0E6"/>
<path d="M63.2522 38.3511C63.2522 38.3511 63.2452 38.3511 63.2382 38.3581C63.2382 38.3581 63.2311 38.3581 63.2241 38.3651C63.2241 38.3651 63.2171 38.3651 63.21 38.3722C63.1819 38.3862 63.1468 38.4073 63.1187 38.4143C63.196 38.3722 63.2311 38.3511 63.2452 38.3511H63.2522Z" fill="#FAF0E6"/>
<path d="M68.443 32.9714C68.443 32.9714 68.4219 33.0354 68.4079 33.0709C68.4079 33.0851 68.3938 33.0993 68.3938 33.1135C68.3938 33.1135 68.3938 33.1206 68.3938 33.1277C68.4289 33.0283 68.443 32.9856 68.4571 32.9714H68.443Z" fill="#FAF0E6"/>
</svg>
