<svg width="67" height="67" viewBox="0 0 67 67" fill="none" xmlns="http://www.w3.org/2000/svg">
<path d="M60.2628 0H6.52195C2.91998 0 0 2.92 0 6.52196V60.2629C0 63.8647 2.91998 66.7849 6.52195 66.7849H60.2628C63.865 66.7849 66.7848 63.8647 66.7848 60.2629V6.52196C66.7848 2.92 63.865 0 60.2628 0Z" fill="#3178C6"/>
<path fill-rule="evenodd" clip-rule="evenodd" d="M41.3414 53.144V59.6738C42.4029 60.2181 43.6584 60.6259 45.1077 60.8981C46.5573 61.1702 48.0846 61.3063 49.6908 61.3063C51.2556 61.3063 52.7424 61.1569 54.1512 60.8572C55.5599 60.5583 56.795 60.065 57.8565 59.3779C58.9179 58.6909 59.7582 57.793 60.3776 56.6844C60.9966 55.5758 61.3063 54.205 61.3063 52.5725C61.3063 51.3892 61.1293 50.3519 60.7758 49.4608C60.4218 48.5696 59.9114 47.7774 59.2448 47.0837C58.5777 46.3895 57.778 45.7672 56.8459 45.2162C55.9139 44.6652 54.8624 44.1451 53.692 43.6551C52.8347 43.3015 52.0654 42.958 51.385 42.6249C50.7046 42.2914 50.1261 41.9512 49.6499 41.6044C49.1736 41.2575 48.8059 40.8902 48.5475 40.5024C48.2891 40.1146 48.1597 39.676 48.1597 39.1863C48.1597 38.7375 48.2753 38.3327 48.5066 37.9722C48.7382 37.6116 49.0647 37.3023 49.4866 37.0437C49.9086 36.7853 50.4254 36.5846 51.0381 36.4417C51.6505 36.2989 52.3308 36.2276 53.0797 36.2276C53.624 36.2276 54.1987 36.2684 54.8044 36.3499C55.41 36.4316 56.019 36.5574 56.6318 36.7274C57.2441 36.8975 57.8393 37.1118 58.4179 37.3702C58.9964 37.6288 59.5303 37.928 60.0203 38.2682V32.1668C59.0269 31.7859 57.9416 31.5036 56.7641 31.3199C55.587 31.1363 54.2363 31.0444 52.7119 31.0444C51.1604 31.0444 49.6908 31.2111 48.3025 31.5444C46.9146 31.8777 45.6929 32.398 44.6381 33.1054C43.5833 33.8129 42.7497 34.7141 42.1374 35.8092C41.5251 36.9043 41.2188 38.2136 41.2188 39.7373C41.2188 41.6828 41.7801 43.3424 42.9029 44.7165C44.0257 46.0902 45.7304 47.2535 48.0166 48.2056C48.9148 48.573 49.7521 48.9336 50.5277 49.2871C51.3036 49.6411 51.9735 50.0084 52.5383 50.3891C53.1031 50.7702 53.5488 51.1851 53.8757 51.6338C54.2025 52.0829 54.3657 52.593 54.3657 53.1644C54.3657 53.586 54.2634 53.9771 54.0593 54.3377C53.8552 54.6984 53.5455 55.011 53.1306 55.2765C52.7153 55.5415 52.1981 55.749 51.5791 55.8988C50.9597 56.0483 50.2351 56.1234 49.4048 56.1234C47.9894 56.1234 46.5878 55.875 45.1995 55.3783C43.8112 54.882 42.5252 54.137 41.3414 53.144ZM30.3636 37.0553H38.7404V31.6966H15.3918V37.0553H23.7277V60.9152H30.3636V37.0553Z" fill="white"/>
</svg>
