<svg width="70" height="70" viewBox="0 0 70 70" fill="none" xmlns="http://www.w3.org/2000/svg">
<path d="M9.75582 63.0026L4.13873 0H65.8612L60.2381 62.9926L34.9622 70L9.75582 63.0026Z" fill="#264DE4"/>
<path d="M55.4241 58.9816L60.2295 5.15137H35V64.644L55.4241 58.9816Z" fill="#2965F1"/>
<path d="M17.016 28.5181L17.7085 36.245H35V28.5181H17.016ZM16.3268 20.6055H35V12.8784H15.6243L16.3268 20.6055ZM35 48.5859L34.9661 48.595L26.3604 46.2713L25.8104 40.1086H18.0535L19.1362 52.2411L34.9644 56.6353L35 56.6253V48.5859Z" fill="#EBEBEB"/>
<path d="M34.9733 28.5181V36.245H44.4883L43.5914 46.2664L34.9733 48.5924V56.6314L50.8141 52.2411L50.9303 50.9356L52.7459 30.5929L52.9346 28.5181L54.3296 12.8784H34.9733V20.6055H45.8615L45.1582 28.5181H34.9733Z" fill="white"/>
</svg>
