<svg width="70" height="69" viewBox="0 0 70 69" fill="none" xmlns="http://www.w3.org/2000/svg">
<g clip-path="url(#clip0_2078_2339)">
<path d="M2.0005 24.6655C2.0005 24.6655 0.343445 23.4666 2.33191 21.8656L6.96475 17.7073C6.96475 17.7073 8.29039 16.3074 9.69197 17.5271L52.4439 50.0173V65.597C52.4439 65.597 52.4232 68.0435 49.2955 67.7732L2.0005 24.6655Z" fill="#2489CA"/>
<path d="M13.0199 34.708L2.00051 44.7642C2.00051 44.7642 0.868188 45.6097 2.00051 47.1205L7.11665 51.7917C7.11665 51.7917 8.33182 53.1015 10.127 51.6115L21.8092 42.7197L13.0199 34.708Z" fill="#1070B3"/>
<path d="M32.366 34.791L52.5751 19.3014L52.4439 3.80477C52.4439 3.80477 51.5809 0.422691 48.7018 2.18304L21.8092 26.7516L32.366 34.791Z" fill="#0877B9"/>
<path d="M49.2955 67.7941C50.4692 69 51.8915 68.6049 51.8915 68.6049L67.6404 60.8151C69.6565 59.4359 69.3734 57.7241 69.3734 57.7241V11.2066C69.3734 9.1621 67.2883 8.45519 67.2883 8.45519L53.6384 1.85043C50.6557 -1.54972e-05 48.7017 2.18309 48.7017 2.18309C48.7017 2.18309 51.2149 0.367301 52.4439 3.80483V65.313C52.4439 65.7357 52.3541 66.1516 52.1746 66.5258C51.8156 67.2535 51.0354 67.9327 49.1643 67.6485L49.2955 67.7941Z" fill="#3C99D4"/>
</g>
<defs>
<clipPath id="clip0_2078_2339">
<rect width="70" height="69" fill="white"/>
</clipPath>
</defs>
</svg>
