<svg width="70" height="70" viewBox="0 0 70 70" fill="none" xmlns="http://www.w3.org/2000/svg">
<g clip-path="url(#clip0_2197_4389)">
<path d="M63.5185 0H6.48148C2.90186 0 0 2.90186 0 6.48148V63.5185C0 67.0981 2.90186 70 6.48148 70H63.5185C67.0981 70 70 67.0981 70 63.5185V6.48148C70 2.90186 67.0981 0 63.5185 0Z" fill="#84CCE2"/>
<path d="M63.9813 45.6944H47.6389V24.3055H63.9813C64.2392 24.3055 64.4865 24.203 64.6688 24.0207C64.8511 23.8384 64.9536 23.5911 64.9536 23.3332C64.9536 23.0754 64.8511 22.8281 64.6688 22.6458C64.4865 22.4634 64.2392 22.361 63.9813 22.361H47.6389V6.01861C47.6389 5.76076 47.5365 5.51347 47.3542 5.33114C47.1718 5.14882 46.9245 5.04639 46.6667 5.04639C46.4088 5.04639 46.1616 5.14882 45.9792 5.33114C45.7969 5.51347 45.6945 5.76076 45.6945 6.01861V22.361H24.3056V6.01861C24.3056 5.76076 24.2032 5.51347 24.0208 5.33114C23.8385 5.14882 23.5912 5.04639 23.3334 5.04639C23.0755 5.04639 22.8282 5.14882 22.6459 5.33114C22.4636 5.51347 22.3611 5.76076 22.3611 6.01861V22.361H6.01873C5.76088 22.361 5.51359 22.4634 5.33127 22.6458C5.14894 22.8281 5.04651 23.0754 5.04651 23.3332C5.04651 23.5911 5.14894 23.8384 5.33127 24.0207C5.51359 24.203 5.76088 24.3055 6.01873 24.3055H22.3611V45.6944H6.01873C5.76088 45.6944 5.51359 45.7968 5.33127 45.9791C5.14894 46.1614 5.04651 46.4087 5.04651 46.6666C5.04651 46.9244 5.14894 47.1717 5.33127 47.354C5.51359 47.5364 5.76088 47.6388 6.01873 47.6388H22.3611V63.9812C22.3611 64.2391 22.4636 64.4863 22.6459 64.6687C22.8282 64.851 23.0755 64.9534 23.3334 64.9534C23.5912 64.9534 23.8385 64.851 24.0208 64.6687C24.2032 64.4863 24.3056 64.2391 24.3056 63.9812V47.6388H45.6945V63.9812C45.6945 64.2391 45.7969 64.4863 45.9792 64.6687C46.1616 64.851 46.4088 64.9534 46.6667 64.9534C46.9245 64.9534 47.1718 64.851 47.3542 64.6687C47.5365 64.4863 47.6389 64.2391 47.6389 63.9812V47.6388H63.9813C64.2392 47.6388 64.4865 47.5364 64.6688 47.354C64.8511 47.1717 64.9536 46.9244 64.9536 46.6666C64.9536 46.4087 64.8511 46.1614 64.6688 45.9791C64.4865 45.7968 64.2392 45.6944 63.9813 45.6944ZM45.6945 45.6944H24.3056V24.3055H45.6945V45.6944Z" fill="#426671"/>
<path d="M69.8367 6.48148V63.5185C69.8367 65.2375 69.1538 66.8861 67.9383 68.1016C66.7228 69.3171 65.0742 70 63.3552 70H6.31815C4.85145 70.0004 3.42798 69.5033 2.28036 68.5899C1.13275 67.6766 0.328835 66.401 0 64.9717C14.713 63.2003 30.5926 60.2674 42.2547 50.9509C48.8289 45.7009 53.9058 38.5635 56.6067 30.5874C59.8558 20.9948 59.0696 10.1124 56.3766 0H63.3552C64.2064 0 65.0492 0.167648 65.8355 0.493373C66.6219 0.819098 67.3364 1.29652 67.9383 1.89838C68.5402 2.50024 69.0176 3.21476 69.3433 4.00113C69.669 4.7875 69.8367 5.63032 69.8367 6.48148Z" fill="#696B92"/>
<path d="M11.699 17.0463C10.6414 17.0463 9.60762 16.7326 8.72827 16.1451C7.84893 15.5575 7.16356 14.7224 6.75884 13.7453C6.35412 12.7682 6.24823 11.6931 6.45455 10.6558C6.66088 9.61858 7.17015 8.6658 7.91797 7.91797C8.6658 7.17015 9.61858 6.66088 10.6558 6.45455C11.6931 6.24823 12.7682 6.35412 13.7453 6.75884C14.7224 7.16356 15.5575 7.84893 16.1451 8.72827C16.7326 9.60762 17.0463 10.6414 17.0463 11.699C17.0447 13.1167 16.4808 14.4759 15.4784 15.4784C14.4759 16.4808 13.1167 17.0447 11.699 17.0463ZM11.699 8.29625C11.026 8.29625 10.3681 8.49582 9.80855 8.86972C9.24897 9.24363 8.81282 9.77507 8.55527 10.3968C8.29773 11.0186 8.23034 11.7028 8.36164 12.3629C8.49293 13.023 8.81702 13.6293 9.2929 14.1052C9.76879 14.581 10.3751 14.9051 11.0352 15.0364C11.6953 15.1677 12.3794 15.1003 13.0012 14.8428C13.623 14.5852 14.1544 14.1491 14.5283 13.5895C14.9022 13.0299 15.1018 12.372 15.1018 11.699C15.1008 10.7969 14.7419 9.93196 14.104 9.29404C13.4661 8.65612 12.6012 8.29728 11.699 8.29625Z" fill="white"/>
<path d="M35.0324 40.3798C33.9748 40.3798 32.941 40.0661 32.0616 39.4786C31.1823 38.891 30.4969 38.0559 30.0922 37.0788C29.6875 36.1017 29.5816 35.0266 29.7879 33.9893C29.9943 32.9521 30.5035 31.9993 31.2513 31.2515C31.9992 30.5036 32.952 29.9944 33.9892 29.7881C35.0265 29.5817 36.1016 29.6876 37.0787 30.0923C38.0558 30.4971 38.8909 31.1824 39.4785 32.0618C40.066 32.9411 40.3796 33.9749 40.3796 35.0325C40.3781 36.4502 39.8142 37.8094 38.8118 38.8119C37.8093 39.8143 36.4501 40.3782 35.0324 40.3798ZM35.0324 31.6298C34.3594 31.6298 33.7015 31.8293 33.1419 32.2032C32.5823 32.5771 32.1462 33.1086 31.8886 33.7303C31.6311 34.3521 31.5637 35.0363 31.695 35.6964C31.8263 36.3565 32.1504 36.9628 32.6263 37.4387C33.1022 37.9145 33.7085 38.2386 34.3686 38.3699C35.0286 38.5012 35.7128 38.4338 36.3346 38.1763C36.9564 37.9187 37.4878 37.4826 37.8617 36.923C38.2356 36.3634 38.4352 35.7055 38.4352 35.0325C38.4342 34.1304 38.0753 33.2655 37.4374 32.6275C36.7995 31.9896 35.9346 31.6308 35.0324 31.6298Z" fill="white"/>
<path d="M58.3333 63.6805C57.2757 63.6805 56.2419 63.3669 55.3626 62.7794C54.4832 62.1918 53.7978 61.3567 53.3931 60.3796C52.9884 59.4025 52.8825 58.3274 53.0888 57.2901C53.2952 56.2529 53.8044 55.3001 54.5523 54.5523C55.3001 53.8044 56.2529 53.2952 57.2901 53.0888C58.3274 52.8825 59.4025 52.9884 60.3796 53.3931C61.3567 53.7978 62.1918 54.4832 62.7794 55.3626C63.3669 56.2419 63.6805 57.2757 63.6805 58.3333C63.679 59.751 63.1151 61.1102 62.1127 62.1127C61.1102 63.1151 59.751 63.679 58.3333 63.6805ZM58.3333 54.9305C57.6603 54.9305 57.0024 55.1301 56.4428 55.504C55.8832 55.8779 55.4471 56.4093 55.1896 57.0311C54.932 57.6529 54.8646 58.3371 54.9959 58.9972C55.1272 59.6572 55.4513 60.2635 55.9272 60.7394C56.4031 61.2153 57.0094 61.5394 57.6695 61.6707C58.3295 61.802 59.0137 61.7346 59.6355 61.4771C60.2573 61.2195 60.7887 60.7834 61.1626 60.2238C61.5365 59.6642 61.7361 59.0063 61.7361 58.3333C61.7351 57.4312 61.3762 56.5662 60.7383 55.9283C60.1004 55.2904 59.2355 54.9316 58.3333 54.9305Z" fill="white"/>
<path d="M58.3658 40.3798C57.3082 40.3798 56.2744 40.0661 55.395 39.4786C54.5157 38.891 53.8303 38.0559 53.4256 37.0788C53.0209 36.1017 52.915 35.0266 53.1213 33.9893C53.3276 32.9521 53.8369 31.9993 54.5847 31.2515C55.3325 30.5036 56.2853 29.9944 57.3226 29.7881C58.3598 29.5817 59.435 29.6876 60.4121 30.0923C61.3892 30.4971 62.2243 31.1824 62.8118 32.0618C63.3994 32.9411 63.713 33.9749 63.713 35.0325C63.7115 36.4502 63.1476 37.8094 62.1451 38.8119C61.1427 39.8143 59.7835 40.3782 58.3658 40.3798ZM58.3658 31.6298C57.6928 31.6298 57.0349 31.8293 56.4753 32.2032C55.9157 32.5771 55.4796 33.1086 55.222 33.7303C54.9645 34.3521 54.8971 35.0363 55.0284 35.6964C55.1597 36.3565 55.4838 36.9628 55.9597 37.4387C56.4355 37.9145 57.0419 38.2386 57.7019 38.3699C58.362 38.5012 59.0462 38.4338 59.668 38.1763C60.2897 37.9187 60.8212 37.4826 61.1951 36.923C61.569 36.3634 61.7686 35.7055 61.7686 35.0325C61.7675 34.1304 61.4087 33.2655 60.7708 32.6275C60.1329 31.9896 59.2679 31.6308 58.3658 31.6298Z" fill="white"/>
<path d="M39.4075 17.0463C39.2798 17.0464 39.1533 17.0213 39.0353 16.9725C38.9173 16.9236 38.8101 16.852 38.7198 16.7618L29.9698 8.01178C29.7874 7.8294 29.6849 7.58203 29.6849 7.3241C29.6849 7.06616 29.7874 6.8188 29.9698 6.63641C30.1522 6.45403 30.3995 6.35156 30.6575 6.35156C30.9154 6.35156 31.1628 6.45403 31.3452 6.63641L40.0952 15.3864C40.2312 15.5224 40.3239 15.6957 40.3614 15.8843C40.399 16.073 40.3797 16.2685 40.3061 16.4462C40.2325 16.6239 40.1078 16.7758 39.9478 16.8826C39.7879 16.9894 39.5998 17.0464 39.4075 17.0463Z" fill="white"/>
<path d="M30.6574 17.0463C30.465 17.0464 30.277 16.9894 30.117 16.8826C29.957 16.7758 29.8323 16.6239 29.7587 16.4462C29.6851 16.2685 29.6658 16.073 29.7034 15.8843C29.7409 15.6957 29.8336 15.5224 29.9697 15.3864L38.7197 6.63641C38.9021 6.45403 39.1494 6.35156 39.4074 6.35156C39.6653 6.35156 39.9127 6.45403 40.095 6.63641C40.2774 6.8188 40.3799 7.06616 40.3799 7.3241C40.3799 7.58203 40.2774 7.8294 40.095 8.01178L31.345 16.7618C31.2547 16.852 31.1475 16.9236 31.0295 16.9725C30.9115 17.0213 30.7851 17.0464 30.6574 17.0463Z" fill="white"/>
<path d="M39.375 63.6806C39.2473 63.6807 39.1208 63.6556 39.0029 63.6067C38.8849 63.5579 38.7776 63.4863 38.6873 63.3961L29.9373 54.6461C29.7549 54.4637 29.6525 54.2163 29.6525 53.9584C29.6525 53.7004 29.7549 53.4531 29.9373 53.2707C30.1197 53.0883 30.3671 52.9858 30.625 52.9858C30.8829 52.9858 31.1303 53.0883 31.3127 53.2707L40.0627 62.0207C40.1987 62.1567 40.2914 62.3299 40.329 62.5186C40.3665 62.7072 40.3473 62.9028 40.2736 63.0805C40.2 63.2582 40.0753 63.4101 39.9154 63.5169C39.7554 63.6237 39.5673 63.6807 39.375 63.6806Z" fill="white"/>
<path d="M30.625 63.6806C30.4327 63.6807 30.2446 63.6237 30.0846 63.5169C29.9247 63.4101 29.8 63.2582 29.7264 63.0805C29.6528 62.9028 29.6335 62.7072 29.671 62.5186C29.7086 62.3299 29.8013 62.1567 29.9373 62.0207L38.6873 53.2707C38.8697 53.0883 39.1171 52.9858 39.375 52.9858C39.6329 52.9858 39.8803 53.0883 40.0627 53.2707C40.2451 53.4531 40.3475 53.7004 40.3475 53.9584C40.3475 54.2163 40.2451 54.4637 40.0627 54.6461L31.3127 63.3961C31.2224 63.4863 31.1151 63.5579 30.9972 63.6067C30.8792 63.6556 30.7527 63.6807 30.625 63.6806Z" fill="white"/>
<path d="M16.0416 63.6806C15.9139 63.6807 15.7875 63.6556 15.6695 63.6067C15.5515 63.5579 15.4443 63.4863 15.3539 63.3961L6.60394 54.6461C6.42155 54.4637 6.31909 54.2163 6.31909 53.9584C6.31909 53.7004 6.42155 53.4531 6.60394 53.2707C6.78633 53.0883 7.03369 52.9858 7.29163 52.9858C7.54956 52.9858 7.79693 53.0883 7.97931 53.2707L16.7293 62.0207C16.8654 62.1567 16.958 62.3299 16.9956 62.5186C17.0331 62.7072 17.0139 62.9028 16.9403 63.0805C16.8666 63.2582 16.742 63.4101 16.582 63.5169C16.422 63.6237 16.234 63.6807 16.0416 63.6806Z" fill="white"/>
<path d="M7.29163 63.6806C7.09928 63.6807 6.91123 63.6237 6.75126 63.5169C6.5913 63.4101 6.46662 63.2582 6.393 63.0805C6.31938 62.9028 6.30013 62.7072 6.33768 62.5186C6.37523 62.3299 6.46789 62.1567 6.60395 62.0207L15.3539 53.2707C15.5363 53.0883 15.7837 52.9858 16.0416 52.9858C16.2996 52.9858 16.5469 53.0883 16.7293 53.2707C16.9117 53.4531 17.0142 53.7004 17.0142 53.9584C17.0142 54.2163 16.9117 54.4637 16.7293 54.6461L7.97932 63.3961C7.88899 63.4863 7.78177 63.5579 7.66378 63.6067C7.54579 63.6556 7.41933 63.6807 7.29163 63.6806Z" fill="white"/>
<path d="M62.7407 17.0463C62.613 17.0464 62.4866 17.0213 62.3686 16.9725C62.2506 16.9236 62.1434 16.852 62.053 16.7618L53.303 8.01178C53.1207 7.8294 53.0182 7.58203 53.0182 7.3241C53.0182 7.06616 53.1207 6.8188 53.303 6.63641C53.4854 6.45403 53.7328 6.35156 53.9907 6.35156C54.2487 6.35156 54.496 6.45403 54.6784 6.63641L63.4284 15.3864C63.5645 15.5224 63.6571 15.6957 63.6947 15.8843C63.7322 16.073 63.713 16.2685 63.6394 16.4462C63.5657 16.6239 63.4411 16.7758 63.2811 16.8826C63.1211 16.9894 62.9331 17.0464 62.7407 17.0463Z" fill="white"/>
<path d="M53.9907 17.0463C53.7984 17.0464 53.6103 16.9894 53.4504 16.8826C53.2904 16.7758 53.1657 16.6239 53.0921 16.4462C53.0185 16.2685 52.9992 16.073 53.0368 15.8843C53.0743 15.6957 53.167 15.5224 53.303 15.3864L62.053 6.63641C62.1434 6.5461 62.2506 6.47447 62.3686 6.42559C62.4866 6.37672 62.613 6.35156 62.7407 6.35156C62.8684 6.35156 62.9949 6.37672 63.1129 6.42559C63.2309 6.47447 63.3381 6.5461 63.4284 6.63641C63.5187 6.72672 63.5904 6.83393 63.6392 6.95192C63.6881 7.06992 63.7133 7.19638 63.7133 7.3241C63.7133 7.45181 63.6881 7.57828 63.6392 7.69627C63.5904 7.81426 63.5187 7.92147 63.4284 8.01178L54.6784 16.7618C54.5881 16.852 54.4809 16.9236 54.3629 16.9725C54.2449 17.0213 54.1184 17.0464 53.9907 17.0463Z" fill="white"/>
<path d="M16.0741 40.3796C15.9464 40.3796 15.8199 40.3545 15.702 40.3057C15.584 40.2569 15.4767 40.1853 15.3864 40.095L6.63641 31.345C6.45403 31.1626 6.35156 30.9153 6.35156 30.6573C6.35156 30.3994 6.45403 30.152 6.63641 29.9697C6.8188 29.7873 7.06616 29.6848 7.3241 29.6848C7.58203 29.6848 7.8294 29.7873 8.01178 29.9697L16.7618 38.7197C16.8978 38.8556 16.9905 39.0289 17.0281 39.2176C17.0656 39.4062 17.0464 39.6018 16.9727 39.7795C16.8991 39.9572 16.7744 40.109 16.6145 40.2159C16.4545 40.3227 16.2664 40.3797 16.0741 40.3796Z" fill="white"/>
<path d="M7.3241 40.3796C7.13175 40.3797 6.9437 40.3227 6.78374 40.2159C6.62377 40.109 6.49909 39.9572 6.42547 39.7795C6.35185 39.6018 6.3326 39.4062 6.37015 39.2176C6.4077 39.0289 6.50036 38.8556 6.63642 38.7197L15.3864 29.9697C15.5688 29.7873 15.8162 29.6848 16.0741 29.6848C16.332 29.6848 16.5794 29.7873 16.7618 29.9697C16.9442 30.152 17.0466 30.3994 17.0466 30.6573C17.0466 30.9153 16.9442 31.1626 16.7618 31.345L8.01179 40.095C7.92147 40.1853 7.81425 40.2569 7.69625 40.3057C7.57826 40.3545 7.4518 40.3796 7.3241 40.3796Z" fill="white"/>
<path d="M61.4794 62.2572C61.3518 62.2575 61.2254 62.2325 61.1074 62.1836C60.9895 62.1348 60.8824 62.0631 60.7924 61.9726L8.22173 9.402C8.12888 9.31231 8.05481 9.20504 8.00386 9.08642C7.95291 8.96781 7.92609 8.84023 7.92496 8.71114C7.92384 8.58205 7.94844 8.45403 7.99732 8.33454C8.04621 8.21506 8.1184 8.10651 8.20968 8.01523C8.30097 7.92394 8.40952 7.85175 8.529 7.80287C8.64848 7.75398 8.77651 7.72938 8.9056 7.73051C9.03469 7.73163 9.16226 7.75845 9.28088 7.8094C9.39949 7.86035 9.50677 7.93442 9.59646 8.02728L62.1671 60.5979C62.3029 60.7339 62.3954 60.9071 62.4328 61.0957C62.4703 61.2842 62.4509 61.4796 62.3773 61.6572C62.3038 61.8348 62.1792 61.9865 62.0194 62.0933C61.8595 62.2001 61.6716 62.2571 61.4794 62.2572Z" fill="white"/>
</g>
<defs>
<clipPath id="clip0_2197_4389">
<rect width="70" height="70" fill="white"/>
</clipPath>
</defs>
</svg>
